<svg width="23" height="23" viewBox="0 0 23 23" fill="none" xmlns="http://www.w3.org/2000/svg">
<path fill-rule="evenodd" clip-rule="evenodd" d="M11.5162 0C10.0081 0 8.5148 0.297038 7.12152 0.874153C5.72824 1.45127 4.46227 2.29716 3.3959 3.36353C1.24227 5.51717 0.0323687 8.43812 0.0323687 11.4838C0.0223294 14.1356 0.9405 16.7073 2.62771 18.7531L0.330948 21.0498C0.171601 21.2113 0.0636576 21.4164 0.0207379 21.6392C-0.0221819 21.8619 0.00184533 22.0924 0.0897877 22.3016C0.18517 22.5082 0.339795 22.6818 0.534035 22.8004C0.728276 22.919 0.953372 22.9772 1.18075 22.9676H11.5162C12.1297 22.9676 12.7382 22.9185 13.3363 22.8225L12.1444 20.6489C11.9359 20.6633 11.7264 20.6707 11.5162 20.6709H3.94835L5.01635 19.6029C5.23023 19.3877 5.35029 19.0967 5.35029 18.7933C5.35029 18.4899 5.23023 18.1988 5.01635 17.9837C3.51264 16.4816 2.57623 14.5047 2.36667 12.3897C2.15711 10.2746 2.68736 8.15237 3.86708 6.38445C5.04679 4.61654 6.80299 3.31234 8.83645 2.69407C10.8699 2.0758 13.0549 2.1817 15.019 2.99373C16.9831 3.80576 18.605 5.27368 19.6082 7.1474C20.4415 8.70377 20.8051 10.4601 20.6677 12.2053L22.721 14C22.9051 13.1805 23 12.337 23 11.4838C23 8.43812 21.7901 5.51717 19.6365 3.36353C17.4828 1.2099 14.5619 0 11.5162 0ZM16 14C16 13.4477 16.4477 13 17 13C17.5523 13 18 13.4477 18 14V16H20C20.5523 16 21 16.4477 21 17C21 17.5523 20.5523 18 20 18H18V20C18 20.5523 17.5523 21 17 21C16.4477 21 16 20.5523 16 20V18H14C13.4477 18 13 17.5523 13 17C13 16.4477 13.4477 16 14 16H16V14Z" fill="black"/>
</svg>
