<svg width="24" height="24" viewBox="0 0 24 24" fill="none" xmlns="http://www.w3.org/2000/svg">
<path d="M11.9999 2C10.6866 2 9.38629 2.25866 8.17303 2.7612C6.95978 3.26375 5.85738 4.00035 4.9288 4.92893C3.05343 6.8043 1.99987 9.34784 1.99987 12C1.99112 14.3091 2.79066 16.5485 4.25987 18.33L2.25987 20.33C2.12111 20.4706 2.02711 20.6492 1.98974 20.8432C1.95236 21.0372 1.97329 21.2379 2.04987 21.42C2.13292 21.5999 2.26757 21.7511 2.43671 21.8544C2.60586 21.9577 2.80187 22.0083 2.99987 22H11.9999C14.652 22 17.1956 20.9464 19.0709 19.0711C20.9463 17.1957 21.9999 14.6522 21.9999 12C21.9999 9.34784 20.9463 6.8043 19.0709 4.92893C17.1956 3.05357 14.652 2 11.9999 2V2ZM11.9999 20H5.40987L6.33987 19.07C6.52612 18.8826 6.63066 18.6292 6.63066 18.365C6.63066 18.1008 6.52612 17.8474 6.33987 17.66C5.03045 16.352 4.21504 14.6305 4.03256 12.7888C3.85007 10.947 4.31181 9.09901 5.33909 7.55952C6.36638 6.02004 7.89566 4.88436 9.66638 4.34597C11.4371 3.80759 13.3397 3.8998 15.0501 4.60691C16.7604 5.31402 18.1727 6.59227 19.0463 8.22389C19.9199 9.85551 20.2007 11.7395 19.841 13.555C19.4813 15.3705 18.5032 17.005 17.0734 18.1802C15.6436 19.3554 13.8506 19.9985 11.9999 20V20ZM14.9999 11H12.9999V9C12.9999 8.73478 12.8945 8.48043 12.707 8.29289C12.5194 8.10536 12.2651 8 11.9999 8C11.7346 8 11.4803 8.10536 11.2928 8.29289C11.1052 8.48043 10.9999 8.73478 10.9999 9V11H8.99987C8.73465 11 8.4803 11.1054 8.29276 11.2929C8.10522 11.4804 7.99987 11.7348 7.99987 12C7.99987 12.2652 8.10522 12.5196 8.29276 12.7071C8.4803 12.8946 8.73465 13 8.99987 13H10.9999V15C10.9999 15.2652 11.1052 15.5196 11.2928 15.7071C11.4803 15.8946 11.7346 16 11.9999 16C12.2651 16 12.5194 15.8946 12.707 15.7071C12.8945 15.5196 12.9999 15.2652 12.9999 15V13H14.9999C15.2651 13 15.5194 12.8946 15.707 12.7071C15.8945 12.5196 15.9999 12.2652 15.9999 12C15.9999 11.7348 15.8945 11.4804 15.707 11.2929C15.5194 11.1054 15.2651 11 14.9999 11Z" fill="currentColor"/>
</svg>
