<svg width="43" height="43" viewBox="0 0 43 43" fill="none" xmlns="http://www.w3.org/2000/svg">
<path d="M29.55 12.3H27.25V11.15C27.25 10.46 26.79 10 26.1 10C25.41 10 24.95 10.46 24.95 11.15V12.3H18.05V11.15C18.05 10.46 17.59 10 16.9 10C16.21 10 15.75 10.46 15.75 11.15V12.3H13.45C11.495 12.3 10 13.795 10 15.75V29.55C10 31.505 11.495 33 13.45 33H29.55C31.505 33 33 31.505 33 29.55V15.75C33 13.795 31.505 12.3 29.55 12.3ZM30.7 29.55C30.7 30.24 30.24 30.7 29.55 30.7H13.45C12.76 30.7 12.3 30.24 12.3 29.55V21.5H30.7V29.55ZM30.7 19.2H12.3V15.75C12.3 15.06 12.76 14.6 13.45 14.6H15.75V15.75C15.75 16.44 16.21 16.9 16.9 16.9C17.59 16.9 18.05 16.44 18.05 15.75V14.6H24.95V15.75C24.95 16.44 25.41 16.9 26.1 16.9C26.79 16.9 27.25 16.44 27.25 15.75V14.6H29.55C30.24 14.6 30.7 15.06 30.7 15.75V19.2Z" fill="#FF8B3F"/>
</svg>
