<svg width="18" height="18" viewBox="0 0 18 18" fill="none" xmlns="http://www.w3.org/2000/svg">
<circle cx="9" cy="9" r="9" fill="black"/>
<path d="M5.84467 12.2086C5.55178 11.9157 5.55178 11.4409 5.84467 11.148L8.00368 8.98896L5.92005 6.90533C5.62716 6.61244 5.62716 6.13756 5.92005 5.84467C6.21294 5.55178 6.68782 5.55178 6.98071 5.84467L9.06434 7.9283L11.148 5.84467C11.4409 5.55178 11.9157 5.55178 12.2086 5.84467C12.5015 6.13756 12.5015 6.61244 12.2086 6.90533L10.125 8.98896L12.284 11.148C12.5769 11.4409 12.5769 11.9157 12.284 12.2086C11.9911 12.5015 11.5162 12.5015 11.2234 12.2086L9.06434 10.0496L6.90533 12.2086C6.61244 12.5015 6.13756 12.5015 5.84467 12.2086Z" fill="white"/>
</svg>
