<svg width="24" height="25" viewBox="0 0 24 25" fill="none" xmlns="http://www.w3.org/2000/svg">
<circle cx="12" cy="12.5" r="10" fill="currentColor"/>
<path d="M8.49408 16.0651C8.16864 15.7397 8.16864 15.2121 8.49408 14.8866L10.893 12.4877L8.57783 10.1726C8.2524 9.84715 8.2524 9.31951 8.57783 8.99408C8.90327 8.66864 9.43091 8.66864 9.75634 8.99408L12.0715 11.3092L14.3866 8.99408C14.7121 8.66864 15.2397 8.66864 15.5651 8.99408C15.8906 9.31951 15.8906 9.84715 15.5651 10.1726L13.25 12.4877L15.6489 14.8866C15.9743 15.2121 15.9743 15.7397 15.6489 16.0651C15.3235 16.3906 14.7958 16.3906 14.4704 16.0651L12.0715 13.6662L9.67259 16.0651C9.34715 16.3906 8.81951 16.3906 8.49408 16.0651Z" fill="white"/>
</svg>
