<svg width="44" height="44" viewBox="0 0 44 44" fill="none" xmlns="http://www.w3.org/2000/svg">
<path fill-rule="evenodd" clip-rule="evenodd" d="M15.6211 20.6213C14.7927 20.6213 14.1211 21.2929 14.1211 22.1213C14.1211 22.9497 14.7927 23.6213 15.6211 23.6213L20.6211 23.6213L20.6211 28.6213C20.6211 29.4498 21.2927 30.1213 22.1211 30.1213C22.9495 30.1213 23.6211 29.4498 23.6211 28.6213V23.6213L28.6211 23.6213C29.4495 23.6213 30.1211 22.9497 30.1211 22.1213C30.1211 21.2929 29.4495 20.6213 28.6211 20.6213L23.6211 20.6213L23.6211 15.6213C23.6211 14.7929 22.9495 14.1213 22.1211 14.1213C21.2927 14.1213 20.6211 14.7929 20.6211 15.6213L20.6211 20.6213L15.6211 20.6213Z" fill="currentColor"/>
</svg>
