<svg width="24" height="24" viewBox="0 0 24 24" fill="none" xmlns="http://www.w3.org/2000/svg">
<path d="M11.9999 0.333344C9.69248 0.333344 7.43684 1.01758 5.51827 2.29953C3.5997 3.58148 2.10435 5.40356 1.22133 7.53537C0.338307 9.66717 0.107268 12.013 0.557429 14.2761C1.00759 16.5392 2.11873 18.618 3.75034 20.2496C5.38196 21.8812 7.46076 22.9923 9.72387 23.4425C11.987 23.8927 14.3328 23.6616 16.4646 22.7786C18.5964 21.8956 20.4185 20.4002 21.7004 18.4817C22.9823 16.5631 23.6666 14.3075 23.6666 12C23.6631 8.90687 22.4329 5.94141 20.2457 3.75423C18.0585 1.56705 15.0931 0.336784 11.9999 0.333344ZM11.9999 21.3333C10.154 21.3333 8.34946 20.786 6.8146 19.7604C5.27974 18.7348 4.08347 17.2772 3.37705 15.5717C2.67063 13.8663 2.4858 11.9897 2.84593 10.1792C3.20606 8.36868 4.09497 6.70564 5.40026 5.40035C6.70555 4.09506 8.36859 3.20614 10.1791 2.84601C11.9896 2.48589 13.8662 2.67072 15.5716 3.37713C17.2771 4.08355 18.7347 5.27983 19.7603 6.81469C20.7859 8.34955 21.3333 10.1541 21.3333 12C21.3304 14.4745 20.3462 16.8468 18.5965 18.5965C16.8467 20.3463 14.4744 21.3305 11.9999 21.3333ZM11.9999 11.4167C11.6905 11.4167 11.3938 11.5396 11.175 11.7584C10.9562 11.9772 10.8333 12.2739 10.8333 12.5833V16.0833C10.8333 16.3928 10.9562 16.6895 11.175 16.9083C11.3938 17.1271 11.6905 17.25 11.9999 17.25C12.3093 17.25 12.6061 17.1271 12.8249 16.9083C13.0437 16.6895 13.1666 16.3928 13.1666 16.0833V12.5833C13.1666 12.2739 13.0437 11.9772 12.8249 11.7584C12.6061 11.5396 12.3093 11.4167 11.9999 11.4167ZM11.9999 6.75001C11.7115 6.75001 11.4295 6.83554 11.1897 6.99578C10.9499 7.15603 10.763 7.38379 10.6526 7.65026C10.5422 7.91674 10.5133 8.20996 10.5696 8.49285C10.6259 8.77574 10.7648 9.03559 10.9687 9.23954C11.1727 9.44349 11.4325 9.58239 11.7154 9.63866C11.9983 9.69493 12.2915 9.66605 12.558 9.55567C12.8245 9.44529 13.0522 9.25837 13.2125 9.01855C13.3727 8.77873 13.4583 8.49677 13.4583 8.20834C13.4583 7.82157 13.3046 7.45064 13.0311 7.17715C12.7576 6.90366 12.3867 6.75001 11.9999 6.75001Z" fill="#C0C3CD"/>
</svg>
