<svg width="20" height="20" viewBox="0 0 20 20" fill="none" xmlns="http://www.w3.org/2000/svg">
<path d="M18.339 1.661C17.2752 0.597466 15.8326 0 14.3284 0C12.8242 0 11.3816 0.597466 10.3178 1.661L1.72048 10.2583C1.18109 10.7822 0.751236 11.408 0.455901 12.0995C0.160566 12.7909 0.00564643 13.5342 0.000151494 14.2861C-0.00534344 15.038 0.138696 15.7834 0.423893 16.4791C0.70909 17.1748 1.12975 17.8069 1.66142 18.3386C2.19309 18.8702 2.82516 19.2909 3.52087 19.5761C4.21657 19.8613 4.96204 20.0053 5.71391 19.9998C6.46579 19.9944 7.20907 19.8394 7.90053 19.5441C8.592 19.2488 9.21784 18.8189 9.74169 18.2795L18.339 9.6822C19.4025 8.61845 20 7.17582 20 5.6716C20 4.16738 19.4025 2.72475 18.339 1.661ZM8.16847 16.7174C7.50819 17.3415 6.63409 17.6892 5.72554 17.6892C4.81699 17.6892 3.9429 17.3415 3.28262 16.7174C2.63786 16.0678 2.27604 15.1897 2.27604 14.2745C2.27604 13.3592 2.63786 12.4811 3.28262 11.8315L6.80575 8.30841L11.6916 13.1943L8.16847 16.7174ZM16.7769 8.10898L13.2537 11.6321L8.36789 6.74627L11.891 3.22314C12.5458 2.60971 13.4135 2.27494 14.3106 2.28957C15.2077 2.3042 16.064 2.66709 16.6985 3.30154C17.3329 3.93599 17.6958 4.79227 17.7104 5.6894C17.7251 6.58652 17.3903 7.45419 16.7769 8.10898Z" fill="#FF8B3F"/>
</svg>
