<svg width="43" height="43" viewBox="0 0 43 43" fill="none" xmlns="http://www.w3.org/2000/svg">
<path d="M22 11C19.8783 11 17.8434 11.8429 16.3431 13.3431C14.8429 14.8434 14 16.8783 14 19C14 24.4 21.05 30.5 21.35 30.76C21.5311 30.9149 21.7616 31.0001 22 31.0001C22.2384 31.0001 22.4689 30.9149 22.65 30.76C23 30.5 30 24.4 30 19C30 16.8783 29.1571 14.8434 27.6569 13.3431C26.1566 11.8429 24.1217 11 22 11ZM22 28.65C19.87 26.65 16 22.34 16 19C16 17.4087 16.6321 15.8826 17.7574 14.7574C18.8826 13.6321 20.4087 13 22 13C23.5913 13 25.1174 13.6321 26.2426 14.7574C27.3679 15.8826 28 17.4087 28 19C28 22.34 24.13 26.66 22 28.65ZM22 15C21.2089 15 20.4355 15.2346 19.7777 15.6741C19.1199 16.1136 18.6072 16.7384 18.3045 17.4693C18.0017 18.2002 17.9225 19.0044 18.0769 19.7804C18.2312 20.5563 18.6122 21.269 19.1716 21.8284C19.731 22.3878 20.4437 22.7688 21.2196 22.9231C21.9956 23.0775 22.7998 22.9983 23.5307 22.6955C24.2616 22.3928 24.8864 21.8801 25.3259 21.2223C25.7654 20.5645 26 19.7911 26 19C26 17.9391 25.5786 16.9217 24.8284 16.1716C24.0783 15.4214 23.0609 15 22 15ZM22 21C21.6044 21 21.2178 20.8827 20.8889 20.6629C20.56 20.4432 20.3036 20.1308 20.1522 19.7654C20.0009 19.3999 19.9613 18.9978 20.0384 18.6098C20.1156 18.2219 20.3061 17.8655 20.5858 17.5858C20.8655 17.3061 21.2219 17.1156 21.6098 17.0384C21.9978 16.9613 22.3999 17.0009 22.7654 17.1522C23.1308 17.3036 23.4432 17.56 23.6629 17.8889C23.8827 18.2178 24 18.6044 24 19C24 19.5304 23.7893 20.0391 23.4142 20.4142C23.0391 20.7893 22.5304 21 22 21Z" fill="black"/>
</svg>
