<svg width="43" height="43" viewBox="0 0 43 43" fill="none" xmlns="http://www.w3.org/2000/svg">
<path d="M21.5 10C19.2255 10 17.0021 10.6745 15.1109 11.9381C13.2198 13.2017 11.7458 14.9978 10.8754 17.0991C10.005 19.2005 9.77724 21.5128 10.221 23.7435C10.6647 25.9743 11.76 28.0234 13.3683 29.6317C14.9766 31.24 17.0257 32.3353 19.2565 32.779C21.4872 33.2228 23.7995 32.995 25.9009 32.1246C28.0022 31.2542 29.7983 29.7802 31.0619 27.8891C32.3255 25.9979 33 23.7745 33 21.5C32.9966 18.451 31.7839 15.5279 29.628 13.372C27.472 11.2161 24.549 10.0034 21.5 10ZM21.5 30.7C19.6804 30.7 17.9017 30.1604 16.3888 29.1495C14.8758 28.1386 13.6966 26.7018 13.0003 25.0207C12.304 23.3396 12.1218 21.4898 12.4768 19.7052C12.8318 17.9205 13.708 16.2813 14.9946 14.9946C16.2813 13.708 17.9205 12.8318 19.7052 12.4768C21.4898 12.1218 23.3396 12.304 25.0207 13.0003C26.7018 13.6966 28.1386 14.8758 29.1495 16.3888C30.1604 17.9017 30.7 19.6804 30.7 21.5C30.6972 23.9391 29.727 26.2776 28.0023 28.0023C26.2776 29.727 23.9391 30.6972 21.5 30.7ZM21.5 20.925C21.195 20.925 20.9025 21.0462 20.6868 21.2618C20.4712 21.4775 20.35 21.77 20.35 22.075V25.525C20.35 25.83 20.4712 26.1225 20.6868 26.3382C20.9025 26.5538 21.195 26.675 21.5 26.675C21.805 26.675 22.0975 26.5538 22.3132 26.3382C22.5288 26.1225 22.65 25.83 22.65 25.525V22.075C22.65 21.77 22.5288 21.4775 22.3132 21.2618C22.0975 21.0462 21.805 20.925 21.5 20.925ZM21.5 16.325C21.2157 16.325 20.9378 16.4093 20.7014 16.5673C20.465 16.7252 20.2807 16.9497 20.1719 17.2124C20.0631 17.4751 20.0347 17.7641 20.0901 18.0429C20.1456 18.3218 20.2825 18.5779 20.4835 18.779C20.6846 18.98 20.9407 19.1169 21.2196 19.1724C21.4984 19.2278 21.7874 19.1994 22.0501 19.0906C22.3128 18.9818 22.5373 18.7975 22.6952 18.5611C22.8532 18.3247 22.9375 18.0468 22.9375 17.7625C22.9375 17.3812 22.7861 17.0156 22.5165 16.746C22.2469 16.4764 21.8813 16.325 21.5 16.325Z" fill="black"/>
</svg>
