<svg width="18" height="18" viewBox="0 0 18 18" fill="none" xmlns="http://www.w3.org/2000/svg">
<path d="M15.3 0H2.7C1.98392 0 1.29716 0.284464 0.790812 0.790812C0.284464 1.29716 0 1.98392 0 2.7V15.3C0 16.0161 0.284464 16.7028 0.790812 17.2092C1.29716 17.7155 1.98392 18 2.7 18H15.3C15.448 17.9979 15.5956 17.9829 15.741 17.955L16.011 17.892H16.074H16.119L16.452 17.766L16.569 17.703C16.659 17.649 16.758 17.604 16.848 17.541C16.9682 17.4526 17.0824 17.3564 17.19 17.253L17.253 17.172C17.3414 17.0825 17.4226 16.9862 17.496 16.884L17.577 16.767C17.6399 16.6668 17.6941 16.5614 17.739 16.452C17.7637 16.4088 17.7848 16.3637 17.802 16.317C17.847 16.209 17.874 16.092 17.91 15.975V15.84C17.961 15.6641 17.9912 15.4829 18 15.3V2.7C18 1.98392 17.7155 1.29716 17.2092 0.790812C16.7028 0.284464 16.0161 0 15.3 0ZM2.7 16.2C2.46131 16.2 2.23239 16.1052 2.0636 15.9364C1.89482 15.7676 1.8 15.5387 1.8 15.3V11.421L4.761 8.451C4.84467 8.36664 4.94421 8.29969 5.05388 8.254C5.16355 8.20831 5.28119 8.18478 5.4 8.18478C5.51881 8.18478 5.63645 8.20831 5.74612 8.254C5.85579 8.29969 5.95533 8.36664 6.039 8.451L13.779 16.2H2.7ZM16.2 15.3C16.1992 15.411 16.1778 15.5208 16.137 15.624C16.1164 15.6679 16.0924 15.71 16.065 15.75C16.0409 15.7881 16.0138 15.8242 15.984 15.858L11.169 11.043L11.961 10.251C12.0447 10.1666 12.1442 10.0997 12.2539 10.054C12.3636 10.0083 12.4812 9.98478 12.6 9.98478C12.7188 9.98478 12.8364 10.0083 12.9461 10.054C13.0558 10.0997 13.1553 10.1666 13.239 10.251L16.2 13.221V15.3ZM16.2 10.674L14.508 9C13.9929 8.51129 13.31 8.23885 12.6 8.23885C11.89 8.23885 11.2071 8.51129 10.692 9L9.9 9.792L7.308 7.2C6.79295 6.71129 6.11001 6.43885 5.4 6.43885C4.68999 6.43885 4.00705 6.71129 3.492 7.2L1.8 8.874V2.7C1.8 2.46131 1.89482 2.23239 2.0636 2.0636C2.23239 1.89482 2.46131 1.8 2.7 1.8H15.3C15.5387 1.8 15.7676 1.89482 15.9364 2.0636C16.1052 2.23239 16.2 2.46131 16.2 2.7V10.674Z" fill="black"/>
</svg>
