<svg width="10" height="10" viewBox="0 0 10 10" fill="none" xmlns="http://www.w3.org/2000/svg">
<path fill-rule="evenodd" clip-rule="evenodd" d="M2.25011 1.17157C2.97942 0.421426 3.96858 0 4.99997 0C6.03137 0 7.02052 0.421426 7.74983 1.17157C8.47914 1.92171 8.88886 2.93912 8.88886 3.99999C8.88886 6.69998 5.48608 9.74997 5.31595 9.87997C5.22789 9.95743 5.11584 10 4.99997 10C4.88411 10 4.77205 9.95743 4.684 9.87997L4.68319 9.87925C4.52603 9.73916 1.11108 6.69519 1.11108 3.99999C1.11108 2.93912 1.52081 1.92171 2.25011 1.17157ZM4.99997 5.55556C5.92045 5.55556 6.66664 4.80936 6.66664 3.88889C6.66664 2.96841 5.92045 2.22222 4.99997 2.22222C4.0795 2.22222 3.33331 2.96841 3.33331 3.88889C3.33331 4.80936 4.0795 5.55556 4.99997 5.55556Z" fill="#D5D5D5"/>
</svg>
