<svg width="22" height="22" viewBox="0 0 22 22" fill="none" xmlns="http://www.w3.org/2000/svg">
<path d="M20.71 5.53L19.29 4.12L20.71 2.71C20.8983 2.5217 21.0041 2.2663 21.0041 2C21.0041 1.7337 20.8983 1.47831 20.71 1.29C20.5217 1.1017 20.2663 0.995911 20 0.995911C19.7337 0.995911 19.4783 1.1017 19.29 1.29L8.74997 11.83C7.71601 11.1478 6.46564 10.8738 5.24114 11.0609C4.01664 11.248 2.90519 11.883 2.12216 12.8429C1.33913 13.8027 0.940263 15.019 1.00285 16.2561C1.06544 17.4933 1.58503 18.6631 2.46093 19.539C3.33684 20.415 4.5067 20.9345 5.74383 20.9971C6.98097 21.0597 8.19729 20.6608 9.15712 19.8778C10.117 19.0948 10.752 17.9833 10.9391 16.7588C11.1262 15.5343 10.8521 14.284 10.17 13.25L15.05 8.36L16.46 9.78C16.5534 9.87268 16.6642 9.94601 16.7861 9.99577C16.9079 10.0455 17.0384 10.0708 17.17 10.07C17.3016 10.0708 17.432 10.0455 17.5539 9.99577C17.6757 9.94601 17.7865 9.87268 17.88 9.78C17.9737 9.68704 18.0481 9.57644 18.0989 9.45458C18.1496 9.33272 18.1758 9.20201 18.1758 9.07C18.1758 8.93799 18.1496 8.80729 18.0989 8.68543C18.0481 8.56357 17.9737 8.45297 17.88 8.36L16.46 7L17.88 5.58L19.29 7C19.3834 7.09268 19.4942 7.16601 19.6161 7.21577C19.7379 7.26554 19.8684 7.29076 20 7.29C20.1316 7.29076 20.262 7.26554 20.3839 7.21577C20.5057 7.16601 20.6165 7.09268 20.71 7C20.8115 6.90636 20.8925 6.79271 20.9479 6.66621C21.0033 6.53971 21.0319 6.4031 21.0319 6.265C21.0319 6.1269 21.0033 5.9903 20.9479 5.8638C20.8925 5.7373 20.8115 5.62364 20.71 5.53ZM5.99997 19C5.40663 19 4.82661 18.8241 4.33326 18.4944C3.83992 18.1648 3.4554 17.6962 3.22834 17.1481C3.00127 16.5999 2.94186 15.9967 3.05762 15.4147C3.17337 14.8328 3.4591 14.2982 3.87865 13.8787C4.29821 13.4591 4.83276 13.1734 5.4147 13.0576C5.99665 12.9419 6.59985 13.0013 7.14802 13.2284C7.6962 13.4554 8.16474 13.8399 8.49438 14.3333C8.82403 14.8266 8.99997 15.4067 8.99997 16C8.99997 16.7957 8.6839 17.5587 8.12129 18.1213C7.55869 18.6839 6.79562 19 5.99997 19Z" fill="#555555"/>
</svg>
