<svg width="43" height="43" viewBox="0 0 43 43" fill="none" xmlns="http://www.w3.org/2000/svg">
<path d="M29 11H15C14.2043 11 13.4413 11.3161 12.8787 11.8787C12.3161 12.4413 12 13.2043 12 14V15.17C11.9999 15.5829 12.085 15.9915 12.25 16.37V16.43C12.3913 16.751 12.5914 17.0427 12.84 17.29L19 23.41V30C18.9997 30.1699 19.0426 30.3372 19.1249 30.4859C19.2071 30.6346 19.3259 30.7599 19.47 30.85C19.6291 30.9486 19.8128 31.0006 20 31C20.1565 30.9991 20.3107 30.9614 20.45 30.89L24.45 28.89C24.6149 28.8069 24.7536 28.6798 24.8507 28.5227C24.9478 28.3656 24.9994 28.1847 25 28V23.41L31.12 17.29C31.3686 17.0427 31.5687 16.751 31.71 16.43V16.37C31.8888 15.9944 31.9876 15.5858 32 15.17V14C32 13.2043 31.6839 12.4413 31.1213 11.8787C30.5587 11.3161 29.7956 11 29 11ZM23.29 22.29C23.1973 22.3834 23.124 22.4943 23.0742 22.6161C23.0245 22.7379 22.9992 22.8684 23 23V27.38L21 28.38V23C21.0008 22.8684 20.9755 22.7379 20.9258 22.6161C20.876 22.4943 20.8027 22.3834 20.71 22.29L15.41 17H28.59L23.29 22.29ZM30 15H14V14C14 13.7348 14.1054 13.4804 14.2929 13.2929C14.4804 13.1054 14.7348 13 15 13H29C29.2652 13 29.5196 13.1054 29.7071 13.2929C29.8946 13.4804 30 13.7348 30 14V15Z" fill="black"/>
</svg>
