<svg width="20" height="20" viewBox="0 0 20 20" fill="none" xmlns="http://www.w3.org/2000/svg">
<path d="M12.088 11.784C11.5532 12.2152 10.8869 12.4503 10.2 12.4503C9.513 12.4503 8.84674 12.2152 8.31195 11.784C8.14858 11.6482 7.93796 11.5829 7.72642 11.6024C7.51487 11.6219 7.31975 11.7246 7.18396 11.888C7.04816 12.0514 6.98283 12.262 7.00234 12.4735C7.02184 12.6851 7.12458 12.8802 7.28795 13.016C8.10502 13.6981 9.1356 14.0717 10.2 14.0717C11.2643 14.0717 12.2949 13.6981 13.112 13.016C13.2753 12.8802 13.3781 12.6851 13.3976 12.4735C13.4171 12.262 13.3517 12.0514 13.216 11.888C13.1487 11.8071 13.0662 11.7402 12.9731 11.6912C12.8801 11.6422 12.7782 11.612 12.6735 11.6024C12.462 11.5829 12.2513 11.6482 12.088 11.784ZM7.96795 8.832C8.11784 8.981 8.32061 9.06463 8.53195 9.06463C8.7433 9.06463 8.94606 8.981 9.09595 8.832C9.24496 8.68211 9.32859 8.47935 9.32859 8.268C9.32859 8.05665 9.24496 7.85389 9.09595 7.704C8.63813 7.26959 8.03107 7.02742 7.39995 7.02742C6.76884 7.02742 6.16178 7.26959 5.70395 7.704C5.62021 7.77572 5.55219 7.86397 5.50417 7.96322C5.45616 8.06248 5.42917 8.17058 5.42492 8.28076C5.42066 8.39093 5.43922 8.5008 5.47944 8.60346C5.51966 8.70612 5.58067 8.79936 5.65863 8.87732C5.7366 8.95528 5.82984 9.01629 5.9325 9.05651C6.03516 9.09673 6.14502 9.1153 6.2552 9.11104C6.36537 9.10678 6.47348 9.0798 6.57273 9.03178C6.67198 8.98376 6.76024 8.91575 6.83195 8.832C6.90632 8.75702 6.99481 8.6975 7.09229 8.65689C7.18978 8.61627 7.29435 8.59536 7.39995 8.59536C7.50556 8.59536 7.61013 8.61627 7.70762 8.65689C7.8051 8.6975 7.89358 8.75702 7.96795 8.832ZM14.696 7.704C14.2381 7.26959 13.6311 7.02742 13 7.02742C12.3688 7.02742 11.7618 7.26959 11.304 7.704C11.1729 7.85704 11.1044 8.0539 11.1122 8.25524C11.12 8.45658 11.2034 8.64758 11.3459 8.79005C11.4884 8.93253 11.6794 9.01599 11.8807 9.02377C12.0821 9.03155 12.2789 8.96306 12.432 8.832C12.5063 8.75702 12.5948 8.6975 12.6923 8.65689C12.7898 8.61627 12.8943 8.59536 13 8.59536C13.1056 8.59536 13.2101 8.61627 13.3076 8.65689C13.4051 8.6975 13.4936 8.75702 13.568 8.832C13.7178 8.981 13.9206 9.06463 14.132 9.06463C14.3433 9.06463 14.5461 8.981 14.696 8.832C14.845 8.68211 14.9286 8.47935 14.9286 8.268C14.9286 8.05665 14.845 7.85389 14.696 7.704ZM10.2 2C8.6177 2 7.07099 2.46919 5.75539 3.34824C4.4398 4.22729 3.41442 5.47672 2.80892 6.93853C2.20342 8.40034 2.04499 10.0089 2.35367 11.5607C2.66235 13.1126 3.42428 14.538 4.5431 15.6569C5.66192 16.7757 7.08738 17.5376 8.63923 17.8463C10.1911 18.155 11.7996 17.9965 13.2614 17.391C14.7232 16.7855 15.9727 15.7602 16.8517 14.4446C17.7308 13.129 18.2 11.5823 18.2 10C18.2 8.94943 17.993 7.90914 17.591 6.93853C17.189 5.96793 16.5997 5.08601 15.8568 4.34315C15.1139 3.60028 14.232 3.011 13.2614 2.60896C12.2908 2.20693 11.2505 2 10.2 2ZM10.2 16.4C8.93415 16.4 7.69678 16.0246 6.64431 15.3214C5.59183 14.6182 4.77153 13.6186 4.28713 12.4492C3.80273 11.2797 3.67598 9.9929 3.92293 8.75142C4.16987 7.50994 4.77942 6.36957 5.67447 5.47452C6.56953 4.57946 7.7099 3.96992 8.95138 3.72297C10.1929 3.47603 11.4797 3.60277 12.6491 4.08717C13.8186 4.57157 14.8181 5.39188 15.5214 6.44435C16.2246 7.49683 16.6 8.7342 16.6 10C16.6 11.6974 15.9257 13.3253 14.7254 14.5255C13.5252 15.7257 11.8973 16.4 10.2 16.4Z" fill="currentColor"/>
</svg>
