<svg width="43" height="43" viewBox="0 0 43 43" fill="none" xmlns="http://www.w3.org/2000/svg">
<path d="M24.36 23.23C23.6915 23.769 22.8587 24.0629 22 24.0629C21.1413 24.0629 20.3085 23.769 19.64 23.23C19.4358 23.0603 19.1725 22.9786 18.9081 23.003C18.6437 23.0274 18.3997 23.1558 18.23 23.36C18.0603 23.5642 17.9786 23.8275 18.003 24.0919C18.0274 24.3563 18.1558 24.6003 18.36 24.77C19.3813 25.6226 20.6696 26.0896 22 26.0896C23.3304 26.0896 24.6187 25.6226 25.64 24.77C25.8442 24.6003 25.9726 24.3563 25.997 24.0919C26.0214 23.8275 25.9397 23.5642 25.77 23.36C25.686 23.2589 25.5828 23.1753 25.4665 23.1141C25.3501 23.0528 25.2229 23.0151 25.0919 23.003C24.8275 22.9786 24.5642 23.0603 24.36 23.23ZM19.21 19.54C19.3974 19.7263 19.6508 19.8308 19.915 19.8308C20.1792 19.8308 20.4326 19.7263 20.62 19.54C20.8063 19.3526 20.9108 19.0992 20.9108 18.835C20.9108 18.5708 20.8063 18.3174 20.62 18.13C20.0477 17.587 19.2889 17.2843 18.5 17.2843C17.7111 17.2843 16.9523 17.587 16.38 18.13C16.2753 18.2196 16.1903 18.33 16.1303 18.454C16.0703 18.5781 16.0365 18.7132 16.0312 18.8509C16.0259 18.9887 16.0491 19.126 16.0994 19.2543C16.1496 19.3826 16.2259 19.4992 16.3234 19.5967C16.4208 19.6941 16.5374 19.7704 16.6657 19.8206C16.794 19.8709 16.9313 19.8941 17.0691 19.8888C17.2068 19.8835 17.3419 19.8497 17.466 19.7897C17.59 19.7297 17.7004 19.6447 17.79 19.54C17.883 19.4463 17.9936 19.3719 18.1154 19.3211C18.2373 19.2703 18.368 19.2442 18.5 19.2442C18.632 19.2442 18.7627 19.2703 18.8846 19.3211C19.0064 19.3719 19.117 19.4463 19.21 19.54ZM27.62 18.13C27.0477 17.587 26.2889 17.2843 25.5 17.2843C24.7111 17.2843 23.9523 17.587 23.38 18.13C23.2162 18.3213 23.1306 18.5674 23.1403 18.8191C23.15 19.0707 23.2543 19.3095 23.4324 19.4876C23.6105 19.6657 23.8493 19.77 24.101 19.7797C24.3526 19.7894 24.5987 19.7038 24.79 19.54C24.883 19.4463 24.9936 19.3719 25.1154 19.3211C25.2373 19.2703 25.368 19.2442 25.5 19.2442C25.632 19.2442 25.7627 19.2703 25.8846 19.3211C26.0064 19.3719 26.117 19.4463 26.21 19.54C26.3974 19.7263 26.6508 19.8308 26.915 19.8308C27.1792 19.8308 27.4326 19.7263 27.62 19.54C27.8063 19.3526 27.9108 19.0992 27.9108 18.835C27.9108 18.5708 27.8063 18.3174 27.62 18.13ZM22 11C20.0222 11 18.0888 11.5865 16.4443 12.6853C14.7998 13.7841 13.5181 15.3459 12.7612 17.1732C12.0043 19.0004 11.8063 21.0111 12.1922 22.9509C12.578 24.8907 13.5304 26.6725 14.9289 28.0711C16.3275 29.4696 18.1093 30.422 20.0491 30.8079C21.9889 31.1937 23.9996 30.9957 25.8268 30.2388C27.6541 29.4819 29.2159 28.2002 30.3147 26.5557C31.4135 24.9112 32 22.9778 32 21C32 19.6868 31.7413 18.3864 31.2388 17.1732C30.7363 15.9599 29.9997 14.8575 29.0711 13.9289C28.1425 13.0003 27.0401 12.2638 25.8268 11.7612C24.6136 11.2587 23.3132 11 22 11ZM22 29C20.4178 29 18.871 28.5308 17.5554 27.6518C16.2398 26.7727 15.2145 25.5233 14.609 24.0615C14.0035 22.5997 13.845 20.9911 14.1537 19.4393C14.4624 17.8874 15.2243 16.462 16.3432 15.3431C17.462 14.2243 18.8874 13.4624 20.4393 13.1537C21.9911 12.845 23.5997 13.0035 25.0615 13.609C26.5233 14.2145 27.7727 15.2398 28.6518 16.5554C29.5308 17.871 30 19.4177 30 21C30 23.1217 29.1572 25.1566 27.6569 26.6569C26.1566 28.1571 24.1217 29 22 29Z" fill="black"/>
</svg>
