<svg width="43" height="43" viewBox="0 0 43 43" fill="none" xmlns="http://www.w3.org/2000/svg">
<path d="M31 21C30.7348 21 30.4804 21.1054 30.2929 21.2929C30.1054 21.4804 30 21.7348 30 22L30 28C30 28.2652 29.8946 28.5196 29.7071 28.7071C29.5196 28.8946 29.2652 29 29 29L15 29C14.7348 29 14.4804 28.8946 14.2929 28.7071C14.1054 28.5196 14 28.2652 14 28L14 14C14 13.7348 14.1054 13.4804 14.2929 13.2929C14.4804 13.1054 14.7348 13 15 13L21 13C21.2652 13 21.5196 12.8946 21.7071 12.7071C21.8946 12.5196 22 12.2652 22 12C22 11.7348 21.8946 11.4804 21.7071 11.2929C21.5196 11.1054 21.2652 11 21 11L15 11C14.2044 11 13.4413 11.3161 12.8787 11.8787C12.3161 12.4413 12 13.2044 12 14L12 28C12 28.7956 12.3161 29.5587 12.8787 30.1213C13.4413 30.6839 14.2044 31 15 31L29 31C29.7956 31 30.5587 30.6839 31.1213 30.1213C31.6839 29.5587 32 28.7956 32 28L32 22C32 21.7348 31.8946 21.4804 31.7071 21.2929C31.5196 21.1054 31.2652 21 31 21Z" fill="black"/>
<path d="M28.616 11.8838C29.1041 11.3956 29.8956 11.3956 30.3837 11.8838L31.2676 12.7677C31.7558 13.2558 31.7558 14.0473 31.2676 14.5354L24.1965 21.6065L21.5449 18.9549L28.616 11.8838Z" fill="black"/>
<path d="M24.1965 21.6065L21.6421 22.458C21.0558 22.6534 20.498 22.0956 20.6934 21.5093L21.5449 18.9549L24.1965 21.6065Z" fill="black"/>
</svg>
