<svg width="18" height="18" viewBox="0 0 18 18" fill="none" xmlns="http://www.w3.org/2000/svg">
<path d="M9 0C6.69275 0.00658097 4.47614 0.899022 2.808 2.493V0.9C2.808 0.661305 2.71318 0.432386 2.5444 0.263604C2.37561 0.0948211 2.14669 0 1.908 0C1.6693 0 1.44039 0.0948211 1.2716 0.263604C1.10282 0.432386 1.008 0.661305 1.008 0.9V4.95C1.008 5.18869 1.10282 5.41761 1.2716 5.58639C1.44039 5.75518 1.6693 5.85 1.908 5.85H5.958C6.19669 5.85 6.42561 5.75518 6.59439 5.58639C6.76318 5.41761 6.858 5.18869 6.858 4.95C6.858 4.7113 6.76318 4.48239 6.59439 4.3136C6.42561 4.14482 6.19669 4.05 5.958 4.05H3.798C4.9552 2.84072 6.49755 2.07239 8.15988 1.8771C9.8222 1.68182 11.5006 2.07178 12.9066 2.97994C14.3125 3.8881 15.3582 5.25772 15.8637 6.85331C16.3692 8.4489 16.303 10.1708 15.6766 11.7229C15.0501 13.2749 13.9024 14.5603 12.4309 15.3579C10.9594 16.1555 9.25604 16.4155 7.6136 16.0932C5.97116 15.7709 4.49232 14.8865 3.43133 13.592C2.37034 12.2975 1.79351 10.6737 1.8 9C1.8 8.7613 1.70518 8.53238 1.5364 8.3636C1.36761 8.19482 1.13869 8.1 0.9 8.1C0.661305 8.1 0.432386 8.19482 0.263604 8.3636C0.0948211 8.53238 0 8.7613 0 9C0 10.78 0.527841 12.5201 1.51677 14.0001C2.50571 15.4802 3.91131 16.6337 5.55585 17.3149C7.20038 17.9961 9.00998 18.1743 10.7558 17.8271C12.5016 17.4798 14.1053 16.6226 15.364 15.364C16.6226 14.1053 17.4798 12.5016 17.8271 10.7558C18.1743 9.00998 17.9961 7.20038 17.3149 5.55585C16.6337 3.91131 15.4802 2.50571 14.0001 1.51677C12.5201 0.527841 10.78 0 9 0ZM9 5.4C8.7613 5.4 8.53238 5.49482 8.3636 5.6636C8.19482 5.83239 8.1 6.0613 8.1 6.3V9C8.1 9.23869 8.19482 9.46761 8.3636 9.63639C8.53238 9.80518 8.7613 9.9 9 9.9H10.8C11.0387 9.9 11.2676 9.80518 11.4364 9.63639C11.6052 9.46761 11.7 9.23869 11.7 9C11.7 8.7613 11.6052 8.53238 11.4364 8.3636C11.2676 8.19482 11.0387 8.1 10.8 8.1H9.9V6.3C9.9 6.0613 9.80518 5.83239 9.63639 5.6636C9.46761 5.49482 9.23869 5.4 9 5.4Z" fill="currentColor"/>
</svg>
