<svg width="43" height="43" viewBox="0 0 43 43" fill="none" xmlns="http://www.w3.org/2000/svg">
<path d="M29.9801 11.8962C29.8465 11.7881 29.6903 11.7113 29.5231 11.6715C29.3559 11.6317 29.1819 11.6298 29.0138 11.6661C27.7846 11.9237 26.5156 11.927 25.2851 11.6758C24.0545 11.4245 22.8884 10.924 21.8586 10.2052C21.666 10.0716 21.4373 10 21.2029 10C20.9685 10 20.7397 10.0716 20.5472 10.2052C19.5173 10.924 18.3512 11.4245 17.1207 11.6758C15.8901 11.927 14.6212 11.9237 13.3919 11.6661C13.2239 11.6298 13.0499 11.6317 12.8827 11.6715C12.7155 11.7113 12.5593 11.7881 12.4256 11.8962C12.2922 12.0045 12.1847 12.1413 12.111 12.2965C12.0374 12.4518 11.9994 12.6216 12 12.7935V21.3637C11.999 23.013 12.392 24.6387 13.1464 26.1054C13.9007 27.5721 14.9946 28.8374 16.3369 29.7958L20.5357 32.7867C20.7305 32.9255 20.9637 33 21.2029 33C21.4421 33 21.6753 32.9255 21.8701 32.7867L26.0689 29.7958C27.4112 28.8374 28.505 27.5721 29.2594 26.1054C30.0138 24.6387 30.4068 23.013 30.4058 21.3637V12.7935C30.4064 12.6216 30.3684 12.4518 30.2948 12.2965C30.2211 12.1413 30.1136 12.0045 29.9801 11.8962ZM28.105 21.3637C28.1059 22.646 27.8005 23.9101 27.2143 25.0506C26.628 26.1911 25.7778 27.1751 24.7345 27.9207L21.2029 30.44L17.6713 27.9207C16.6279 27.1751 15.7778 26.1911 15.1915 25.0506C14.6052 23.9101 14.2998 22.646 14.3007 21.3637V14.1164C16.7124 14.3228 19.1277 13.7633 21.2029 12.5174C23.2781 13.7633 25.6934 14.3228 28.105 14.1164V21.3637ZM22.9744 18.7293L19.88 21.8353L18.8562 20.8C18.6395 20.5834 18.3457 20.4617 18.0394 20.4617C17.7331 20.4617 17.4393 20.5834 17.2226 20.8C17.006 21.0166 16.8843 21.3104 16.8843 21.6167C16.8843 21.9231 17.006 22.2169 17.2226 22.4335L19.0632 24.2741C19.1702 24.3819 19.2974 24.4675 19.4376 24.5259C19.5778 24.5843 19.7281 24.6144 19.88 24.6144C20.0318 24.6144 20.1822 24.5843 20.3224 24.5259C20.4626 24.4675 20.5898 24.3819 20.6967 24.2741L24.654 20.3513C24.8706 20.1347 24.9923 19.8409 24.9923 19.5346C24.9923 19.2282 24.8706 18.9345 24.654 18.7178C24.4373 18.5012 24.1436 18.3795 23.8372 18.3795C23.5309 18.3795 23.2371 18.5012 23.0205 18.7178L22.9744 18.7293Z" fill="currentColor"/>
</svg>
