<svg width="15" height="21" viewBox="0 0 15 21" fill="none" xmlns="http://www.w3.org/2000/svg">
<path fill-rule="evenodd" clip-rule="evenodd" d="M0 3C0 1.34315 1.34315 0 3 0H12C13.6569 0 15 1.34315 15 3V18C15 19.6569 13.6569 21 12 21H3C1.34315 21 0 19.6569 0 18V3ZM3 2C2.44772 2 2 2.44772 2 3V18C2 18.5523 2.44772 19 3 19H12C12.5523 19 13 18.5523 13 18V3C13 2.44772 12.5523 2 12 2H3Z" fill="currentColor"/>
<path d="M9 16.5C9 17.3284 8.32843 18 7.5 18C6.67157 18 6 17.3284 6 16.5C6 15.6716 6.67157 15 7.5 15C8.32843 15 9 15.6716 9 16.5Z" fill="currentColor"/>
</svg>
