<svg width="19" height="19" viewBox="0 0 19 19" fill="none" xmlns="http://www.w3.org/2000/svg">
<path d="M17.4999 1.5C16.5398 0.540051 15.2377 0.000774384 13.8799 0.000774384C12.5222 0.000774384 11.2201 0.540051 10.2599 1.5L2.49994 9.26C2.01308 9.73283 1.62509 10.2977 1.35852 10.9218C1.09195 11.546 0.952118 12.2169 0.947158 12.8955C0.942198 13.5741 1.07221 14.247 1.32963 14.875C1.58705 15.5029 1.96675 16.0734 2.44663 16.5533C2.92652 17.0332 3.49703 17.4129 4.12498 17.6703C4.75293 17.9277 5.42579 18.0577 6.10444 18.0528C6.78309 18.0478 7.45398 17.908 8.0781 17.6414C8.70222 17.3748 9.26711 16.9869 9.73994 16.5L17.4999 8.74C18.4599 7.77985 18.9992 6.47772 18.9992 5.12C18.9992 3.76228 18.4599 2.46016 17.4999 1.5ZM8.31994 15.09C7.72397 15.6533 6.935 15.9672 6.11494 15.9672C5.29487 15.9672 4.50591 15.6533 3.90994 15.09C3.32797 14.5037 3.00139 13.7111 3.00139 12.885C3.00139 12.0589 3.32797 11.2663 3.90994 10.68L7.08994 7.5L11.4999 11.91L8.31994 15.09Z" fill="currentColor"/>
</svg>
