<svg width="16" height="16" viewBox="0 0 16 16" fill="none" xmlns="http://www.w3.org/2000/svg">
<circle cx="8" cy="8" r="8" fill="#D5D5D5"/>
<path d="M5.19526 10.8521C4.93491 10.5918 4.93491 10.1697 5.19526 9.90931L7.11438 7.99019L5.26227 6.13807C5.00192 5.87772 5.00192 5.45561 5.26227 5.19526C5.52262 4.93491 5.94473 4.93491 6.20507 5.19526L8.05719 7.04738L9.90931 5.19526C10.1697 4.93491 10.5918 4.93491 10.8521 5.19526C11.1125 5.45561 11.1125 5.87772 10.8521 6.13807L9 7.99019L10.9191 9.90931C11.1795 10.1697 11.1795 10.5918 10.9191 10.8521C10.6588 11.1125 10.2367 11.1125 9.97631 10.8521L8.05719 8.933L6.13807 10.8521C5.87772 11.1125 5.45561 11.1125 5.19526 10.8521Z" fill="white"/>
</svg>
