<svg width="18" height="18" viewBox="0 0 18 18" fill="none" xmlns="http://www.w3.org/2000/svg">
<path d="M9.01267 0C7.83243 0 6.66375 0.232464 5.57336 0.68412C4.48297 1.13578 3.49221 1.79778 2.65766 2.63233C0.972209 4.31778 0.025332 6.60374 0.025332 8.98733C0.0174752 11.0626 0.736043 13.0753 2.05647 14.6763L0.259003 16.4738C0.134297 16.6002 0.049819 16.7607 0.0162296 16.935C-0.0173597 17.1093 0.00144418 17.2897 0.0702687 17.4534C0.144916 17.6151 0.265927 17.751 0.417941 17.8438C0.569955 17.9366 0.746117 17.9822 0.924065 17.9747H9.01267C11.3963 17.9747 13.6822 17.0278 15.3677 15.3423C17.0531 13.6569 18 11.3709 18 8.98733C18 6.60374 17.0531 4.31778 15.3677 2.63233C13.6822 0.946877 11.3963 0 9.01267 0ZM9.01267 16.1772H3.09001L3.92583 15.3414C4.09323 15.173 4.18718 14.9452 4.18718 14.7078C4.18718 14.4703 4.09323 14.2426 3.92583 14.0742C2.74902 12.8987 2.01618 11.3515 1.85218 9.69625C1.68818 8.04101 2.10315 6.38011 3.02641 4.99653C3.94966 3.61294 5.32408 2.59227 6.91548 2.1084C8.50689 1.62454 10.2168 1.70742 11.754 2.34292C13.2912 2.97842 14.5604 4.12723 15.3455 5.59362C16.1307 7.06001 16.3831 8.75325 16.0597 10.3849C15.7364 12.0165 14.8574 13.4855 13.5724 14.5417C12.2874 15.5979 10.676 16.1759 9.01267 16.1772Z" fill="black"/>
</svg>
