<svg width="16" height="16" viewBox="0 0 16 16" fill="none" xmlns="http://www.w3.org/2000/svg">
<path d="M12.3277 8.35101L8.55288 12.1319C8.05802 12.5717 7.41382 12.8058 6.75206 12.7863C6.0903 12.7668 5.46098 12.4952 4.99285 12.0271C4.52471 11.559 4.25312 10.9296 4.23364 10.2679C4.21416 9.60613 4.44826 8.96193 4.88805 8.46706L9.7745 3.58061C10.0662 3.30349 10.4532 3.14898 10.8556 3.14898C11.258 3.14898 11.645 3.30349 11.9367 3.58061C12.221 3.86866 12.3804 4.25706 12.3804 4.66174C12.3804 5.06642 12.221 5.45482 11.9367 5.74287L7.72219 9.95132C7.68048 9.99624 7.63033 10.0325 7.5746 10.058C7.51888 10.0836 7.45867 10.0979 7.39741 10.1002C7.33616 10.1024 7.27505 10.0926 7.21759 10.0713C7.16013 10.0499 7.10744 10.0175 7.06252 9.97575C7.0176 9.93404 6.98134 9.88389 6.9558 9.82817C6.93026 9.77244 6.91595 9.71223 6.91368 9.65098C6.91141 9.58972 6.92123 9.52862 6.94257 9.47116C6.96392 9.4137 6.99638 9.361 7.03809 9.31608L10.1715 6.18876C10.2865 6.07374 10.3512 5.91774 10.3512 5.75508C10.3512 5.59242 10.2865 5.43643 10.1715 5.32141C10.0565 5.20639 9.90051 5.14178 9.73785 5.14178C9.57519 5.14178 9.41919 5.20639 9.30418 5.32141L6.17074 8.46095C6.01395 8.61653 5.88951 8.8016 5.80458 9.0055C5.71966 9.2094 5.67594 9.42809 5.67594 9.64897C5.67594 9.86985 5.71966 10.0885 5.80458 10.2924C5.88951 10.4963 6.01395 10.6814 6.17074 10.837C6.49103 11.1421 6.91642 11.3123 7.35876 11.3123C7.8011 11.3123 8.22649 11.1421 8.54678 10.837L12.7552 6.62243C13.2407 6.10138 13.5051 5.41222 13.4925 4.70014C13.4799 3.98806 13.1915 3.30865 12.6879 2.80505C12.1843 2.30146 11.5049 2.01299 10.7928 2.00043C10.0807 1.98786 9.39155 2.25218 8.8705 2.7377L3.98406 7.62415C3.32512 8.35396 2.97319 9.30988 3.00159 10.2927C3.03 11.2756 3.43655 12.2096 4.13654 12.9001C4.83652 13.5907 5.77596 13.9845 6.75912 13.9996C7.74228 14.0146 8.69333 13.6497 9.41412 12.9809L13.195 9.20614C13.252 9.14919 13.2971 9.08158 13.328 9.00717C13.3588 8.93276 13.3746 8.853 13.3746 8.77246C13.3746 8.69192 13.3588 8.61217 13.328 8.53776C13.2971 8.46335 13.252 8.39574 13.195 8.33879C13.1381 8.28184 13.0704 8.23667 12.996 8.20584C12.9216 8.17502 12.8419 8.15916 12.7613 8.15916C12.6808 8.15916 12.601 8.17502 12.5266 8.20584C12.4522 8.23667 12.3846 8.28184 12.3277 8.33879V8.35101Z" fill="currentColor"/>
</svg>
