<svg width="20" height="18" viewBox="0 0 20 18" fill="none" xmlns="http://www.w3.org/2000/svg">
<path fill-rule="evenodd" clip-rule="evenodd" d="M14.25 3H18C18.3978 3 18.7794 3.15804 19.0607 3.43934C19.342 3.72064 19.5 4.10218 19.5 4.5V6.08423L11.0385 11.4688C10.2523 11.9691 9.24764 11.9691 8.46148 11.4688L0 6.08425V4.5C0 4.10218 0.158035 3.72064 0.43934 3.43934C0.720644 3.15804 1.10218 3 1.5 3H5.25V2.25C5.25247 1.65402 5.49031 1.08316 5.91174 0.661736C6.33316 0.240313 6.90402 0.00246785 7.5 0H12C12.596 0.00246785 13.1668 0.240313 13.5883 0.661736C14.0097 1.08316 14.2475 1.65402 14.25 2.25V3ZM6.96967 1.71967C6.82902 1.86032 6.75 2.05109 6.75 2.25V3H12.75V2.25C12.75 2.05109 12.671 1.86032 12.5303 1.71967C12.3897 1.57902 12.1989 1.5 12 1.5H7.5C7.30109 1.5 7.11032 1.57902 6.96967 1.71967Z" fill="#13192E"/>
<path d="M0 7.50662V16.5C0 16.8978 0.158035 17.2794 0.43934 17.5607C0.720644 17.842 1.10218 18 1.5 18H18C18.3978 18 18.7794 17.842 19.0607 17.5607C19.342 17.2794 19.5 16.8978 19.5 16.5V7.5066L11.6827 12.4812C10.5035 13.2316 8.99647 13.2316 7.81723 12.4812L0 7.50662Z" fill="#13192E"/>
</svg>
