<svg width="16" height="8" viewBox="0 0 16 8" fill="none" xmlns="http://www.w3.org/2000/svg">
<path d="M0.0027914 5.22194C0.0183029 5.08319 0.0990772 4.96177 0.218713 4.89705L0.234719 4.88928C0.271601 4.87331 1.14354 4.49813 1.67786 4.42052C1.77918 4.40575 1.88579 4.42632 1.98347 4.47696L3.77794 5.13493C4.12802 4.94862 5.45532 4.24283 7.01885 3.41734L3.32274 1.4021C3.21408 1.34284 3.15079 1.24123 3.15368 1.13032C3.15649 1.01949 3.2248 0.921553 3.33644 0.868359L4.58231 0.273742C4.70186 0.216706 4.89188 0.194164 5.02331 0.223195L10.7013 1.48586C11.8696 0.879032 12.8339 0.386962 13.236 0.203044C13.5311 0.0680515 13.8899 0 14.3024 0C14.983 0 15.8157 0.202446 15.9695 0.501206C15.9756 0.512648 16.3818 1.75994 14.0355 3.15581L5.28527 7.77023C5.27653 7.7745 5.06787 7.8826 4.8649 7.91948C4.52142 7.9819 4.14947 8 3.76688 8H3.65599C3.60294 8 3.55079 8 3.49956 8H3.46498V7.98736C3.21746 7.98736 3.03561 7.87653 3.00641 7.85562L0.144457 5.59814L0.137691 5.58969C0.0357933 5.4985 -0.0125561 5.3612 0.0027914 5.22194ZM3.46523 7.75981H3.46515V7.76118L3.46523 7.75981Z" fill="black"/>
</svg>
