<svg width="18" height="18" viewBox="0 0 18 18" fill="none" xmlns="http://www.w3.org/2000/svg">
<path d="M4.32378 11.7C4.26474 11.5976 4.18608 11.5078 4.09231 11.4358C3.99855 11.3638 3.8915 11.3109 3.77731 11.2803C3.66311 11.2497 3.544 11.2419 3.42679 11.2574C3.30958 11.2728 3.19656 11.3112 3.0942 11.3704L1.53502 12.2704C1.32839 12.3898 1.17764 12.5864 1.11591 12.8169C1.05418 13.0475 1.08652 13.2931 1.20583 13.4998C1.32514 13.7065 1.52164 13.8573 1.75214 13.9192C1.98264 13.981 2.22827 13.9488 2.43502 13.8296L3.9942 12.9296C4.20085 12.8101 4.35164 12.6135 4.41344 12.383C4.47524 12.1524 4.44299 11.9068 4.32378 11.7ZM1.53501 5.72959L3.09419 6.62959C3.19657 6.68876 3.30961 6.72717 3.42684 6.74264C3.54407 6.75811 3.6632 6.75033 3.77742 6.71974C3.89164 6.68915 3.99872 6.63636 4.09254 6.56438C4.18635 6.4924 4.26506 6.40264 4.32418 6.30023C4.38329 6.19782 4.42165 6.08476 4.43706 5.96753C4.45247 5.85029 4.44463 5.73116 4.41398 5.61695C4.38334 5.50275 4.33049 5.39569 4.25846 5.30192C4.18643 5.20814 4.09663 5.12947 3.99419 5.07041L2.43501 4.17041C2.22826 4.05121 1.98263 4.01899 1.75213 4.08084C1.52163 4.14269 1.32513 4.29354 1.20582 4.50023C1.08651 4.70692 1.05417 4.95253 1.1159 5.18306C1.17763 5.41359 1.32838 5.61018 1.53501 5.72959ZM3.6 9C3.6 8.7613 3.50518 8.53239 3.3364 8.3636C3.16761 8.19482 2.93869 8.1 2.7 8.1H0.9C0.661305 8.1 0.432387 8.19482 0.263604 8.3636C0.0948211 8.53239 0 8.7613 0 9C0 9.23869 0.0948211 9.46761 0.263604 9.6364C0.432387 9.80518 0.661305 9.9 0.9 9.9H2.7C2.93869 9.9 3.16761 9.80518 3.3364 9.6364C3.50518 9.46761 3.6 9.23869 3.6 9ZM13.6762 6.3C13.7956 6.50668 13.9922 6.65749 14.2228 6.71929C14.4534 6.78109 14.699 6.74883 14.9058 6.62959L16.465 5.72959C16.5674 5.67053 16.6572 5.59186 16.7293 5.49808C16.8013 5.4043 16.8541 5.29725 16.8848 5.18305C16.9154 5.06884 16.9233 4.94971 16.9079 4.83247C16.8924 4.71523 16.8541 4.60218 16.795 4.49977C16.7359 4.39736 16.6571 4.3076 16.5633 4.23562C16.4695 4.16364 16.3624 4.11085 16.2482 4.08026C16.134 4.04967 16.0149 4.04189 15.8976 4.05736C15.7804 4.07283 15.6674 4.11124 15.565 4.17041L14.0058 5.07041C13.7992 5.18986 13.6484 5.38645 13.5866 5.617C13.5248 5.84755 13.557 6.09321 13.6762 6.3ZM11.7 4.32378C11.9068 4.44302 12.1524 4.47529 12.383 4.41349C12.6136 4.35169 12.8102 4.20088 12.9296 3.9942L13.8296 2.43502C13.8888 2.33264 13.9272 2.21961 13.9426 2.10238C13.9581 1.98514 13.9503 1.86601 13.9197 1.75179C13.8892 1.63757 13.8364 1.53049 13.7644 1.43668C13.6924 1.34286 13.6026 1.26415 13.5002 1.20503C13.3978 1.14592 13.2848 1.10756 13.1675 1.09215C13.0503 1.07675 12.9312 1.08459 12.817 1.11523C12.7027 1.14588 12.5957 1.19872 12.5019 1.27075C12.4081 1.34278 12.3295 1.43258 12.2704 1.53502L11.3704 3.0942C11.2512 3.30099 11.219 3.54664 11.2808 3.77719C11.3426 4.00774 11.4933 4.20434 11.7 4.32378ZM16.465 12.2704L14.9058 11.3704C14.8034 11.3112 14.6904 11.2728 14.5732 11.2574C14.4559 11.2419 14.3368 11.2497 14.2226 11.2803C14.1084 11.3108 14.0013 11.3636 13.9075 11.4356C13.8136 11.5076 13.7349 11.5974 13.6758 11.6998C13.6167 11.8022 13.5783 11.9152 13.5629 12.0325C13.5475 12.1497 13.5554 12.2688 13.586 12.383C13.6167 12.4973 13.6695 12.6043 13.7415 12.6981C13.8136 12.7919 13.9034 12.8705 14.0058 12.9296L15.565 13.8296C15.7717 13.9488 16.0174 13.981 16.2479 13.9192C16.4784 13.8573 16.6749 13.7065 16.7942 13.4998C16.9135 13.2931 16.9458 13.0475 16.8841 12.8169C16.8224 12.5864 16.6716 12.3898 16.465 12.2704ZM12.9296 14.0058C12.8705 13.9034 12.7919 13.8136 12.6981 13.7415C12.6043 13.6695 12.4973 13.6167 12.383 13.586C12.2688 13.5554 12.1497 13.5475 12.0325 13.5629C11.9152 13.5783 11.8022 13.6167 11.6998 13.6758C11.5974 13.7349 11.5076 13.8136 11.4356 13.9075C11.3636 14.0013 11.3108 14.1083 11.2803 14.2226C11.2497 14.3368 11.2419 14.4559 11.2574 14.5732C11.2728 14.6904 11.3112 14.8034 11.3704 14.9058L12.2704 16.465C12.3295 16.5674 12.4081 16.6572 12.5019 16.7292C12.5957 16.8013 12.7027 16.8541 12.817 16.8848C12.9312 16.9154 13.0503 16.9233 13.1675 16.9078C13.2848 16.8924 13.3978 16.8541 13.5002 16.795C13.6026 16.7359 13.6924 16.6571 13.7644 16.5633C13.8364 16.4695 13.8892 16.3624 13.9197 16.2482C13.9503 16.134 13.9581 16.0149 13.9426 15.8976C13.9272 15.7804 13.8888 15.6674 13.8296 15.565L12.9296 14.0058ZM17.1 8.1H15.3C15.0613 8.1 14.8324 8.19482 14.6636 8.3636C14.4948 8.53239 14.4 8.7613 14.4 9C14.4 9.23869 14.4948 9.46761 14.6636 9.6364C14.8324 9.80518 15.0613 9.9 15.3 9.9H17.1C17.3387 9.9 17.5676 9.80518 17.7364 9.6364C17.9052 9.46761 18 9.23869 18 9C18 8.7613 17.9052 8.53239 17.7364 8.3636C17.5676 8.19482 17.3387 8.1 17.1 8.1ZM9 14.4C8.7613 14.4 8.53239 14.4948 8.3636 14.6636C8.19482 14.8324 8.1 15.0613 8.1 15.3V17.1C8.1 17.3387 8.19482 17.5676 8.3636 17.7364C8.53239 17.9052 8.7613 18 9 18C9.23869 18 9.46761 17.9052 9.6364 17.7364C9.80518 17.5676 9.9 17.3387 9.9 17.1V15.3C9.9 15.0613 9.80518 14.8324 9.6364 14.6636C9.46761 14.4948 9.23869 14.4 9 14.4ZM6.3 13.6762C6.19764 13.6171 6.08462 13.5786 5.96741 13.5632C5.85019 13.5477 5.73108 13.5555 5.61689 13.5861C5.50269 13.6167 5.39564 13.6696 5.30188 13.7416C5.20811 13.8136 5.12945 13.9034 5.07041 14.0058L4.17041 15.565C4.05121 15.7717 4.01899 16.0174 4.08084 16.2479C4.14269 16.4784 4.29354 16.6749 4.50023 16.7942C4.70692 16.9135 4.95253 16.9458 5.18306 16.8841C5.41359 16.8224 5.61018 16.6716 5.72959 16.465L6.62959 14.9058C6.7488 14.699 6.78104 14.4534 6.71925 14.2228C6.65745 13.9923 6.50666 13.7957 6.3 13.6762ZM9 0C8.7613 0 8.53239 0.0948211 8.3636 0.263604C8.19482 0.432387 8.1 0.661305 8.1 0.9V2.7C8.1 2.93869 8.19482 3.16761 8.3636 3.3364C8.53239 3.50518 8.7613 3.6 9 3.6C9.23869 3.6 9.46761 3.50518 9.6364 3.3364C9.80518 3.16761 9.9 2.93869 9.9 2.7V0.9C9.9 0.661305 9.80518 0.432387 9.6364 0.263604C9.46761 0.0948211 9.23869 0 9 0Z" fill="currentColor"/>
</svg>
