<svg width="18" height="18" viewBox="0 0 18 18" fill="none" xmlns="http://www.w3.org/2000/svg">
<path d="M16.4484 3.33277C16.3438 3.22733 16.2194 3.14363 16.0823 3.08652C15.9452 3.02941 15.7982 3 15.6497 3C15.5011 3 15.3541 3.02941 15.217 3.08652C15.0799 3.14363 14.9555 3.22733 14.8509 3.33277L6.46966 11.7253L2.94841 8.19277C2.83983 8.08788 2.71164 8.0054 2.57118 7.95005C2.43072 7.89469 2.28073 7.86755 2.12978 7.87016C1.97882 7.87277 1.82986 7.90509 1.6914 7.96527C1.55294 8.02545 1.42768 8.11231 1.32279 8.2209C1.21789 8.32948 1.13542 8.45767 1.08006 8.59813C1.02471 8.73859 0.99756 8.88858 1.00017 9.03954C1.00278 9.19049 1.0351 9.33945 1.09528 9.47791C1.15546 9.61638 1.24233 9.74163 1.35091 9.84652L5.67091 14.1665C5.7755 14.272 5.89992 14.3557 6.03701 14.4128C6.17411 14.4699 6.32115 14.4993 6.46966 14.4993C6.61818 14.4993 6.76522 14.4699 6.90231 14.4128C7.0394 14.3557 7.16383 14.272 7.26841 14.1665L16.4484 4.98652C16.5626 4.88118 16.6537 4.75332 16.7161 4.61101C16.7784 4.46869 16.8106 4.31501 16.8106 4.15965C16.8106 4.00428 16.7784 3.8506 16.7161 3.70829C16.6537 3.56598 16.5626 3.43812 16.4484 3.33277Z" fill="currentColor"/>
</svg>
