<svg width="43" height="43" viewBox="0 0 43 43" fill="none" xmlns="http://www.w3.org/2000/svg">
<path d="M28.7727 15.1818C25.3706 15.1818 21.7231 15.1818 18.3182 15.1818C16.5409 15.1818 15.1818 16.5409 15.1818 18.3182V30.8636C15.1818 32.6409 16.5409 34 18.3182 34H28.7727C30.55 34 31.9091 32.6409 31.9091 30.8636V18.3182C31.9091 16.6455 30.55 15.1818 28.7727 15.1818ZM29.8182 30.8636C29.8182 31.4909 29.4 31.9091 28.7727 31.9091H18.3182C17.6909 31.9091 17.2727 31.4909 17.2727 30.8636V18.3182C17.2727 17.6909 17.6909 17.2727 18.3182 17.2727C20.7533 17.2727 26.9932 17.2727 28.7727 17.2727C29.4 17.2727 29.8182 17.6909 29.8182 18.3182V30.8636Z" fill="currentColor"/>
<path d="M11 14.1364C11 12.3591 12.3591 11 14.1364 11H23.5456C24.123 11 24.5909 11.4681 24.5909 12.0455C24.5909 12.6228 24.1249 13.0909 23.5475 13.0909H14.1364C13.5091 13.0909 13.0909 13.5091 13.0909 14.1364V25.6364C13.0909 26.2138 12.6228 26.6818 12.0455 26.6818C11.4681 26.6818 11 26.2138 11 25.6364V14.1364Z" fill="currentColor"/>
</svg>
