<svg width="21" height="21" viewBox="0 0 21 21" fill="none" xmlns="http://www.w3.org/2000/svg">
<path fill-rule="evenodd" clip-rule="evenodd" d="M18.8565 16.2835C18.4442 16.9862 17.9383 17.6234 17.3105 18.1575C13.8341 15.4495 14.4901 15.9743 14.1715 15.6838C15.3146 14.8124 15.7456 14.0066 16.0736 12.9102C16.1392 12.6947 16.1205 12.6104 15.8487 12.6104C14.2371 12.6198 12.6254 12.6198 11.0231 12.6198C10.6858 12.6198 10.6858 12.6198 10.6858 12.2637C10.6858 11.1768 10.6952 10.0805 10.6858 8.99354C10.6858 8.7874 10.7233 8.70306 10.9575 8.70306C13.9278 8.71243 16.8982 8.71243 19.8685 8.70306C20.0278 8.70306 20.1309 8.71243 20.159 8.90921C20.515 11.5141 20.2152 13.9972 18.8565 16.2835Z" fill="#6689C9"/>
<path fill-rule="evenodd" clip-rule="evenodd" d="M17.732 17.6796C16.7201 18.7478 15.5019 19.4974 14.1152 19.9378C10.8263 20.9685 7.72476 20.6125 4.86688 18.6166C3.68625 17.7921 2.73987 16.7426 2.03711 15.4776C3.07719 14.5687 4.11727 13.6692 5.14798 12.7603C5.48531 13.5006 5.89759 14.2033 6.48791 14.7749C8.86791 17.1268 12.11 17.0237 14.4525 15.3933C14.7711 15.6463 14.0964 15.1684 17.732 17.6796Z" fill="#4DB74B"/>
<path fill-rule="evenodd" clip-rule="evenodd" d="M5.14803 12.751C4.10794 13.6599 3.06786 14.5594 2.03715 15.4683C0.481714 12.9384 0.247461 9.26528 1.54054 6.52921C5.30732 9.10598 4.73574 8.72181 4.96062 8.84362C4.59519 10.1742 4.68889 11.4672 5.14803 12.751Z" fill="#FFCD05"/>
<path fill-rule="evenodd" clip-rule="evenodd" d="M16.7951 2.93108C14.1621 5.82644 14.3682 5.78896 14.1621 5.6203C11.2105 3.21218 6.27243 4.46778 4.96061 8.85298C4.73573 8.7218 5.32605 9.11535 1.54053 6.53857C2.42132 4.25226 4.88565 1.5443 8.45566 0.766584C11.4916 0.101306 14.2745 0.672883 16.7576 2.57501C16.9075 2.69683 16.945 2.76242 16.7951 2.93108Z" fill="#E22F31"/>
</svg>
