<svg width="14" height="14" viewBox="0 0 19 19" fill="none" xmlns="http://www.w3.org/2000/svg">
<path d="M18.1563 5.08125L15.3626 7.70625L18.1938 15.4969C18.2423 15.6315 18.2513 15.7771 18.2198 15.9166C18.1882 16.0562 18.1174 16.1838 18.0157 16.2844L15.7657 18.5344C15.6869 18.6111 15.5926 18.6701 15.4891 18.7073C15.3856 18.7445 15.2753 18.7591 15.1657 18.75C15.0567 18.7378 14.9517 18.7022 14.8579 18.6455C14.764 18.5889 14.6835 18.5126 14.6219 18.4219L10.6282 12.5813L8.86569 14.2031V16.125C8.86331 16.3257 8.78256 16.5174 8.64069 16.6594L6.76569 18.5344C6.69665 18.6031 6.61475 18.6575 6.52466 18.6945C6.43457 18.7315 6.33807 18.7503 6.24068 18.75L6.07193 18.7313C5.94727 18.7031 5.83188 18.6435 5.73672 18.5582C5.64155 18.4728 5.56977 18.3646 5.52818 18.2438L4.31881 14.6719L0.746935 13.4625C0.626078 13.4209 0.517853 13.3491 0.432533 13.254C0.347213 13.1588 0.287629 13.0434 0.259435 12.9188C0.232231 12.7944 0.235954 12.6652 0.270279 12.5427C0.304604 12.4201 0.368482 12.3078 0.45631 12.2156L2.33131 10.3406C2.47419 10.2013 2.66615 10.1239 2.86569 10.125H4.80631L6.55944 8.3625L0.56881 4.37812C0.479484 4.31298 0.404335 4.23035 0.347928 4.13527C0.291522 4.04018 0.255035 3.93462 0.240685 3.825C0.230228 3.71386 0.2441 3.60178 0.281337 3.49655C0.318574 3.39131 0.378282 3.29545 0.45631 3.21562L2.70631 0.965624C2.8073 0.864521 2.93539 0.794793 3.07512 0.764851C3.21485 0.734909 3.36026 0.74603 3.49381 0.796874L11.2844 3.62812L13.7782 0.984374C13.8043 0.945687 13.8359 0.910957 13.8719 0.881249C14.4218 0.345955 15.1559 0.0417431 15.9233 0.0311906C16.6906 0.0206382 17.4328 0.304548 17.9972 0.824518C18.5616 1.34449 18.9053 2.06098 18.9576 2.82661C19.0098 3.59224 18.7667 4.34878 18.2782 4.94062C18.2451 4.99355 18.204 5.041 18.1563 5.08125Z" fill="currentColor"/>
</svg>
