<svg width="43" height="43" viewBox="0 0 43 43" fill="none" xmlns="http://www.w3.org/2000/svg">
<path d="M30.5267 16.9192L23.635 10.8775C23.0032 10.3124 22.1853 10 21.3377 10C20.4901 10 19.6723 10.3124 19.0405 10.8775L12.1487 16.9192C11.7839 17.2455 11.4928 17.6458 11.2947 18.0934C11.0966 18.541 10.9962 19.0257 11.0001 19.5151V29.5541C11.0001 30.468 11.3632 31.3445 12.0094 31.9907C12.6556 32.637 13.5321 33 14.446 33H28.2295C29.1434 33 30.0199 32.637 30.6661 31.9907C31.3123 31.3445 31.6754 30.468 31.6754 29.5541V19.5036C31.6776 19.0161 31.5764 18.5337 31.3784 18.0882C31.1804 17.6427 30.8901 17.2443 30.5267 16.9192ZM29.3781 29.5541C29.3781 29.8588 29.2571 30.1509 29.0417 30.3663C28.8263 30.5817 28.5341 30.7027 28.2295 30.7027C23.7127 30.7027 22.3692 30.7027 14.446 30.7027C14.1414 30.7027 13.8492 30.5817 13.6338 30.3663C13.4184 30.1509 13.2974 29.8588 13.2974 29.5541V19.5036C13.2976 19.3406 13.3325 19.1794 13.3998 19.0309C13.4672 18.8823 13.5654 18.7498 13.6879 18.6422L20.5796 12.6119C20.7893 12.4277 21.0587 12.3262 21.3377 12.3262C21.6167 12.3262 21.8862 12.4277 22.0958 12.6119L28.9876 18.6422C29.1101 18.7498 29.2083 18.8823 29.2756 19.0309C29.343 19.1794 29.3779 19.3406 29.3781 19.5036V29.5541Z" fill="currentColor"/>
</svg>
