<svg width="53" height="53" viewBox="0 0 53 53" fill="none" xmlns="http://www.w3.org/2000/svg">
<g opacity="0.5">
<circle cx="26.5" cy="26.5" r="26.5" fill="#FF3D30"/>
<path d="M28.41 27.0002L34.71 20.7102C34.8983 20.5219 35.0041 20.2665 35.0041 20.0002C35.0041 19.7339 34.8983 19.4785 34.71 19.2902C34.5217 19.1019 34.2663 18.9961 34 18.9961C33.7337 18.9961 33.4783 19.1019 33.29 19.2902L27 25.5902L20.71 19.2902C20.5217 19.1019 20.2663 18.9961 20 18.9961C19.7337 18.9961 19.4783 19.1019 19.29 19.2902C19.1017 19.4785 18.9959 19.7339 18.9959 20.0002C18.9959 20.2665 19.1017 20.5219 19.29 20.7102L25.59 27.0002L19.29 33.2902C19.1963 33.3831 19.1219 33.4937 19.0711 33.6156C19.0203 33.7375 18.9942 33.8682 18.9942 34.0002C18.9942 34.1322 19.0203 34.2629 19.0711 34.3848C19.1219 34.5066 19.1963 34.6172 19.29 34.7102C19.383 34.8039 19.4936 34.8783 19.6154 34.9291C19.7373 34.9798 19.868 35.006 20 35.006C20.132 35.006 20.2627 34.9798 20.3846 34.9291C20.5064 34.8783 20.617 34.8039 20.71 34.7102L27 28.4102L33.29 34.7102C33.383 34.8039 33.4936 34.8783 33.6154 34.9291C33.7373 34.9798 33.868 35.006 34 35.006C34.132 35.006 34.2627 34.9798 34.3846 34.9291C34.5064 34.8783 34.617 34.8039 34.71 34.7102C34.8037 34.6172 34.8781 34.5066 34.9289 34.3848C34.9797 34.2629 35.0058 34.1322 35.0058 34.0002C35.0058 33.8682 34.9797 33.7375 34.9289 33.6156C34.8781 33.4937 34.8037 33.3831 34.71 33.2902L28.41 27.0002Z" fill="white"/>
</g>
</svg>
