<svg width="17" height="17" viewBox="0 0 17 17" fill="none" xmlns="http://www.w3.org/2000/svg">
<path d="M9.4158 8.02753L15.7158 1.73753C15.9041 1.54923 16.0099 1.29383 16.0099 1.02753C16.0099 0.761228 15.9041 0.505833 15.7158 0.317529C15.5275 0.129225 15.2721 0.0234375 15.0058 0.0234375C14.7395 0.0234375 14.4841 0.129225 14.2958 0.317529L8.0058 6.61753L1.7158 0.317529C1.52749 0.129225 1.2721 0.0234377 1.0058 0.0234377C0.739497 0.0234377 0.484102 0.129225 0.295798 0.317529C0.107495 0.505833 0.00170684 0.761228 0.00170684 1.02753C0.00170684 1.29383 0.107495 1.54923 0.295798 1.73753L6.5958 8.02753L0.295798 14.3175C0.20207 14.4105 0.127676 14.5211 0.0769072 14.643C0.0261385 14.7648 0 14.8955 0 15.0275C0 15.1595 0.0261385 15.2902 0.0769072 15.4121C0.127676 15.534 0.20207 15.6446 0.295798 15.7375C0.388761 15.8313 0.499362 15.9057 0.621222 15.9564C0.743081 16.0072 0.873786 16.0333 1.0058 16.0333C1.13781 16.0333 1.26852 16.0072 1.39038 15.9564C1.51223 15.9057 1.62284 15.8313 1.7158 15.7375L8.0058 9.43753L14.2958 15.7375C14.3888 15.8313 14.4994 15.9057 14.6212 15.9564C14.7431 16.0072 14.8738 16.0333 15.0058 16.0333C15.1378 16.0333 15.2685 16.0072 15.3904 15.9564C15.5122 15.9057 15.6228 15.8313 15.7158 15.7375C15.8095 15.6446 15.8839 15.534 15.9347 15.4121C15.9855 15.2902 16.0116 15.1595 16.0116 15.0275C16.0116 14.8955 15.9855 14.7648 15.9347 14.643C15.8839 14.5211 15.8095 14.4105 15.7158 14.3175L9.4158 8.02753Z" fill="white"/>
</svg>
