<svg

   xmlns="http://www.w3.org/2000/svg"
   width="20"
   height="20"
   viewBox="0 0 20 20"
   fill="none"
>
  <circle
     cx="10"
     cy="10"
     r="10"
     fill="#C0C3CD"
     id="circle2" />
  <path
     d="m 6.4225814,13.535539 c -0.32543,-0.32544 -0.32543,-0.85308 0,-1.17852 l 2.39891,-2.3989001 -2.31515,-2.3151401 c -0.32544,-0.32544 -0.32544,-0.85308 0,-1.17851 0.32544,-0.32544 0.85308,-0.32544 1.17851,0 l 2.3151496,2.3151401 2.31514,-2.3151401 c 0.32544,-0.32544 0.85308,-0.32544 1.17852,0 0.32543,0.32543 0.32543,0.85307 0,1.17851 l -2.31515,2.3151401 2.3989,2.3989001 c 0.32544,0.32544 0.32544,0.85308 0,1.17852 -0.32544,0.32543 -0.85307,0.32543 -1.17851,0 l -2.3989,-2.3989 -2.3988996,2.3989 c -0.32544,0.32543 -0.85308,0.32543 -1.17852,0 z"
fill="#ffffff" />
</svg>
