<svg width="20" height="20" viewBox="0 0 20 20" fill="none" xmlns="http://www.w3.org/2000/svg">
<circle cx="10.0001" cy="10" r="8.33333" fill="currentColor"/>
<path d="M7.0784 12.971C6.8072 12.6998 6.8072 12.2601 7.0784 11.9889L9.07748 9.98978L7.14819 8.06049C6.877 7.78929 6.877 7.3496 7.14819 7.0784C7.41939 6.8072 7.85909 6.8072 8.13029 7.0784L10.0596 9.00769L11.9889 7.0784C12.2601 6.8072 12.6998 6.8072 12.971 7.0784C13.2422 7.3496 13.2422 7.78929 12.971 8.06049L11.0417 9.98978L13.0407 11.9889C13.3119 12.2601 13.3119 12.6998 13.0407 12.971C12.7696 13.2422 12.3299 13.2422 12.0587 12.971L10.0596 10.9719L8.06049 12.971C7.78929 13.2422 7.3496 13.2422 7.0784 12.971Z" fill="#FCFCFC"/>
</svg>
