<svg width="43" height="43" viewBox="0 0 43 43" fill="none" xmlns="http://www.w3.org/2000/svg">
<path d="M31.7471 22.2589C31.5628 22.0491 31.4611 21.7793 31.4611 21.5C31.4611 21.2207 31.5628 20.9509 31.7471 20.7411L33.2189 19.0853C33.3811 18.9044 33.4818 18.6768 33.5066 18.4351C33.5314 18.1934 33.479 17.9501 33.3569 17.74L31.0572 13.7616C30.9364 13.5517 30.7524 13.3854 30.5315 13.2863C30.3106 13.1872 30.064 13.1604 29.8269 13.2096L27.6652 13.6466C27.3901 13.7034 27.1038 13.6576 26.8602 13.5178C26.6166 13.378 26.4326 13.1538 26.3429 12.8877L25.6415 10.7835C25.5643 10.5551 25.4174 10.3567 25.2214 10.2164C25.0253 10.0761 24.7902 10.0009 24.5491 10.0016H19.9498C19.699 9.98848 19.4509 10.0578 19.2432 10.199C19.0356 10.3402 18.8799 10.5455 18.7999 10.7835L18.156 12.8877C18.0663 13.1538 17.8823 13.378 17.6387 13.5178C17.3951 13.6576 17.1087 13.7034 16.8337 13.6466L14.6145 13.2096C14.3897 13.1779 14.1606 13.2133 13.956 13.3115C13.7514 13.4098 13.5804 13.5663 13.4646 13.7616L11.1649 17.74C11.0398 17.9477 10.9835 18.1897 11.0042 18.4313C11.0248 18.6729 11.1213 18.9019 11.2799 19.0853L12.7402 20.7411C12.9246 20.9509 13.0262 21.2207 13.0262 21.5C13.0262 21.7793 12.9246 22.0491 12.7402 22.2589L11.2799 23.9147C11.1213 24.0981 11.0248 24.327 11.0042 24.5687C10.9835 24.8103 11.0398 25.0523 11.1649 25.26L13.4646 29.2384C13.5855 29.4483 13.7695 29.6146 13.9904 29.7137C14.2113 29.8128 14.4579 29.8396 14.695 29.7904L16.8567 29.3534C17.1317 29.2966 17.4181 29.3424 17.6617 29.4822C17.9053 29.622 18.0893 29.8462 18.179 30.1123L18.8804 32.2165C18.9604 32.4545 19.1161 32.6598 19.3237 32.801C19.5314 32.9422 19.7795 33.0115 20.0302 32.9984H24.6296C24.8707 32.9991 25.1058 32.9239 25.3018 32.7836C25.4979 32.6433 25.6448 32.4449 25.722 32.2165L26.4234 30.1123C26.5131 29.8462 26.6971 29.622 26.9407 29.4822C27.1843 29.3424 27.4706 29.2966 27.7457 29.3534L29.9074 29.7904C30.1445 29.8396 30.391 29.8128 30.612 29.7137C30.8329 29.6146 31.0169 29.4483 31.1377 29.2384L33.4374 25.26C33.5595 25.0499 33.6119 24.8066 33.5871 24.5649C33.5623 24.3232 33.4616 24.0956 33.2994 23.9147L31.7471 22.2589ZM30.0339 23.7997L30.9538 24.8345L29.482 27.3872L28.1251 27.1112C27.297 26.942 26.4355 27.0826 25.7043 27.5066C24.973 27.9305 24.4228 28.6081 24.1582 29.4109L23.7212 30.6987H20.7776L20.3637 29.3879C20.0991 28.5852 19.5489 27.9075 18.8176 27.4836C18.0863 27.0596 17.2249 26.919 16.3967 27.0882L15.0399 27.3642L13.5451 24.823L14.465 23.7882C15.0307 23.1557 15.3434 22.337 15.3434 21.4885C15.3434 20.64 15.0307 19.8213 14.465 19.1888L13.5451 18.154L15.0169 15.6243L16.3737 15.9003C17.2019 16.0695 18.0633 15.9289 18.7946 15.5049C19.5259 15.081 20.0761 14.4033 20.3407 13.6006L20.7776 12.3013H23.7212L24.1582 13.6121C24.4228 14.4148 24.973 15.0925 25.7043 15.5164C26.4355 15.9404 27.297 16.081 28.1251 15.9118L29.482 15.6358L30.9538 18.1884L30.0339 19.2233C29.4746 19.8543 29.1657 20.6683 29.1657 21.5115C29.1657 22.3547 29.4746 23.1687 30.0339 23.7997ZM22.2494 16.9006C21.3398 16.9006 20.4505 17.1704 19.6942 17.6758C18.9378 18.1811 18.3483 18.8995 18.0002 19.7399C17.6521 20.5803 17.561 21.5051 17.7384 22.3973C17.9159 23.2895 18.354 24.109 18.9972 24.7522C19.6404 25.3955 20.46 25.8335 21.3521 26.011C22.2443 26.1885 23.1691 26.0974 24.0095 25.7493C24.85 25.4012 25.5683 24.8116 26.0737 24.0553C26.5791 23.2989 26.8488 22.4097 26.8488 21.5C26.8488 20.2802 26.3642 19.1103 25.5017 18.2478C24.6391 17.3852 23.4693 16.9006 22.2494 16.9006ZM22.2494 23.7997C21.7946 23.7997 21.35 23.6648 20.9718 23.4121C20.5936 23.1594 20.2989 22.8003 20.1248 22.3801C19.9507 21.9598 19.9052 21.4974 19.9939 21.0514C20.0827 20.6053 20.3017 20.1955 20.6233 19.8739C20.9449 19.5523 21.3547 19.3332 21.8008 19.2445C22.2469 19.1558 22.7093 19.2013 23.1295 19.3754C23.5497 19.5494 23.9089 19.8442 24.1616 20.2224C24.4143 20.6005 24.5491 21.0452 24.5491 21.5C24.5491 22.1099 24.3068 22.6948 23.8756 23.1261C23.4443 23.5574 22.8594 23.7997 22.2494 23.7997Z" fill="black"/>
</svg>
