<svg width="18" height="18" viewBox="0 0 18 18" fill="none" xmlns="http://www.w3.org/2000/svg">
<path d="M5.41773 8.09964C5.23998 8.09964 5.06622 8.15242 4.91842 8.25131C4.77063 8.3502 4.65543 8.49076 4.58741 8.6552C4.51939 8.81965 4.50159 9.0006 4.53627 9.17517C4.57095 9.34975 4.65654 9.51011 4.78223 9.63597C4.90792 9.76183 5.06806 9.84754 5.2424 9.88227C5.41674 9.91699 5.59744 9.89917 5.76166 9.83106C5.92589 9.76294 6.06625 9.64759 6.165 9.49959C6.26376 9.35159 6.31647 9.1776 6.31647 8.9996C6.31647 8.76092 6.22178 8.53201 6.05323 8.36323C5.88469 8.19446 5.65609 8.09964 5.41773 8.09964ZM9.01267 8.09964C8.83491 8.09964 8.66115 8.15242 8.51336 8.25131C8.36556 8.3502 8.25037 8.49076 8.18234 8.6552C8.11432 8.81965 8.09652 9.0006 8.1312 9.17517C8.16588 9.34975 8.25148 9.51011 8.37717 9.63597C8.50286 9.76183 8.66299 9.84754 8.83733 9.88227C9.01167 9.91699 9.19238 9.89917 9.3566 9.83106C9.52082 9.76294 9.66118 9.64759 9.75994 9.49959C9.85869 9.35159 9.9114 9.1776 9.9114 8.9996C9.9114 8.76092 9.81671 8.53201 9.64817 8.36323C9.47962 8.19446 9.25102 8.09964 9.01267 8.09964ZM12.6076 8.09964C12.4298 8.09964 12.2561 8.15242 12.1083 8.25131C11.9605 8.3502 11.8453 8.49076 11.7773 8.6552C11.7093 8.81965 11.6915 9.0006 11.7261 9.17517C11.7608 9.34975 11.8464 9.51011 11.9721 9.63597C12.0978 9.76183 12.2579 9.84754 12.4323 9.88227C12.6066 9.91699 12.7873 9.89917 12.9515 9.83106C13.1158 9.76294 13.2561 9.64759 13.3549 9.49959C13.4536 9.35159 13.5063 9.1776 13.5063 8.9996C13.5063 8.76092 13.4116 8.53201 13.2431 8.36323C13.0746 8.19446 12.846 8.09964 12.6076 8.09964ZM9.01267 0C7.83243 0 6.66376 0.232782 5.57336 0.685054C4.48297 1.13733 3.49221 1.80023 2.65766 2.63592C0.972209 4.32368 0.025332 6.61276 0.025332 8.9996C0.0174752 11.0777 0.736044 13.0931 2.05647 14.6963L0.259003 16.4963C0.134297 16.6228 0.049819 16.7835 0.0162296 16.9581C-0.0173597 17.1327 0.00144417 17.3133 0.0702687 17.4772C0.144916 17.6392 0.265927 17.7752 0.417941 17.8682C0.569955 17.9611 0.746117 18.0067 0.924065 17.9992H9.01267C11.3963 17.9992 13.6822 17.051 15.3677 15.3633C17.0531 13.6755 18 11.3864 18 8.9996C18 6.61276 17.0531 4.32368 15.3677 2.63592C13.6822 0.948169 11.3963 0 9.01267 0ZM9.01267 16.1993H3.09001L3.92583 15.3623C4.01075 15.279 4.07831 15.1796 4.12459 15.0699C4.17088 14.9602 4.19496 14.8424 4.19545 14.7233C4.19208 14.486 4.09517 14.2595 3.92583 14.0934C2.74902 12.9163 2.01618 11.367 1.85218 9.70948C1.68818 8.05199 2.10315 6.38882 3.02641 5.00335C3.94966 3.61787 5.32408 2.59581 6.91549 2.11128C8.50689 1.62676 10.2168 1.70975 11.754 2.34612C13.2912 2.98249 14.5604 4.13286 15.3455 5.60125C16.1307 7.06964 16.3831 8.7652 16.0597 10.399C15.7364 12.0329 14.8574 13.5039 13.5724 14.5616C12.2874 15.6192 10.676 16.198 9.01267 16.1993Z" fill="black"/>
</svg>
