<svg width="36" height="36" viewBox="0 0 36 36" fill="none" xmlns="http://www.w3.org/2000/svg">
<path d="M27.3719 26.0045L23.7994 22.4609C25.1861 20.7318 25.8577 18.5372 25.676 16.3282C25.4943 14.1191 24.4731 12.0637 22.8225 10.5845C21.1719 9.10527 19.0172 8.31469 16.8016 8.37532C14.5859 8.43594 12.4777 9.34317 10.9104 10.9104C9.34317 12.4777 8.43594 14.5859 8.37532 16.8016C8.31469 19.0172 9.10527 21.1719 10.5845 22.8225C12.0637 24.4731 14.1191 25.4943 16.3282 25.676C18.5372 25.8577 20.7318 25.1861 22.4609 23.7994L26.0045 27.343C26.0941 27.4333 26.2006 27.5049 26.3179 27.5538C26.4353 27.6027 26.5611 27.6279 26.6882 27.6279C26.8154 27.6279 26.9412 27.6027 27.0586 27.5538C27.1759 27.5049 27.2824 27.4333 27.3719 27.343C27.5455 27.1635 27.6425 26.9235 27.6425 26.6738C27.6425 26.4241 27.5455 26.1841 27.3719 26.0045ZM17.0587 23.7994C15.7256 23.7994 14.4223 23.4041 13.3138 22.6634C12.2053 21.9227 11.3414 20.87 10.8312 19.6383C10.321 18.4066 10.1875 17.0513 10.4476 15.7437C10.7077 14.4362 11.3497 13.2351 12.2924 12.2924C13.2351 11.3497 14.4362 10.7077 15.7437 10.4476C17.0513 10.1875 18.4066 10.321 19.6383 10.8312C20.87 11.3414 21.9227 12.2053 22.6634 13.3138C23.4041 14.4223 23.7994 15.7256 23.7994 17.0587C23.7994 18.8465 23.0892 20.561 21.8251 21.8251C20.561 23.0892 18.8465 23.7994 17.0587 23.7994Z" fill="black"/>
</svg>
