<svg width="28" height="28" viewBox="0 0 28 28" fill="none" xmlns="http://www.w3.org/2000/svg">
<path d="M25.0225 11.5102H16.915V3.4027C16.915 1.7812 15.834 0.700195 14.2125 0.700195C12.591 0.700195 11.51 1.7812 11.51 3.4027V11.5102H3.4025C1.781 11.5102 0.700005 12.5912 0.700005 14.2127C0.700005 15.8342 1.781 16.9152 3.4025 16.9152H11.51V25.0227C11.51 26.6442 12.591 27.7252 14.2125 27.7252C15.834 27.7252 16.915 26.6442 16.915 25.0227V16.9152H25.0225C26.644 16.9152 27.725 15.8342 27.725 14.2127C27.725 12.8614 26.644 11.5102 25.0225 11.5102Z" fill="white"/>
</svg>
