<svg width="20" height="21" viewBox="0 0 20 21" fill="none" xmlns="http://www.w3.org/2000/svg">
<path d="M10 0.0117798C7.43639 0.019092 4.97349 1.01069 3.12 2.78178V1.01178C3.12 0.746563 3.01464 0.492209 2.82711 0.304673C2.63957 0.117137 2.38522 0.0117798 2.12 0.0117798C1.85478 0.0117798 1.60043 0.117137 1.41289 0.304673C1.22536 0.492209 1.12 0.746563 1.12 1.01178V5.51178C1.12 5.777 1.22536 6.03135 1.41289 6.21889C1.60043 6.40642 1.85478 6.51178 2.12 6.51178H6.62C6.88522 6.51178 7.13957 6.40642 7.32711 6.21889C7.51464 6.03135 7.62 5.777 7.62 5.51178C7.62 5.24656 7.51464 4.99221 7.32711 4.80467C7.13957 4.61714 6.88522 4.51178 6.62 4.51178H4.22C5.50578 3.16814 7.21951 2.31443 9.06653 2.09745C10.9136 1.88046 12.7785 2.31375 14.3407 3.32282C15.9028 4.33189 17.0646 5.85369 17.6263 7.62657C18.188 9.39945 18.1145 11.3126 17.4184 13.0372C16.7223 14.7617 15.4472 16.1899 13.8122 17.0761C12.1772 17.9623 10.2845 18.2512 8.45956 17.8931C6.63463 17.535 4.99147 16.5523 3.81259 15.114C2.63372 13.6756 1.99279 11.8715 2 10.0118C2 9.74656 1.89464 9.49221 1.70711 9.30467C1.51957 9.11714 1.26522 9.01178 1 9.01178C0.734784 9.01178 0.48043 9.11714 0.292893 9.30467C0.105357 9.49221 0 9.74656 0 10.0118C0 11.9896 0.58649 13.923 1.6853 15.5675C2.78412 17.212 4.3459 18.4937 6.17317 19.2506C8.00043 20.0075 10.0111 20.2055 11.9509 19.8196C13.8907 19.4338 15.6725 18.4814 17.0711 17.0828C18.4696 15.6843 19.422 13.9025 19.8079 11.9627C20.1937 10.0229 19.9957 8.01221 19.2388 6.18495C18.4819 4.35768 17.2002 2.7959 15.5557 1.69708C13.9112 0.59827 11.9778 0.0117798 10 0.0117798ZM10 6.01178C9.73478 6.01178 9.48043 6.11714 9.29289 6.30467C9.10536 6.49221 9 6.74656 9 7.01178V10.0118C9 10.277 9.10536 10.5314 9.29289 10.7189C9.48043 10.9064 9.73478 11.0118 10 11.0118H12C12.2652 11.0118 12.5196 10.9064 12.7071 10.7189C12.8946 10.5314 13 10.277 13 10.0118C13 9.74656 12.8946 9.49221 12.7071 9.30467C12.5196 9.11714 12.2652 9.01178 12 9.01178H11V7.01178C11 6.74656 10.8946 6.49221 10.7071 6.30467C10.5196 6.11714 10.2652 6.01178 10 6.01178Z" fill="#555555"/>
</svg>
