<svg width="20" height="16" viewBox="0 0 20 16" fill="none" xmlns="http://www.w3.org/2000/svg">
<path d="M10.2502 8.18335C10.6948 7.79846 11.0515 7.32242 11.2959 6.78754C11.5403 6.25265 11.6668 5.67144 11.6668 5.08335C11.6668 3.97828 11.2278 2.91848 10.4464 2.13708C9.66504 1.35567 8.60523 0.916687 7.50016 0.916687C6.39509 0.916687 5.33529 1.35567 4.55388 2.13708C3.77248 2.91848 3.3335 3.97828 3.3335 5.08335C3.33349 5.67144 3.46 6.25265 3.70443 6.78754C3.94887 7.32242 4.30551 7.79846 4.75016 8.18335C3.58361 8.71159 2.59388 9.56463 1.89931 10.6405C1.20474 11.7163 0.834723 12.9694 0.833496 14.25C0.833496 14.471 0.921293 14.683 1.07757 14.8393C1.23385 14.9956 1.44582 15.0834 1.66683 15.0834C1.88784 15.0834 2.0998 14.9956 2.25609 14.8393C2.41237 14.683 2.50016 14.471 2.50016 14.25C2.50016 12.9239 3.02695 11.6522 3.96463 10.7145C4.90231 9.7768 6.17408 9.25002 7.50016 9.25002C8.82624 9.25002 10.098 9.7768 11.0357 10.7145C11.9734 11.6522 12.5002 12.9239 12.5002 14.25C12.5002 14.471 12.588 14.683 12.7442 14.8393C12.9005 14.9956 13.1125 15.0834 13.3335 15.0834C13.5545 15.0834 13.7665 14.9956 13.9228 14.8393C14.079 14.683 14.1668 14.471 14.1668 14.25C14.1656 12.9694 13.7956 11.7163 13.101 10.6405C12.4064 9.56463 11.4167 8.71159 10.2502 8.18335ZM7.50016 7.58335C7.00571 7.58335 6.52236 7.43673 6.11124 7.16203C5.70011 6.88732 5.37968 6.49688 5.19046 6.04006C5.00125 5.58325 4.95174 5.08058 5.0482 4.59563C5.14466 4.11068 5.38276 3.66522 5.7324 3.31559C6.08203 2.96596 6.52748 2.72785 7.01244 2.63139C7.49739 2.53493 8.00006 2.58444 8.45687 2.77366C8.91369 2.96287 9.30413 3.28331 9.57884 3.69443C9.85354 4.10555 10.0002 4.5889 10.0002 5.08335C10.0002 5.74639 9.73677 6.38228 9.26793 6.85112C8.79909 7.31996 8.1632 7.58335 7.50016 7.58335ZM15.6168 7.85002C16.1501 7.24946 16.4985 6.50757 16.62 5.71364C16.7415 4.91971 16.6309 4.10758 16.3016 3.37502C15.9723 2.64246 15.4383 2.02068 14.7639 1.58454C14.0895 1.1484 13.3033 0.916472 12.5002 0.916687C12.2791 0.916687 12.0672 1.00448 11.9109 1.16076C11.7546 1.31705 11.6668 1.52901 11.6668 1.75002C11.6668 1.97103 11.7546 2.183 11.9109 2.33928C12.0672 2.49556 12.2791 2.58335 12.5002 2.58335C13.1632 2.58335 13.7991 2.84675 14.2679 3.31559C14.7368 3.78443 15.0002 4.42031 15.0002 5.08335C14.999 5.52105 14.8829 5.95077 14.6635 6.32954C14.4442 6.7083 14.1292 7.02284 13.7502 7.24169C13.6266 7.31295 13.5234 7.41474 13.4505 7.5373C13.3775 7.65987 13.3372 7.7991 13.3335 7.94169C13.33 8.08316 13.3626 8.22318 13.4282 8.34857C13.4938 8.47395 13.5903 8.58056 13.7085 8.65835L14.0335 8.87502L14.1418 8.93335C15.1463 9.40979 15.9938 10.1633 16.5843 11.1053C17.1749 12.0472 17.484 13.1383 17.4752 14.25C17.4752 14.471 17.563 14.683 17.7192 14.8393C17.8755 14.9956 18.0875 15.0834 18.3085 15.0834C18.5295 15.0834 18.7415 14.9956 18.8978 14.8393C19.054 14.683 19.1418 14.471 19.1418 14.25C19.1486 12.9712 18.8283 11.7119 18.2114 10.5917C17.5944 9.47158 16.7013 8.52778 15.6168 7.85002Z" fill="currentColor"/>
</svg>
