<svg width="43" height="43" viewBox="0 0 43 43" fill="none" xmlns="http://www.w3.org/2000/svg">
<path fill-rule="evenodd" clip-rule="evenodd" d="M18.4366 10.0834C16.8142 9.61015 15.3726 11.2378 16.0383 12.7912L17.5171 16.2417C17.2335 16.4696 16.9661 16.7251 16.7189 17.0078L16.7115 17.0163L16.6679 17.0637C14.7112 19.1814 12.9294 22.2087 12.1963 25.0707C11.9632 25.981 11.9439 26.9022 12.1055 27.7774C12.6319 30.6266 15.0971 33.0313 18.4033 33.0313H24.6333C28.7653 33.0313 31.584 29.2849 30.9463 25.5678C30.4187 22.4918 28.3421 19.1995 26.3687 17.0636C26.3456 17.0387 26.332 17.024 26.3227 17.0136L26.3151 17.0051C26.0685 16.7233 25.8019 16.4688 25.5194 16.2418L26.9982 12.7912C27.664 11.2378 26.2224 9.61015 24.6 10.0834L21.5183 10.9822L18.4366 10.0834ZM18.8411 17.7447C18.6218 17.9134 18.4152 18.1062 18.2252 18.3235L18.2088 18.3423L18.2037 18.348C18.1829 18.3711 18.1586 18.3974 18.1369 18.421C16.3721 20.331 14.7731 23.0708 14.1338 25.567C13.9751 26.1866 13.9615 26.8142 14.0723 27.4141C14.4383 29.3957 16.1415 31.0313 18.4033 31.0313H24.6333C27.4603 31.0313 29.4144 28.4664 28.9751 25.9059C28.5366 23.3492 26.7257 20.3971 24.8998 18.421L24.8976 18.4186C24.8767 18.396 24.8531 18.3705 24.833 18.3481L24.8286 18.3431L24.8118 18.3242C24.6218 18.1068 24.4151 17.9137 24.1953 17.7447H18.8411ZM23.5565 15.7447L25.16 12.0034L22.0783 12.9022C21.7126 13.0088 21.324 13.0088 20.9583 12.9022L17.8766 12.0034L19.48 15.7447H23.5565Z" fill="currentColor"/>
</svg>
