<svg width="18" height="18" viewBox="0 0 18 18" fill="none" xmlns="http://www.w3.org/2000/svg">
<g clip-path="url(#clip0)">
<path d="M14.273 0.436419L1.75083 4.42899C1.25741 4.58733 0.829795 4.89565 0.526283 5.31192C0.222772 5.7282 0.0581343 6.23216 0.0548177 6.75511C0.0515012 7.27806 0.209667 7.79454 0.50775 8.23413C0.805834 8.67372 1.22933 9.01503 1.72049 9.21153L6.40775 11.0677C6.51897 11.1147 6.62043 11.183 6.70621 11.2688C6.79199 11.3546 6.86036 11.4561 6.90735 11.5673L8.76351 16.2545C8.92185 16.6527 9.17596 17.0082 9.50273 17.2887C9.82951 17.5692 10.2186 17.7658 10.6346 17.8607C11.0506 17.9556 11.4804 17.9457 11.8849 17.832C12.2894 17.7183 12.6557 17.5043 12.9507 17.2095C13.224 16.9305 13.4294 16.5918 13.5519 16.2183L17.5445 3.69614C17.6852 3.25104 17.6981 2.77157 17.5819 2.31122C17.4656 1.85087 17.2246 1.42775 16.886 1.08907C16.5473 0.750388 16.1242 0.509466 15.6638 0.393181C15.2035 0.276896 14.724 0.289824 14.2789 0.430521L14.273 0.436419ZM15.9231 3.1364L11.9305 15.6586C11.8759 15.8208 11.7724 15.9608 11.6339 16.0598C11.4954 16.1588 11.3286 16.2122 11.1558 16.2126C10.9829 16.2131 10.8124 16.1607 10.667 16.0624C10.5216 15.9641 10.4083 15.8247 10.3423 15.6628L8.4802 10.9814C8.45476 10.9195 8.42576 10.859 8.39335 10.8002L12.4572 6.73639C12.6136 6.57997 12.6994 6.36576 12.6958 6.14089C12.6921 5.91602 12.5993 5.69891 12.4377 5.53733C12.2761 5.37574 12.059 5.28291 11.8341 5.27927C11.6093 5.27562 11.3951 5.36145 11.2386 5.51788L7.17483 9.58169C7.11606 9.54928 7.05555 9.52027 6.99361 9.49483L2.31225 7.63277C2.15036 7.56676 2.01093 7.45345 1.91265 7.30805C1.81438 7.16265 1.76195 6.9921 1.76241 6.81928C1.76287 6.64645 1.81619 6.47961 1.91522 6.34113C2.01425 6.20265 2.15425 6.09914 2.31646 6.04449L14.8386 2.05192C14.9864 2.00644 15.1451 2.00304 15.2974 2.04209C15.4497 2.08115 15.5896 2.16115 15.7018 2.27328C15.8139 2.38541 15.8939 2.52533 15.9329 2.67762C15.972 2.8299 15.9686 2.98866 15.9231 3.1364Z" fill="#FF8B3F"/>
</g>
<defs>
<clipPath id="clip0">
<rect width="18" height="18" fill="white"/>
</clipPath>
</defs>
</svg>
