<svg width="16" height="16" viewBox="0 0 16 16" fill="none" xmlns="http://www.w3.org/2000/svg">
<path fill-rule="evenodd" clip-rule="evenodd" d="M2.2954 15.6062C1.7703 16.1313 0.918956 16.1313 0.393861 15.6062C-0.131236 15.0811 -0.131236 14.2298 0.39386 13.7047L6.09851 8.00001L0.39386 2.29536C-0.131237 1.77026 -0.131235 0.918917 0.393861 0.393821C0.918956 -0.131275 1.7703 -0.131274 2.2954 0.393821L8.00005 6.09847L13.7046 0.393883C14.2297 -0.131213 15.0811 -0.131213 15.6062 0.393883C16.1313 0.918979 16.1313 1.77033 15.6062 2.29542L9.90159 8.00001L15.6062 13.7046C16.1313 14.2297 16.1313 15.081 15.6062 15.6061C15.0811 16.1312 14.2297 16.1312 13.7046 15.6061L8.00005 9.90155L2.2954 15.6062Z" fill="black"/>
</svg>
