<svg width="18" height="21" viewBox="0 0 18 21" fill="none" xmlns="http://www.w3.org/2000/svg">
<path d="M17 7L11 1.74C10.45 1.24805 9.7379 0.976068 8.99997 0.976068C8.26204 0.976068 7.54999 1.24805 6.99997 1.74L0.999973 7C0.682341 7.28407 0.428873 7.63256 0.256445 8.02224C0.0840165 8.41193 -0.00341463 8.83388 -2.72762e-05 9.26V18C-2.72762e-05 18.7956 0.316043 19.5587 0.878652 20.1213C1.44126 20.6839 2.20432 21 2.99997 21H15C15.7956 21 16.5587 20.6839 17.1213 20.1213C17.6839 19.5587 18 18.7956 18 18V9.25C18.0019 8.82556 17.9138 8.40554 17.7414 8.01768C17.5691 7.62982 17.3163 7.28296 17 7ZM16 18C16 18.2652 15.8946 18.5196 15.7071 18.7071C15.5195 18.8946 15.2652 19 15 19H13H4.99997H2.99997C2.73476 19 2.4804 18.8946 2.29287 18.7071C2.10533 18.5196 1.99997 18.2652 1.99997 18V9.25C2.00015 9.10802 2.03057 8.9677 2.08919 8.83838C2.14781 8.70906 2.2333 8.59371 2.33997 8.5L8.33997 3.25C8.52246 3.08968 8.75706 3.00127 8.99997 3.00127C9.24288 3.00127 9.47748 3.08968 9.65997 3.25L15.66 8.5C15.7666 8.59371 15.8521 8.70906 15.9108 8.83838C15.9694 8.9677 15.9998 9.10802 16 9.25V18Z" fill="#13192E"/>
</svg>
