<svg width="20" height="21" viewBox="0 0 20 21" fill="none" xmlns="http://www.w3.org/2000/svg">
<g clip-path="url(#clip0)">
<path d="M13.6094 0.5C13.6953 0.5 13.6953 0.5 13.7812 0.5C13.8672 1.90351 13.3516 2.95614 12.75 3.74561C12.1484 4.53509 11.2891 5.23684 9.82816 5.14912C9.74222 3.74561 10.2578 2.7807 10.8594 1.99123C11.461 1.28947 12.5781 0.675439 13.6094 0.5Z" fill="black"/>
<path d="M17.8202 15.1491C17.3905 16.3772 16.8749 17.4298 16.1874 18.3947C15.5858 19.2719 14.8124 20.4123 13.4374 20.4123C12.2343 20.4123 11.4609 19.6228 10.2577 19.6228C8.96869 19.6228 8.2812 20.2368 7.07808 20.4123C6.90621 20.4123 6.82027 20.4123 6.6484 20.4123C5.78903 20.3246 5.10153 19.6228 4.58591 19.0088C3.21093 17.1667 2.00781 14.7982 1.83594 11.8158C1.83594 11.5526 1.83594 11.2017 1.83594 10.9386C1.92187 8.74561 2.95312 6.99122 4.3281 6.11403C5.0156 5.67543 6.04684 5.23684 7.16402 5.41227C7.67964 5.49999 8.10932 5.67543 8.53901 5.85087C8.96869 6.02631 9.48431 6.28947 9.91399 6.28947C10.2577 6.28947 10.6015 6.11403 10.8593 6.02631C11.8046 5.67543 12.7499 5.23684 14.039 5.49999C15.4999 5.76315 16.6171 6.37719 17.2186 7.42982C15.9296 8.21929 14.9843 9.44736 15.1561 11.5526C15.328 13.3947 16.4452 14.5351 17.8202 15.1491Z" fill="black"/>
</g>
<defs>
<clipPath id="clip0">
<rect width="19.5936" height="20" fill="white" transform="translate(0.203125 0.5)"/>
</clipPath>
</defs>
</svg>
