<svg width="20" height="20" viewBox="0 0 20 20" fill="none" xmlns="http://www.w3.org/2000/svg">
<path fill-rule="evenodd" clip-rule="evenodd" d="M12.4 6.16666V5.44444C12.4 5.06135 12.2525 4.69395 11.9899 4.42307C11.7274 4.15218 11.3713 4 11 4H8.2C7.8287 4 7.4726 4.15218 7.21005 4.42307C6.9475 4.69395 6.8 5.06135 6.8 5.44444V6.16666H8.2V5.44444H11V6.16666H12.4ZM14.995 15.344C15.1263 15.2086 15.2 15.0249 15.2 14.8333V10.7817L11.924 11.9083C11.8513 11.9308 11.7759 11.943 11.7 11.9444H7.5C7.42567 11.9548 7.35033 11.9548 7.276 11.9444L4 10.7817V14.8333C4 15.0249 4.07375 15.2086 4.20503 15.344C4.3363 15.4795 4.51435 15.5555 4.7 15.5555H14.5C14.6857 15.5555 14.8637 15.4795 14.995 15.344ZM11.588 10.5L15.2 9.25777V8.33332C15.2 8.14178 15.1263 7.95808 14.995 7.82264C14.8637 7.68719 14.6857 7.6111 14.5 7.6111H4.7C4.51435 7.6111 4.3363 7.68719 4.20503 7.82264C4.07375 7.95808 4 8.14178 4 8.33332V9.25777L7.612 10.5H11.588Z" fill="#FF8B3F"/>
</svg>
