<svg width="10" height="12" viewBox="0 0 10 12" fill="none" xmlns="http://www.w3.org/2000/svg">
<path d="M5.70999 6.53994C5.61703 6.44621 5.50643 6.37182 5.38457 6.32105C5.26271 6.27028 5.132 6.24414 4.99999 6.24414C4.86798 6.24414 4.73727 6.27028 4.61541 6.32105C4.49355 6.37182 4.38295 6.44621 4.28999 6.53994L1.28999 9.53994C1.09638 9.72824 0.985508 9.98574 0.981757 10.2558C0.978007 10.5258 1.08169 10.7863 1.26999 10.9799C1.4583 11.1735 1.7158 11.2844 1.98585 11.2882C2.2559 11.2919 2.51638 11.1882 2.70999 10.9999L4.99999 8.65994L7.28999 10.9999C7.38295 11.0937 7.49356 11.1681 7.61541 11.2188C7.73727 11.2696 7.86798 11.2957 7.99999 11.2957C8.132 11.2957 8.26271 11.2696 8.38457 11.2188C8.50643 11.1681 8.61703 11.0937 8.70999 10.9999C8.80372 10.907 8.87811 10.7964 8.92888 10.6745C8.97965 10.5527 9.00579 10.422 9.00579 10.2899C9.00579 10.1579 8.97965 10.0272 8.92888 9.90536C8.87811 9.7835 8.80372 9.6729 8.70999 9.57994L5.70999 6.53994ZM2.70999 5.45994L4.99999 3.15994L7.28999 5.45994C7.38295 5.55367 7.49356 5.62806 7.61541 5.67883C7.73727 5.7296 7.86798 5.75574 7.99999 5.75574C8.132 5.75574 8.26271 5.7296 8.38457 5.67883C8.50643 5.62806 8.61703 5.55367 8.70999 5.45994C8.80372 5.36698 8.87811 5.25637 8.92888 5.13452C8.97965 5.01266 9.00579 4.88195 9.00579 4.74994C9.00579 4.61793 8.97965 4.48722 8.92888 4.36536C8.87811 4.2435 8.80372 4.1329 8.70999 4.03994L5.70999 1.03994C5.61703 0.946211 5.50643 0.871816 5.38457 0.821048C5.26271 0.770279 5.132 0.744141 4.99999 0.744141C4.86798 0.744141 4.73727 0.770279 4.61541 0.821048C4.49355 0.871816 4.38295 0.946211 4.28999 1.03994L1.28999 4.03994C1.10169 4.22824 0.995899 4.48364 0.995899 4.74994C0.995899 5.01624 1.10169 5.27164 1.28999 5.45994C1.47829 5.64824 1.73369 5.75403 1.99999 5.75403C2.26629 5.75403 2.52169 5.64824 2.70999 5.45994Z" fill="currentColor"/>
</svg>
