<svg width="16" height="16" viewBox="0 0 16 16" fill="none" xmlns="http://www.w3.org/2000/svg">
<path d="M13.0034 2.9966C12.3651 2.35848 11.4996 2 10.597 2C9.69451 2 8.82893 2.35848 8.19068 2.9966L3.03229 8.15499C2.70866 8.46929 2.45074 8.8448 2.27354 9.25968C2.09634 9.67456 2.00339 10.1205 2.00009 10.5717C1.99679 11.0228 2.08322 11.4701 2.25434 11.8875C2.42545 12.3049 2.67785 12.6841 2.99685 13.0031C3.31586 13.3221 3.6951 13.5745 4.11252 13.7457C4.52994 13.9168 4.97722 14.0032 5.42835 13.9999C5.87947 13.9966 6.32544 13.9037 6.74032 13.7265C7.1552 13.5493 7.53071 13.2913 7.84501 12.9677L13.0034 7.80932C13.6415 7.17107 14 6.30549 14 5.40296C14 4.50043 13.6415 3.63485 13.0034 2.9966ZM12.0661 6.86539L9.95224 8.97927L7.02073 6.04776L9.13461 3.93388C9.52749 3.56583 10.0481 3.36496 10.5864 3.37374C11.1246 3.38252 11.6384 3.60025 12.0191 3.98092C12.3997 4.36159 12.6175 4.87536 12.6263 5.41364C12.635 5.95191 12.4342 6.47251 12.0661 6.86539Z" fill="#E1E1E1"/>
</svg>
