<svg width="12" height="12" viewBox="0 0 12 12" fill="none" xmlns="http://www.w3.org/2000/svg">
<path fill-rule="evenodd" clip-rule="evenodd" d="M8.4 2.16666V1.44444C8.4 1.06135 8.2525 0.693954 7.98995 0.423068C7.7274 0.152182 7.3713 0 7 0H4.2C3.8287 0 3.4726 0.152182 3.21005 0.423068C2.9475 0.693954 2.8 1.06135 2.8 1.44444V2.16666H4.2V1.44444H7V2.16666H8.4ZM10.995 11.344C11.1263 11.2086 11.2 11.0249 11.2 10.8333V6.78166L7.924 7.90832C7.85128 7.93084 7.77591 7.94299 7.7 7.94443H3.5C3.42567 7.95484 3.35033 7.95484 3.276 7.94443L0 6.78166V10.8333C0 11.0249 0.07375 11.2086 0.205025 11.344C0.336301 11.4795 0.514348 11.5555 0.7 11.5555H10.5C10.6857 11.5555 10.8637 11.4795 10.995 11.344ZM7.588 6.49999L11.2 5.25777V4.33332C11.2 4.14178 11.1263 3.95808 10.995 3.82264C10.8637 3.68719 10.6857 3.6111 10.5 3.6111H0.7C0.514348 3.6111 0.336301 3.68719 0.205025 3.82264C0.07375 3.95808 0 4.14178 0 4.33332V5.25777L3.612 6.49999H7.588Z" fill="#FF8B3F"/>
</svg>
