<svg width="43" height="43" viewBox="0 0 43 43" fill="none" xmlns="http://www.w3.org/2000/svg">
<path fill-rule="evenodd" clip-rule="evenodd" d="M16.7573 15.7572C16.3668 15.3667 15.7336 15.3667 15.3431 15.7572C14.9526 16.1478 14.9526 16.7809 15.3431 17.1715L19.5858 21.4141L15.3431 25.6568C14.9526 26.0473 14.9526 26.6805 15.3431 27.071C15.7336 27.4615 16.3668 27.4615 16.7573 27.071L21 22.8283L25.2426 27.071C25.6331 27.4615 26.2663 27.4615 26.6568 27.071C27.0473 26.6804 27.0473 26.0473 26.6568 25.6567L22.4142 21.4141L26.6568 17.1715C27.0473 16.781 27.0473 16.1478 26.6568 15.7573C26.2663 15.3668 25.6331 15.3668 25.2426 15.7573L21 19.9999L16.7573 15.7572Z" fill="black"/>
</svg>
