<svg width="20" height="22" viewBox="0 0 20 22" fill="none" xmlns="http://www.w3.org/2000/svg">
<path d="M18.6438 7.75L16.7688 4.49688C16.5456 4.11526 16.2301 3.79592 15.8511 3.56829C15.4722 3.34066 15.042 3.21205 14.6003 3.1943C14.1586 3.17656 13.7195 3.27026 13.3236 3.46676C12.9276 3.66326 12.5874 3.95626 12.3344 4.31875L10.7125 1.50625C10.3634 0.903108 9.78959 0.462852 9.11662 0.281872C8.44366 0.100891 7.7264 0.193933 7.12188 0.540625C6.74553 0.762799 6.4274 1.07128 6.19375 1.44063C5.88545 1.16428 5.51594 0.965065 5.11563 0.859375C4.78386 0.766035 4.43657 0.741172 4.09489 0.7863C3.75321 0.831428 3.42429 0.945602 3.12813 1.12187C2.82888 1.29293 2.56639 1.52146 2.35575 1.7943C2.14511 2.06715 1.99048 2.37893 1.90075 2.71174C1.81101 3.04455 1.78794 3.39181 1.83286 3.73356C1.87778 4.07531 1.98981 4.40481 2.1625 4.70312L2.48125 5.24688C2.09156 5.28014 1.71392 5.39855 1.375 5.59375C0.775983 5.94434 0.339522 6.51716 0.160467 7.18774C-0.0185888 7.85832 0.0742305 8.57247 0.418754 9.175L4.35625 16C4.88945 16.9544 5.60702 17.7934 6.46726 18.468C7.32751 19.1427 8.31327 19.6397 9.36726 19.9301C10.4213 20.2204 11.5224 20.2984 12.6068 20.1595C13.6912 20.0206 14.7372 19.6676 15.684 19.1209C16.6307 18.5742 17.4594 17.8448 18.1218 16.975C18.7842 16.1053 19.2671 15.1126 19.5425 14.0546C19.8179 12.9966 19.8803 11.8944 19.726 10.8121C19.5717 9.72976 19.2038 8.6889 18.6438 7.75ZM18.0156 13.6188C17.7903 14.4759 17.3966 15.2797 16.8574 15.9831C16.3182 16.6865 15.6443 17.2754 14.875 17.7156C13.3243 18.61 11.4821 18.8527 9.75264 18.3904C8.02319 17.9282 6.54774 16.7988 5.65 15.25L1.7125 8.425C1.56332 8.16641 1.52297 7.85916 1.60033 7.57082C1.67769 7.28248 1.86642 7.03668 2.125 6.8875C2.38359 6.73832 2.69085 6.69796 2.97919 6.77532C3.26752 6.85268 3.51332 7.04141 3.6625 7.3L5.725 10.8719C5.77425 10.9574 5.83987 11.0325 5.91811 11.0927C5.99635 11.1529 6.08568 11.1971 6.18101 11.2228C6.27633 11.2484 6.37578 11.2551 6.47368 11.2423C6.57158 11.2296 6.666 11.1977 6.75157 11.1484C6.83713 11.0992 6.91216 11.0336 6.97236 10.9553C7.03257 10.8771 7.07678 10.7878 7.10246 10.6924C7.12814 10.5971 7.13479 10.4977 7.12204 10.3998C7.10929 10.3019 7.07738 10.2074 7.02813 10.1219L4.96563 6.55L3.46563 3.95312C3.31655 3.6949 3.27609 3.38805 3.35313 3.1C3.39035 2.95658 3.456 2.8221 3.54618 2.70454C3.63637 2.58697 3.74925 2.48873 3.87813 2.41562C4.13636 2.26655 4.44321 2.22609 4.73125 2.30313C5.01783 2.38475 5.26255 2.57248 5.41563 2.82812L6.15625 4.13125H6.16563L8.60313 8.35C8.66644 8.46561 8.7602 8.56167 8.87423 8.62778C8.98826 8.69388 9.11822 8.72751 9.25 8.725C9.38235 8.72761 9.51261 8.69179 9.625 8.62188C9.7961 8.52199 9.92073 8.35846 9.97167 8.167C10.0226 7.97554 9.99572 7.7717 9.89688 7.6L7.45938 3.38125C7.31019 3.12266 7.26984 2.81541 7.3472 2.52707C7.42456 2.23873 7.61329 1.99293 7.87188 1.84375C8.13047 1.69457 8.43772 1.65421 8.72606 1.73157C9.0144 1.80893 9.26019 1.99766 9.40938 2.25625L12.2219 7.12188L12.8125 8.15313C11.9955 8.83304 11.4449 9.77969 11.258 10.826C11.071 11.8724 11.2597 12.9511 11.7906 13.8719C11.8978 14.0273 12.0596 14.1366 12.2438 14.178C12.428 14.2194 12.621 14.1898 12.7843 14.0951C12.9476 14.0004 13.0692 13.8476 13.1248 13.6672C13.1805 13.4868 13.166 13.2921 13.0844 13.1219C12.6868 12.4331 12.5791 11.6146 12.7847 10.8464C12.9904 10.0781 13.4927 9.42302 14.1813 9.025C14.2679 8.97558 14.344 8.90957 14.4051 8.83075C14.4662 8.75193 14.5112 8.66184 14.5375 8.56562C14.5833 8.37532 14.5565 8.17479 14.4625 8.00312L13.525 6.37188C13.4165 6.17933 13.367 5.95908 13.3829 5.73861C13.3988 5.51815 13.4792 5.30724 13.6142 5.13223C13.7492 4.95722 13.9328 4.82586 14.142 4.75454C14.3513 4.68323 14.5768 4.67513 14.7906 4.73125C14.9316 4.76849 15.0638 4.83321 15.1796 4.9217C15.2954 5.01018 15.3926 5.1207 15.4656 5.24688L17.3406 8.5C17.7889 9.26506 18.0795 10.1121 18.1954 10.9912C18.3114 11.8702 18.2502 12.7636 18.0156 13.6188ZM6.22188 20.9313C6.15109 21.0293 6.05816 21.1093 5.95064 21.1647C5.84313 21.22 5.72407 21.2493 5.60313 21.25C5.44982 21.2481 5.30023 21.2026 5.17188 21.1188C3.80831 20.1766 2.67407 18.9398 1.85313 17.5C1.79443 17.4148 1.75398 17.3185 1.73432 17.2169C1.71466 17.1154 1.71621 17.0109 1.73888 16.91C1.76154 16.8091 1.80484 16.7139 1.86604 16.6306C1.92723 16.5472 2.00502 16.4774 2.09449 16.4255C2.18397 16.3736 2.28321 16.3408 2.38597 16.3291C2.48874 16.3175 2.59281 16.3272 2.69164 16.3576C2.79047 16.3881 2.88193 16.4387 2.96028 16.5062C3.03862 16.5738 3.10215 16.6567 3.14688 16.75C3.86328 17.9964 4.84997 19.0664 6.03438 19.8812C6.19736 19.9965 6.30842 20.1713 6.34351 20.3678C6.3786 20.5643 6.3349 20.7667 6.22188 20.9313ZM13.75 0.90625C13.75 0.707338 13.829 0.516572 13.9697 0.37592C14.1103 0.235268 14.3011 0.15625 14.5 0.15625C15.4876 0.157512 16.4576 0.417921 17.3131 0.91146C18.1686 1.405 18.8796 2.11439 19.375 2.96875C19.4248 3.05402 19.4571 3.14838 19.4699 3.2463C19.4827 3.34422 19.4758 3.44371 19.4496 3.53893C19.4234 3.63414 19.3784 3.72315 19.3173 3.80072C19.2562 3.87829 19.1802 3.94286 19.0938 3.99063C18.9818 4.06157 18.8512 4.09747 18.7188 4.09375C18.5876 4.09329 18.4588 4.05841 18.3453 3.99261C18.2317 3.92681 18.1375 3.83238 18.0719 3.71875C17.7099 3.09174 17.1892 2.57106 16.5622 2.20901C15.9352 1.84697 15.224 1.65633 14.5 1.65625C14.3011 1.65625 14.1103 1.57723 13.9697 1.43658C13.829 1.29593 13.75 1.10516 13.75 0.90625Z" fill="#13192E"/>
</svg>
