<svg width="21" height="19" viewBox="0 0 21 19" fill="none" xmlns="http://www.w3.org/2000/svg">
<path d="M19 9C18.7348 9 18.4804 9.10536 18.2929 9.2929C18.1054 9.48043 18 9.73479 18 10V16C18 16.2652 17.8946 16.5196 17.7071 16.7071C17.5196 16.8946 17.2652 17 17 17H3C2.73478 17 2.48043 16.8946 2.29289 16.7071C2.10536 16.5196 2 16.2652 2 16V6.41L7.88 12.3C8.44125 12.8567 9.19951 13.1693 9.99 13.17C10.8004 13.1658 11.5764 12.8425 12.15 12.27L13.87 10.55C14.0583 10.3617 14.1641 10.1063 14.1641 9.84C14.1641 9.5737 14.0583 9.31831 13.87 9.13C13.6817 8.9417 13.4263 8.83591 13.16 8.83591C12.8937 8.83591 12.6383 8.9417 12.45 9.13L10.7 10.88C10.5131 11.0632 10.2618 11.1659 10 11.1659C9.73825 11.1659 9.48693 11.0632 9.3 10.88L3.41 5H11C11.2652 5 11.5196 4.89465 11.7071 4.70711C11.8946 4.51957 12 4.26522 12 4C12 3.73479 11.8946 3.48043 11.7071 3.2929C11.5196 3.10536 11.2652 3 11 3H3C2.20435 3 1.44129 3.31607 0.87868 3.87868C0.316071 4.44129 0 5.20435 0 6V16C0 16.7957 0.316071 17.5587 0.87868 18.1213C1.44129 18.6839 2.20435 19 3 19H17C17.7956 19 18.5587 18.6839 19.1213 18.1213C19.6839 17.5587 20 16.7957 20 16V10C20 9.73479 19.8946 9.48043 19.7071 9.2929C19.5196 9.10536 19.2652 9 19 9ZM18.41 4L19.71 2.71C19.8983 2.5217 20.0041 2.2663 20.0041 2C20.0041 1.7337 19.8983 1.47831 19.71 1.29C19.5217 1.1017 19.2663 0.995911 19 0.995911C18.7337 0.995911 18.4783 1.1017 18.29 1.29L17 2.59L15.71 1.29C15.6168 1.19676 15.5061 1.1228 15.3842 1.07234C15.2624 1.02188 15.1319 0.995911 15 0.995911C14.7337 0.995911 14.4783 1.1017 14.29 1.29C14.1017 1.47831 13.9959 1.7337 13.9959 2C13.9959 2.2663 14.1017 2.5217 14.29 2.71L15.59 4L14.29 5.29C14.1963 5.38297 14.1219 5.49357 14.0711 5.61543C14.0203 5.73728 13.9942 5.86799 13.9942 6C13.9942 6.13201 14.0203 6.26272 14.0711 6.38458C14.1219 6.50644 14.1963 6.61704 14.29 6.71C14.383 6.80373 14.4936 6.87812 14.6154 6.92889C14.7373 6.97966 14.868 7.0058 15 7.0058C15.132 7.0058 15.2627 6.97966 15.3846 6.92889C15.5064 6.87812 15.617 6.80373 15.71 6.71L17 5.41L18.29 6.71C18.383 6.80373 18.4936 6.87812 18.6154 6.92889C18.7373 6.97966 18.868 7.0058 19 7.0058C19.132 7.0058 19.2627 6.97966 19.3846 6.92889C19.5064 6.87812 19.617 6.80373 19.71 6.71C19.8037 6.61704 19.8781 6.50644 19.9289 6.38458C19.9797 6.26272 20.0058 6.13201 20.0058 6C20.0058 5.86799 19.9797 5.73728 19.9289 5.61543C19.8781 5.49357 19.8037 5.38297 19.71 5.29L18.41 4Z" fill="#555555"/>
</svg>
