<svg width="19" height="19" viewBox="0 0 19 19" fill="none" xmlns="http://www.w3.org/2000/svg">
<path d="M0.962492 5.63542C0.301461 6.25411 0.644688 6.66453 1.53454 6.4195C3.6384 5.83757 7.26771 5.02899 8.92029 5.78856C8.92029 5.78856 4.08968 9.48231 4.81427 16.7779C4.90325 17.6661 5.58971 18.3706 6.25709 18.3706C6.91813 18.3706 7.36305 17.6539 7.36305 16.7657C7.35669 14.7565 7.71263 11.0076 9.8292 6.395C9.8292 6.395 11.4055 8.39195 11.8759 10.5665C12.0665 11.4364 12.4161 11.5589 12.664 10.7013C12.931 9.75796 13.0199 8.45933 12.2318 7.09945C12.2318 7.09945 15.2382 8.6676 17.1959 10.6952C17.8251 11.3445 18.2001 11.2342 17.9523 10.3767C17.4374 8.57572 15.912 5.78244 11.4246 4.94935C11.4246 4.94935 13.1534 4.14077 15.2446 4.22041C16.1662 4.25716 16.4713 3.84062 15.6514 3.4302C14.6535 2.93403 12.9437 2.60324 10.1724 3.37507C10.1724 3.37507 8.83766 0.232628 4.51553 0.361266C3.60026 0.391894 3.55577 0.826813 4.38841 1.21885C5.81853 1.89267 7.80162 2.9769 8.18934 3.98151C8.18934 3.98151 3.74009 3.04429 0.962492 5.63542Z" fill="black"/>
</svg>
