<svg width="56" height="56" viewBox="0 0 56 56" fill="none" xmlns="http://www.w3.org/2000/svg">
<g clip-path="url(#clip0_4884_37538)">
<path d="M44.1027 1.84836L5.86241 14.0409C4.35561 14.5244 3.04976 15.466 2.12289 16.7372C1.19602 18.0084 0.693253 19.5475 0.683125 21.1444C0.672997 22.7414 1.156 24.3186 2.06629 25.6611C2.97658 27.0035 4.26985 28.0458 5.76978 28.6459L20.0838 34.3142C20.4234 34.4577 20.7333 34.6665 20.9952 34.9284C21.2572 35.1904 21.466 35.5002 21.6094 35.8399L27.2778 50.1539C27.7614 51.3698 28.5373 52.4554 29.5352 53.312C30.5331 54.1686 31.7213 54.7691 32.9918 55.0588C34.2622 55.3486 35.5747 55.3185 36.8099 54.9712C38.0451 54.6239 39.1639 53.9704 40.0645 53.0702C40.8992 52.2181 41.5266 51.1839 41.9008 50.0432L54.0933 11.8029C54.523 10.4437 54.5624 8.97945 54.2073 7.57364C53.8522 6.16782 53.1165 4.8757 52.0822 3.84143C51.048 2.80716 49.7558 2.07143 48.35 1.71632C46.9442 1.36121 45.48 1.40068 44.1207 1.83035L44.1027 1.84836ZM49.1419 10.0936L36.9493 48.3339C36.7824 48.8292 36.4663 49.2568 36.0434 49.5592C35.6205 49.8616 35.111 50.0245 34.5833 50.0259C34.0555 50.0273 33.5347 49.8672 33.0907 49.567C32.6466 49.2669 32.3006 48.8411 32.099 48.3468L26.4126 34.0508C26.3349 33.8616 26.2464 33.6768 26.1474 33.4974L38.5575 21.0873C39.0352 20.6096 39.2973 19.9554 39.2862 19.2687C39.275 18.582 38.9916 17.919 38.4981 17.4255C38.0047 16.9321 37.3416 16.6486 36.6549 16.6375C35.9682 16.6264 35.3141 16.8885 34.8364 17.3662L22.4263 29.7763C22.2468 29.6773 22.062 29.5887 21.8729 29.511L7.57689 23.8246C7.08251 23.623 6.65672 23.277 6.3566 22.833C6.05648 22.389 5.89639 21.8681 5.89779 21.3404C5.89919 20.8126 6.06202 20.3031 6.36443 19.8802C6.66685 19.4573 7.0944 19.1412 7.58976 18.9743L45.8301 6.7818C46.2812 6.6429 46.766 6.63251 47.2311 6.75178C47.6962 6.87105 48.1234 7.11535 48.4659 7.45778C48.8083 7.80021 49.0526 8.22748 49.1719 8.69254C49.2911 9.1576 49.2808 9.64242 49.1419 10.0936Z" fill="currentColor"/>
</g>
<defs>
<clipPath id="clip0_4884_37538">
<rect width="54.9685" height="54.9685" fill="currentColor" transform="translate(0.515625 0.515625)"/>
</clipPath>
</defs>
</svg>
