<svg width="20" height="20" viewBox="0 0 20 20" fill="none" xmlns="http://www.w3.org/2000/svg">
<path d="M17.625 2.38289C17.3066 2.05836 16.9029 1.83058 16.4605 1.72587C16.0181 1.62117 15.5551 1.64383 15.125 1.79123L3.33333 5.73289C2.85776 5.88856 2.44224 6.18802 2.14413 6.58992C1.84602 6.99183 1.68001 7.47637 1.66904 7.97665C1.65806 8.47693 1.80266 8.96828 2.08286 9.38287C2.36306 9.79746 2.76505 10.1149 3.23333 10.2912L7.6 11.9579C7.69943 11.9959 7.78997 12.054 7.86595 12.1286C7.94194 12.2031 8.00176 12.2925 8.04167 12.3912L9.70833 16.7662C9.87799 17.2279 10.1859 17.626 10.59 17.9064C10.9941 18.1867 11.4748 18.3357 11.9667 18.3329H12.025C12.5259 18.3238 13.0113 18.1582 13.4133 17.8593C13.8153 17.5604 14.1137 17.1432 14.2667 16.6662L18.2083 4.85789C18.3517 4.43201 18.373 3.97451 18.2699 3.53713C18.1669 3.09975 17.9435 2.69994 17.625 2.38289ZM16.6667 4.33289L12.6833 16.1496C12.6371 16.2991 12.5442 16.43 12.4182 16.5229C12.2923 16.6159 12.1399 16.6661 11.9833 16.6662C11.8277 16.6688 11.675 16.6239 11.5455 16.5376C11.416 16.4512 11.3158 16.3275 11.2583 16.1829L9.59167 11.8079C9.47084 11.49 9.28449 11.2011 9.04473 10.9599C8.80498 10.7187 8.51717 10.5306 8.2 10.4079L3.825 8.74123C3.67741 8.68715 3.55054 8.58806 3.46232 8.45797C3.3741 8.32788 3.32898 8.17335 3.33333 8.01623C3.33346 7.85968 3.38368 7.70728 3.47665 7.58133C3.56961 7.45538 3.70044 7.36248 3.85 7.31623L15.6667 3.37456C15.8023 3.31927 15.9511 3.30445 16.095 3.33192C16.2389 3.35938 16.3718 3.42793 16.4776 3.5293C16.5834 3.63067 16.6575 3.7605 16.6911 3.90311C16.7246 4.04572 16.7161 4.195 16.6667 4.33289Z" fill="currentColor"/>
</svg>
