<svg width="16" height="16" viewBox="0 0 16 16" fill="none" xmlns="http://www.w3.org/2000/svg">
<path d="M14.4809 2.6694L15.0459 2.07426C15.3321 1.77292 15.3547 1.35857 15.0685 1.0723L14.8726 0.868898C14.6165 0.61276 14.187 0.650427 13.9083 0.929166L13.3207 1.50171L14.4809 2.6694ZM5.56121 10.685L7.10557 10.0371L13.9309 3.21181L12.7708 2.05919L5.94542 8.89206L5.2674 10.3837C5.19207 10.557 5.38794 10.7528 5.56121 10.685ZM2.69849 15.74H11.475C12.9214 15.74 13.7727 14.8962 13.7727 13.2841V5.32872L12.266 6.82788V13.1485C12.266 13.8717 11.8818 14.2333 11.3771 14.2333H2.79642C2.10334 14.2333 1.72667 13.8717 1.72667 13.1485V4.77878C1.72667 4.05556 2.10334 3.69395 2.79642 3.69395H9.19235L10.6915 2.18726H2.69849C1.07125 2.18726 0.219971 3.03101 0.219971 4.64317V13.2841C0.219971 14.8962 1.07125 15.74 2.69849 15.74Z" fill="currentColor"/>
</svg>
