<svg width="9" height="12" viewBox="0 0 9 12" fill="currentColor" xmlns="http://www.w3.org/2000/svg">
<path d="M3.78998 5.46C3.88294 5.55373 3.99354 5.62812 4.1154 5.67889C4.23726 5.72966 4.36797 5.7558 4.49998 5.7558C4.63199 5.7558 4.7627 5.72966 4.88455 5.67889C5.00641 5.62812 5.11702 5.55373 5.20998 5.46L8.20998 2.46C8.40359 2.2717 8.51446 2.01419 8.51821 1.74414C8.52196 1.47409 8.41828 1.21361 8.22998 1.02C8.04167 0.826392 7.78417 0.715518 7.51412 0.711767C7.24407 0.708017 6.98359 0.811696 6.78998 1L4.49998 3.34L2.20998 1C2.11701 0.906272 2.00641 0.831878 1.88455 0.781109C1.7627 0.730341 1.63199 0.704201 1.49998 0.704201C1.36797 0.704201 1.23726 0.730341 1.1154 0.78111C0.993542 0.831878 0.882941 0.906273 0.789978 1C0.696249 1.09296 0.621855 1.20357 0.571086 1.32542C0.520318 1.44728 0.494179 1.57799 0.494179 1.71C0.494179 1.84201 0.520318 1.97272 0.571087 2.09458C0.621855 2.21644 0.696249 2.32704 0.789978 2.42L3.78998 5.46ZM6.78998 6.54L4.49998 8.84L2.20998 6.54C2.11701 6.44627 2.00641 6.37188 1.88455 6.32111C1.7627 6.27034 1.63199 6.2442 1.49998 6.2442C1.36797 6.2442 1.23726 6.27034 1.1154 6.32111C0.993542 6.37188 0.882941 6.44627 0.789978 6.54C0.69625 6.63296 0.621856 6.74356 0.571087 6.86542C0.520318 6.98728 0.494179 7.11799 0.494179 7.25C0.494179 7.38201 0.520318 7.51272 0.571087 7.63458C0.621856 7.75644 0.69625 7.86704 0.789978 7.96L3.78998 10.96C3.88294 11.0537 3.99354 11.1281 4.1154 11.1789C4.23726 11.2297 4.36797 11.2558 4.49998 11.2558C4.63199 11.2558 4.7627 11.2297 4.88456 11.1789C5.00641 11.1281 5.11702 11.0537 5.20998 10.96L8.20998 7.96C8.39828 7.7717 8.50407 7.5163 8.50407 7.25C8.50407 6.9837 8.39828 6.7283 8.20998 6.54C8.02167 6.3517 7.76628 6.24591 7.49998 6.24591C7.23368 6.24591 6.97828 6.3517 6.78998 6.54Z" fill="currentColor"/>
</svg>
