<svg width="20" height="20" viewBox="0 0 20 20" fill="none" xmlns="http://www.w3.org/2000/svg">
<path d="M4.8042 13C4.7386 12.8862 4.6512 12.7864 4.54702 12.7064C4.44283 12.6264 4.32389 12.5677 4.19701 12.5337C4.07012 12.4997 3.93778 12.491 3.80754 12.5082C3.67731 12.5254 3.55173 12.5681 3.438 12.6338L1.70558 13.6338C1.47599 13.7665 1.30849 13.9849 1.2399 14.241C1.17131 14.4972 1.20725 14.7701 1.33981 14.9997C1.47238 15.2294 1.69072 15.397 1.94683 15.4657C2.20294 15.5345 2.47586 15.4987 2.70558 15.3662L4.438 14.3662C4.66762 14.2335 4.83516 14.0151 4.90382 13.7589C4.97249 13.5027 4.93666 13.2298 4.8042 13ZM1.70557 6.36621L3.43799 7.36621C3.55175 7.43195 3.67734 7.47463 3.8076 7.49182C3.93785 7.50901 4.07022 7.50036 4.19714 7.46638C4.32405 7.43239 4.44303 7.37374 4.54726 7.29376C4.6515 7.21378 4.73896 7.11405 4.80464 7.00026C4.87033 6.88647 4.91294 6.76085 4.93007 6.63058C4.94719 6.50032 4.93847 6.36796 4.90442 6.24106C4.87037 6.11416 4.81166 5.99522 4.73162 5.89102C4.65159 5.78682 4.55181 5.69941 4.43799 5.63379L2.70557 4.63379C2.47585 4.50134 2.20293 4.46555 1.94682 4.53427C1.69071 4.60299 1.47237 4.7706 1.3398 5.00026C1.20724 5.22991 1.1713 5.50281 1.23989 5.75896C1.30848 6.0151 1.47598 6.23353 1.70557 6.36621ZM4 10C4 9.73478 3.89464 9.48043 3.70711 9.29289C3.51957 9.10536 3.26522 9 3 9H1C0.734784 9 0.48043 9.10536 0.292893 9.29289C0.105357 9.48043 0 9.73478 0 10C0 10.2652 0.105357 10.5196 0.292893 10.7071C0.48043 10.8946 0.734784 11 1 11H3C3.26522 11 3.51957 10.8946 3.70711 10.7071C3.89464 10.5196 4 10.2652 4 10ZM15.1958 7C15.3285 7.22964 15.5469 7.39721 15.8031 7.46588C16.0593 7.53455 16.3322 7.4987 16.562 7.36621L18.2944 6.36621C18.4083 6.30059 18.508 6.21318 18.5881 6.10898C18.6681 6.00478 18.7268 5.88584 18.7609 5.75894C18.7949 5.63204 18.8036 5.49968 18.7865 5.36942C18.7694 5.23915 18.7268 5.11353 18.6611 4.99974C18.5954 4.88595 18.5079 4.78622 18.4037 4.70624C18.2995 4.62626 18.1805 4.56761 18.0536 4.53362C17.9267 4.49964 17.7943 4.49099 17.664 4.50818C17.5338 4.52537 17.4082 4.56805 17.2944 4.63379L15.562 5.63379C15.3324 5.76651 15.1648 5.98494 15.0962 6.24111C15.0275 6.49728 15.0633 6.77023 15.1958 7ZM13 4.8042C13.2298 4.93669 13.5027 4.97254 13.7589 4.90387C14.0151 4.83521 14.2335 4.66764 14.3662 4.438L15.3662 2.70558C15.432 2.59182 15.4746 2.46623 15.4918 2.33597C15.509 2.20572 15.5004 2.07335 15.4664 1.94643C15.4324 1.81952 15.3737 1.70054 15.2938 1.59631C15.2138 1.49207 15.114 1.40461 15.0003 1.33893C14.8865 1.27324 14.7608 1.23063 14.6306 1.21351C14.5003 1.19638 14.368 1.2051 14.2411 1.23915C14.1142 1.2732 13.9952 1.33191 13.891 1.41195C13.7868 1.49198 13.6994 1.59176 13.6338 1.70558L12.6338 3.438C12.5013 3.66777 12.4655 3.94072 12.5342 4.19688C12.6028 4.45305 12.7704 4.67148 13 4.8042ZM18.2944 13.6338L16.562 12.6338C16.4483 12.568 16.3227 12.5254 16.1924 12.5082C16.0621 12.491 15.9298 12.4996 15.8029 12.5336C15.6759 12.5676 15.557 12.6263 15.4527 12.7062C15.3485 12.7862 15.261 12.886 15.1954 12.9997C15.1297 13.1135 15.0871 13.2392 15.0699 13.3694C15.0528 13.4997 15.0615 13.632 15.0956 13.7589C15.1296 13.8858 15.1883 14.0048 15.2684 14.109C15.3484 14.2132 15.4482 14.3006 15.562 14.3662L17.2944 15.3662C17.5242 15.4987 17.7971 15.5345 18.0532 15.4657C18.3093 15.397 18.5276 15.2294 18.6602 14.9997C18.7928 14.7701 18.8287 14.4972 18.7601 14.241C18.6915 13.9849 18.524 13.7665 18.2944 13.6338ZM14.3662 15.562C14.3006 15.4482 14.2132 15.3484 14.109 15.2684C14.0048 15.1883 13.8858 15.1296 13.7589 15.0956C13.632 15.0615 13.4997 15.0528 13.3694 15.0699C13.2392 15.087 13.1135 15.1297 12.9997 15.1953C12.886 15.261 12.7862 15.3485 12.7062 15.4527C12.6263 15.557 12.5676 15.6759 12.5336 15.8029C12.4996 15.9298 12.491 16.0621 12.5082 16.1924C12.5254 16.3226 12.568 16.4482 12.6338 16.562L13.6338 18.2944C13.6994 18.4082 13.7868 18.508 13.891 18.5881C13.9952 18.6681 14.1142 18.7268 14.2411 18.7609C14.368 18.7949 14.5003 18.8036 14.6306 18.7865C14.7608 18.7694 14.8865 18.7268 15.0003 18.6611C15.114 18.5954 15.2138 18.5079 15.2938 18.4037C15.3737 18.2995 15.4324 18.1805 15.4664 18.0536C15.5004 17.9267 15.509 17.7943 15.4918 17.664C15.4746 17.5338 15.432 17.4082 15.3662 17.2944L14.3662 15.562ZM19 9H17C16.7348 9 16.4804 9.10536 16.2929 9.29289C16.1054 9.48043 16 9.73478 16 10C16 10.2652 16.1054 10.5196 16.2929 10.7071C16.4804 10.8946 16.7348 11 17 11H19C19.2652 11 19.5196 10.8946 19.7071 10.7071C19.8946 10.5196 20 10.2652 20 10C20 9.73478 19.8946 9.48043 19.7071 9.29289C19.5196 9.10536 19.2652 9 19 9ZM10 16C9.73478 16 9.48043 16.1054 9.29289 16.2929C9.10536 16.4804 9 16.7348 9 17V19C9 19.2652 9.10536 19.5196 9.29289 19.7071C9.48043 19.8946 9.73478 20 10 20C10.2652 20 10.5196 19.8946 10.7071 19.7071C10.8946 19.5196 11 19.2652 11 19V17C11 16.7348 10.8946 16.4804 10.7071 16.2929C10.5196 16.1054 10.2652 16 10 16ZM7 15.1958C6.88627 15.1301 6.76069 15.0874 6.63046 15.0702C6.50022 15.053 6.36787 15.0617 6.24098 15.0957C6.1141 15.1297 5.99516 15.1884 5.89097 15.2684C5.78679 15.3484 5.69939 15.4482 5.63379 15.562L4.63379 17.2944C4.50134 17.5242 4.46555 17.7971 4.53427 18.0532C4.60299 18.3093 4.7706 18.5276 5.00026 18.6602C5.22991 18.7928 5.50281 18.8287 5.75896 18.7601C6.0151 18.6915 6.23353 18.524 6.36621 18.2944L7.36621 16.562C7.49866 16.3322 7.53449 16.0593 7.46583 15.8031C7.39716 15.547 7.22962 15.3285 7 15.1958ZM10 0C9.73478 0 9.48043 0.105357 9.29289 0.292893C9.10536 0.48043 9 0.734784 9 1V3C9 3.26522 9.10536 3.51957 9.29289 3.70711C9.48043 3.89464 9.73478 4 10 4C10.2652 4 10.5196 3.89464 10.7071 3.70711C10.8946 3.51957 11 3.26522 11 3V1C11 0.734784 10.8946 0.48043 10.7071 0.292893C10.5196 0.105357 10.2652 0 10 0Z" fill="white"/>
</svg>
