<svg width="20" height="18" viewBox="0 0 20 18" fill="none" xmlns="http://www.w3.org/2000/svg">
<path d="M19 7.51178H15C14.7348 7.51178 14.4804 7.61714 14.2929 7.80467C14.1054 7.99221 14 8.24656 14 8.51178C14 8.777 14.1054 9.03135 14.2929 9.21889C14.4804 9.40642 14.7348 9.51178 15 9.51178H19C19.2652 9.51178 19.5196 9.40642 19.7071 9.21889C19.8946 9.03135 20 8.777 20 8.51178C20 8.24656 19.8946 7.99221 19.7071 7.80467C19.5196 7.61714 19.2652 7.51178 19 7.51178ZM11.3 9.23178C11.8336 8.76991 12.2616 8.19866 12.5549 7.5568C12.8482 6.91494 13 6.21749 13 5.51178C13 4.1857 12.4732 2.91393 11.5355 1.97625C10.5979 1.03856 9.32608 0.51178 8 0.51178C6.67392 0.51178 5.40215 1.03856 4.46447 1.97625C3.52678 2.91393 3 4.1857 3 5.51178C2.99999 6.21749 3.1518 6.91494 3.44513 7.5568C3.73845 8.19866 4.16642 8.76991 4.7 9.23178C3.30014 9.86566 2.11247 10.8893 1.27898 12.1803C0.445495 13.4713 0.00147185 14.9751 0 16.5118C0 16.777 0.105357 17.0314 0.292893 17.2189C0.48043 17.4064 0.734784 17.5118 1 17.5118C1.26522 17.5118 1.51957 17.4064 1.70711 17.2189C1.89464 17.0314 2 16.777 2 16.5118C2 14.9205 2.63214 13.3944 3.75736 12.2691C4.88258 11.1439 6.4087 10.5118 8 10.5118C9.5913 10.5118 11.1174 11.1439 12.2426 12.2691C13.3679 13.3944 14 14.9205 14 16.5118C14 16.777 14.1054 17.0314 14.2929 17.2189C14.4804 17.4064 14.7348 17.5118 15 17.5118C15.2652 17.5118 15.5196 17.4064 15.7071 17.2189C15.8946 17.0314 16 16.777 16 16.5118C15.9985 14.9751 15.5545 13.4713 14.721 12.1803C13.8875 10.8893 12.6999 9.86566 11.3 9.23178ZM8 8.51178C7.40666 8.51178 6.82664 8.33583 6.33329 8.00619C5.83994 7.67654 5.45542 7.20801 5.22836 6.65983C5.0013 6.11165 4.94189 5.50845 5.05764 4.92651C5.1734 4.34457 5.45912 3.81002 5.87868 3.39046C6.29824 2.9709 6.83279 2.68518 7.41473 2.56942C7.99667 2.45367 8.59987 2.51308 9.14805 2.74014C9.69623 2.9672 10.1648 3.35172 10.4944 3.84507C10.8241 4.33842 11 4.91844 11 5.51178C11 6.30743 10.6839 7.07049 10.1213 7.6331C9.55871 8.19571 8.79565 8.51178 8 8.51178Z" fill="#555555"/>
</svg>
