<svg width="10" height="8" viewBox="0 0 10 8" fill="none" xmlns="http://www.w3.org/2000/svg">
<path d="M5.68115 3.40836C5.60304 3.48583 5.54105 3.57799 5.49874 3.67954C5.45643 3.78109 5.43465 3.89001 5.43465 4.00002C5.43465 4.11003 5.45643 4.21895 5.49874 4.3205C5.54105 4.42205 5.60304 4.51422 5.68115 4.59169L8.18115 7.09169C8.33807 7.25303 8.55265 7.34542 8.7777 7.34855C9.00274 7.35168 9.21981 7.26528 9.38115 7.10836C9.54249 6.95144 9.63488 6.73685 9.63801 6.51181C9.64114 6.28676 9.55474 6.0697 9.39782 5.90836L7.44782 4.00002L9.39782 2.09169C9.47592 2.01422 9.53792 1.92205 9.58022 1.8205C9.62253 1.71895 9.64431 1.61003 9.64431 1.50002C9.64431 1.39001 9.62253 1.28109 9.58022 1.17954C9.53792 1.07799 9.47592 0.985826 9.39782 0.908357C9.32035 0.83025 9.22818 0.768255 9.12663 0.725947C9.02508 0.68364 8.91616 0.661858 8.80615 0.661858C8.69614 0.661858 8.58722 0.68364 8.48567 0.725948C8.38412 0.768255 8.29195 0.83025 8.21448 0.908357L5.68115 3.40836ZM4.78115 5.90836L2.86448 4.00002L4.78115 2.09169C4.85926 2.01422 4.92125 1.92205 4.96356 1.8205C5.00587 1.71895 5.02765 1.61003 5.02765 1.50002C5.02765 1.39001 5.00587 1.28109 4.96356 1.17954C4.92125 1.07799 4.85926 0.985826 4.78115 0.908357C4.70368 0.83025 4.61151 0.768255 4.50996 0.725948C4.40841 0.68364 4.29949 0.661858 4.18948 0.661858C4.07947 0.661858 3.97055 0.68364 3.869 0.725948C3.76745 0.768255 3.67529 0.83025 3.59782 0.908357L1.09782 3.40836C1.01971 3.48583 0.957715 3.57799 0.915407 3.67954C0.8731 3.78109 0.851318 3.89001 0.851318 4.00002C0.851318 4.11003 0.8731 4.21895 0.915408 4.3205C0.957715 4.42205 1.01971 4.51422 1.09782 4.59169L3.59782 7.09169C3.75474 7.24861 3.96757 7.33677 4.18948 7.33677C4.4114 7.33677 4.62423 7.24861 4.78115 7.09169C4.93807 6.93477 5.02623 6.72194 5.02623 6.50002C5.02623 6.2781 4.93807 6.06528 4.78115 5.90836Z" fill="currentColor"/>
</svg>
