<svg width="14" height="14" viewBox="0 0 14 14" fill="none" xmlns="http://www.w3.org/2000/svg">
<path d="M12.6598 5.54668L3.32644 0.880014C2.9581 0.696687 2.54219 0.631421 2.1354 0.693115C1.72861 0.75481 1.35075 0.940461 1.05333 1.22476C0.75591 1.50906 0.553409 1.87816 0.473436 2.28175C0.393463 2.68535 0.439909 3.10378 0.606441 3.48001L2.20644 7.06001C2.24275 7.14657 2.26144 7.23949 2.26144 7.33335C2.26144 7.42721 2.24275 7.52013 2.20644 7.60668L0.606441 11.1867C0.470908 11.4912 0.413611 11.8247 0.439759 12.1569C0.465907 12.4892 0.574669 12.8096 0.756162 13.0892C0.937655 13.3687 1.18612 13.5984 1.47899 13.7575C1.77185 13.9166 2.09983 13.9999 2.43311 14C2.74526 13.9969 3.05277 13.924 3.33311 13.7867L12.6664 9.12001C12.9975 8.95347 13.2758 8.69822 13.4702 8.38273C13.6647 8.06725 13.7677 7.70394 13.7677 7.33335C13.7677 6.96275 13.6647 6.59945 13.4702 6.28396C13.2758 5.96848 12.9975 5.71322 12.6664 5.54668H12.6598ZM12.0664 7.92668L2.73311 12.5933C2.61055 12.6522 2.47293 12.6722 2.3387 12.6506C2.20447 12.629 2.08005 12.5669 1.98212 12.4726C1.88419 12.3783 1.81743 12.2563 1.79079 12.123C1.76416 11.9896 1.77893 11.8514 1.83311 11.7267L3.42644 8.14668C3.44707 8.09888 3.46488 8.0499 3.47977 8.00001H8.07311C8.24992 8.00001 8.41949 7.92978 8.54451 7.80475C8.66954 7.67973 8.73977 7.51016 8.73977 7.33335C8.73977 7.15654 8.66954 6.98697 8.54451 6.86194C8.41949 6.73692 8.24992 6.66668 8.07311 6.66668H3.47977C3.46488 6.61679 3.44707 6.56782 3.42644 6.52001L1.83311 2.94001C1.77893 2.81532 1.76416 2.67705 1.79079 2.54373C1.81743 2.41041 1.88419 2.28842 1.98212 2.19411C2.08005 2.09981 2.20447 2.0377 2.3387 2.01612C2.47293 1.99453 2.61055 2.0145 2.73311 2.07335L12.0664 6.74001C12.1756 6.79596 12.2673 6.88096 12.3313 6.98564C12.3953 7.09033 12.4291 7.21065 12.4291 7.33335C12.4291 7.45605 12.3953 7.57636 12.3313 7.68105C12.2673 7.78574 12.1756 7.87074 12.0664 7.92668Z" fill="currentColor"/>
</svg>
