<svg width="20" height="20" viewBox="0 0 20 20" fill="none" xmlns="http://www.w3.org/2000/svg">
<path d="M8.9 4.1C9.3 4 9.6 4 10 4C13.2 4 16.2 6.3 17.9 10C17.6 10.6 17.3 11.1 17 11.6C16.9 11.8 16.8 12 16.8 12.1C16.8 12.7 17.3 13.1 17.8 13.1C18.1 13.1 18.5 12.9 18.6 12.6C19.1 11.9 19.5 11.1 19.8 10.3C19.9 10 19.9 9.8 19.8 9.5C17.9 4.9 14.1 2 10 2C9.5 2 9.1 2 8.6 2.1C8.1 2.2 7.7 2.7 7.8 3.3C7.9 3.9 8.4 4.2 8.9 4.1ZM1.7 0.3C1.3 -0.1 0.7 -0.1 0.3 0.3C-0.1 0.7 -0.1 1.3 0.3 1.7L3.4 4.8C2 6.2 0.9 7.8 0.1 9.6C-7.45058e-09 9.9 -7.45058e-09 10.1 0.1 10.4C2.1 15.1 5.9 18 10 18C11.8 18 13.6 17.5 15 16.5L18.2 19.7C18.6 20.1 19.2 20.1 19.6 19.7C20 19.3 20 18.7 19.6 18.3L1.7 0.3ZM8.1 9.5L10.6 12C10.4 12 10.2 12 10 12C8.9 12 8 11.1 8 10C8 9.8 8 9.7 8.1 9.5ZM10 16C6.8 16 3.8 13.7 2.1 10C2.7 8.6 3.7 7.3 4.8 6.2L6.6 8C5.5 9.9 6.2 12.4 8.2 13.4C9.4 14.1 10.8 14.1 12 13.4L13.6 15C12.5 15.6 11.3 16 10 16Z" fill="currentColor"/>
</svg>
