<svg width="16" height="16" viewBox="0 0 16 16" fill="none" xmlns="http://www.w3.org/2000/svg">
<path d="M13.559 2.44083C12.8498 1.73181 11.8881 1.3335 10.8853 1.3335C9.88246 1.3335 8.92071 1.73181 8.21154 2.44083L2.47999 8.17237C2.1204 8.5216 1.83383 8.93883 1.63694 9.39981C1.44005 9.86079 1.33677 10.3563 1.33311 10.8576C1.32945 11.3588 1.42547 11.8558 1.6156 12.3196C1.80573 12.7834 2.08618 13.2048 2.44062 13.5592C2.79507 13.9137 3.21645 14.1941 3.68025 14.3842C4.14406 14.5744 4.64103 14.6704 5.14228 14.6667C5.64353 14.6631 6.13905 14.5598 6.60003 14.3629C7.061 14.166 7.47824 13.8794 7.82746 13.5198L13.559 7.7883C14.268 7.07913 14.6663 6.11738 14.6663 5.11456C14.6663 4.11175 14.268 3.15 13.559 2.44083ZM6.77865 12.4784C6.33847 12.8945 5.75574 13.1263 5.15004 13.1263C4.54434 13.1263 3.9616 12.8945 3.52142 12.4784C3.09158 12.0454 2.85037 11.46 2.85037 10.8498C2.85037 10.2396 3.09158 9.65423 3.52142 9.22119L5.87017 6.87243L9.1274 10.1297L6.77865 12.4784ZM12.5176 6.73949L10.1688 9.08824L6.9116 5.83101L9.26035 3.48225C9.69688 3.07331 10.2753 2.85012 10.8734 2.85987C11.4715 2.86963 12.0423 3.11156 12.4653 3.53452C12.8883 3.95749 13.1302 4.52834 13.14 5.12643C13.1497 5.72451 12.9265 6.30295 12.5176 6.73949Z" fill="#E1E1E1"/>
</svg>
