<svg width="11" height="13" viewBox="0 0 11 13" fill="none" xmlns="http://www.w3.org/2000/svg">
<path d="M9.32767 6.36273L5.55288 10.1436C5.05802 10.5834 4.41382 10.8175 3.75206 10.798C3.0903 10.7785 2.46098 10.507 1.99285 10.0388C1.52471 9.57068 1.25312 8.94137 1.23364 8.27961C1.21416 7.61784 1.44826 6.97365 1.88805 6.47878L6.7745 1.59233C7.06623 1.31521 7.45325 1.16069 7.85562 1.16069C8.258 1.16069 8.64501 1.31521 8.93675 1.59233C9.22099 1.88038 9.38035 2.26878 9.38035 2.67346C9.38035 3.07814 9.22099 3.46654 8.93675 3.75459L4.72219 7.96304C4.68048 8.00796 4.63033 8.04422 4.5746 8.06976C4.51888 8.0953 4.45867 8.10961 4.39741 8.11188C4.33616 8.11415 4.27505 8.10433 4.21759 8.08298C4.16013 8.06164 4.10744 8.02918 4.06252 7.98747C4.0176 7.94576 3.98134 7.89561 3.9558 7.83989C3.93026 7.78416 3.91595 7.72395 3.91368 7.6627C3.91141 7.60144 3.92123 7.54034 3.94257 7.48288C3.96392 7.42541 3.99638 7.37272 4.03809 7.3278L7.17152 4.20047C7.28654 4.08546 7.35115 3.92946 7.35115 3.7668C7.35115 3.60414 7.28654 3.44815 7.17152 3.33313C7.0565 3.21811 6.90051 3.1535 6.73785 3.1535C6.57519 3.1535 6.41919 3.21811 6.30418 3.33313L3.17074 6.47267C3.01395 6.62825 2.88951 6.81332 2.80458 7.01722C2.71966 7.22112 2.67594 7.43981 2.67594 7.66069C2.67594 7.88157 2.71966 8.10026 2.80458 8.30416C2.88951 8.50806 3.01395 8.69313 3.17074 8.84871C3.49103 9.1538 3.91642 9.32397 4.35876 9.32397C4.8011 9.32397 5.22649 9.1538 5.54678 8.84871L9.75523 4.63415C10.2407 4.1131 10.5051 3.42394 10.4925 2.71186C10.4799 1.99978 10.1915 1.32037 9.68788 0.816773C9.18428 0.313177 8.50487 0.0247108 7.79279 0.012147C7.08071 -0.000416876 6.39155 0.263903 5.8705 0.74942L0.984056 5.63587C0.325118 6.36568 -0.0268106 7.3216 0.00159496 8.30447C0.0300005 9.28733 0.43655 10.2213 1.13654 10.9119C1.83652 11.6024 2.77596 11.9962 3.75912 12.0113C4.74228 12.0263 5.69333 11.6614 6.41412 10.9926L10.195 7.21786C10.252 7.1609 10.2971 7.09329 10.328 7.01889C10.3588 6.94448 10.3746 6.86472 10.3746 6.78418C10.3746 6.70364 10.3588 6.62389 10.328 6.54948C10.2971 6.47507 10.252 6.40746 10.195 6.35051C10.1381 6.29356 10.0704 6.24838 9.99604 6.21756C9.92163 6.18674 9.84188 6.17088 9.76134 6.17088C9.6808 6.17088 9.60104 6.18674 9.52664 6.21756C9.45223 6.24838 9.38462 6.29356 9.32767 6.35051V6.36273Z" fill="#D5D5D5"/>
</svg>
