<svg width="43" height="43" viewBox="0 0 43 43" fill="none" xmlns="http://www.w3.org/2000/svg">
<path d="M28 16H26.72L26.4 15C26.1926 14.4133 25.8077 13.9055 25.2989 13.5472C24.7901 13.1888 24.1824 12.9976 23.56 13H18.44C17.8115 13.0012 17.1993 13.1997 16.6898 13.5675C16.1802 13.9353 15.799 14.4539 15.6 15.05L15.28 16.05H14C13.2044 16.05 12.4413 16.3661 11.8787 16.9287C11.3161 17.4913 11 18.2544 11 19.05V27.05C11 27.8457 11.3161 28.6087 11.8787 29.1713C12.4413 29.734 13.2044 30.05 14 30.05H28C28.7956 30.05 29.5587 29.734 30.1213 29.1713C30.6839 28.6087 31 27.8457 31 27.05V19.05C31.0066 18.6519 30.9339 18.2564 30.7862 17.8866C30.6384 17.5168 30.4184 17.1802 30.1392 16.8963C29.86 16.6124 29.527 16.387 29.1597 16.2331C28.7924 16.0792 28.3982 16 28 16ZM29 27C29 27.2652 28.8946 27.5196 28.7071 27.7071C28.5196 27.8947 28.2652 28 28 28H14C13.7348 28 13.4804 27.8947 13.2929 27.7071C13.1054 27.5196 13 27.2652 13 27V19C13 18.7348 13.1054 18.4805 13.2929 18.2929C13.4804 18.1054 13.7348 18 14 18H16C16.2181 18.0114 16.4339 17.9511 16.6144 17.8283C16.795 17.7055 16.9304 17.527 17 17.32L17.54 15.68C17.6071 15.4814 17.7349 15.3089 17.9054 15.1869C18.0758 15.0648 18.2804 14.9995 18.49 15H23.61C23.8196 14.9995 24.0242 15.0648 24.1946 15.1869C24.3651 15.3089 24.4929 15.4814 24.56 15.68L25.1 17.32C25.1642 17.5108 25.2844 17.6777 25.445 17.799C25.6055 17.9204 25.799 17.9904 26 18H28C28.2652 18 28.5196 18.1054 28.7071 18.2929C28.8946 18.4805 29 18.7348 29 19V27ZM21 18C20.2089 18 19.4355 18.2346 18.7777 18.6741C18.1199 19.1137 17.6072 19.7384 17.3045 20.4693C17.0017 21.2002 16.9225 22.0045 17.0769 22.7804C17.2312 23.5563 17.6122 24.269 18.1716 24.8284C18.731 25.3879 19.4437 25.7688 20.2196 25.9232C20.9956 26.0775 21.7998 25.9983 22.5307 25.6955C23.2616 25.3928 23.8864 24.8801 24.3259 24.2223C24.7654 23.5645 25 22.7911 25 22C25 20.9392 24.5786 19.9217 23.8284 19.1716C23.0783 18.4214 22.0609 18 21 18ZM21 24C20.6044 24 20.2178 23.8827 19.8889 23.663C19.56 23.4432 19.3036 23.1308 19.1522 22.7654C19.0009 22.3999 18.9613 21.9978 19.0384 21.6098C19.1156 21.2219 19.3061 20.8655 19.5858 20.5858C19.8655 20.3061 20.2219 20.1156 20.6098 20.0385C20.9978 19.9613 21.3999 20.0009 21.7654 20.1523C22.1308 20.3036 22.4432 20.56 22.6629 20.8889C22.8827 21.2178 23 21.6045 23 22C23 22.5305 22.7893 23.0392 22.4142 23.4142C22.0391 23.7893 21.5304 24 21 24Z" fill="black"/>
</svg>
