<svg width="35" height="35" viewBox="-6 -6 35 35" fill="none" xmlns="http://www.w3.org/2000/svg">
<path d="M5.19051 18.0051H9.40062C9.53129 18.0058 9.66084 17.9806 9.78181 17.9308C9.90279 17.8811 10.0128 17.8077 10.1056 17.7151L16.9768 10.7851L19.7968 8.00507C19.8899 7.9121 19.9637 7.8015 20.0141 7.67964C20.0645 7.55778 20.0905 7.42708 20.0905 7.29507C20.0905 7.16305 20.0645 7.03235 20.0141 6.91049C19.9637 6.78863 19.8899 6.67803 19.7968 6.58507L15.5867 2.29507C15.4944 2.20134 15.3846 2.12694 15.2636 2.07617C15.1426 2.02541 15.0128 1.99927 14.8817 1.99927C14.7506 1.99927 14.6208 2.02541 14.4998 2.07617C14.3788 2.12694 14.269 2.20134 14.1767 2.29507L11.3766 5.12507L4.48552 12.0551C4.39349 12.1485 4.32069 12.2593 4.27127 12.3812C4.22186 12.503 4.19681 12.6335 4.19757 12.7651V17.0051C4.19757 17.2703 4.30218 17.5246 4.48839 17.7122C4.67461 17.8997 4.92717 18.0051 5.19051 18.0051ZM14.8817 4.41507L17.6917 7.24507L16.2817 8.66507L13.4717 5.83507L14.8817 4.41507ZM6.18346 13.1751L12.0716 7.24507L14.8817 10.0751L8.99351 16.0051H6.18346V13.1751ZM21.0777 20.0051H3.20462C2.94127 20.0051 2.68871 20.1104 2.5025 20.298C2.31628 20.4855 2.21167 20.7398 2.21167 21.0051C2.21167 21.2703 2.31628 21.5246 2.5025 21.7122C2.68871 21.8997 2.94127 22.0051 3.20462 22.0051H21.0777C21.341 22.0051 21.5936 21.8997 21.7798 21.7122C21.966 21.5246 22.0706 21.2703 22.0706 21.0051C22.0706 20.7398 21.966 20.4855 21.7798 20.298C21.5936 20.1104 21.341 20.0051 21.0777 20.0051Z" fill="currentColor"/>
</svg>
