<svg width="20" height="20" viewBox="0 0 20 20" fill="none" xmlns="http://www.w3.org/2000/svg">
<path d="M2.00279 11.2219C2.0183 11.0832 2.09908 10.9618 2.21871 10.897L2.23472 10.8893C2.2716 10.8733 3.14354 10.4981 3.67786 10.4205C3.77918 10.4057 3.88579 10.4263 3.98347 10.477L5.77794 11.1349C6.12802 10.9486 7.45532 10.2428 9.01885 9.41734L5.32274 7.4021C5.21408 7.34284 5.15079 7.24123 5.15368 7.13032C5.15649 7.01949 5.2248 6.92155 5.33644 6.86836L6.58231 6.27374C6.70186 6.21671 6.89188 6.19416 7.02331 6.22319L12.7013 7.48586C13.8696 6.87903 14.8339 6.38696 15.236 6.20304C15.5311 6.06805 15.8899 6 16.3024 6C16.983 6 17.8157 6.20245 17.9695 6.50121C17.9756 6.51265 18.3818 7.75994 16.0355 9.15581L7.28527 13.7702C7.27653 13.7745 7.06787 13.8826 6.8649 13.9195C6.52142 13.9819 6.14947 14 5.76688 14H5.65599C5.60294 14 5.55079 14 5.49956 14H5.46498V13.9874C5.21746 13.9874 5.03561 13.8765 5.00641 13.8556L2.14446 11.5981L2.13769 11.5897C2.03579 11.4985 1.98744 11.3612 2.00279 11.2219ZM5.46523 13.7598H5.46515V13.7612L5.46523 13.7598Z" fill="black"/>
</svg>
