<svg width="43" height="43" viewBox="0 0 43 43" fill="none" xmlns="http://www.w3.org/2000/svg">
<path d="M22.1784 22.6501L19.5335 25.2835C19.4257 25.3904 19.3401 25.5176 19.2817 25.6578C19.2233 25.7979 19.1933 25.9482 19.1933 26.1C19.1933 26.2518 19.2233 26.4022 19.2817 26.5423C19.3401 26.6824 19.4257 26.8096 19.5335 26.9165C19.6404 27.0243 19.7675 27.1099 19.9077 27.1683C20.0478 27.2266 20.1981 27.2567 20.3499 27.2567C20.5018 27.2567 20.6521 27.2266 20.7922 27.1683C20.9323 27.1099 21.0595 27.0243 21.1664 26.9165L25.7664 22.3166C25.8711 22.2072 25.9532 22.0782 26.0079 21.9371C26.1229 21.6571 26.1229 21.343 26.0079 21.0631C25.9532 20.9219 25.8711 20.7929 25.7664 20.6836L21.1664 16.0836C21.0592 15.9764 20.9319 15.8913 20.7918 15.8333C20.6517 15.7752 20.5016 15.7454 20.3499 15.7454C20.1983 15.7454 20.0482 15.7752 19.9081 15.8333C19.768 15.8913 19.6407 15.9764 19.5335 16.0836C19.4262 16.1908 19.3412 16.3181 19.2831 16.4582C19.2251 16.5983 19.1952 16.7484 19.1952 16.9001C19.1952 17.0517 19.2251 17.2019 19.2831 17.342C19.3412 17.4821 19.4262 17.6094 19.5335 17.7166L22.1784 20.3501H11.15C10.845 20.3501 10.5525 20.4712 10.3368 20.6869C10.1212 20.9026 10 21.1951 10 21.5001C10 21.8051 10.1212 22.0976 10.3368 22.3132C10.5525 22.5289 10.845 22.6501 11.15 22.6501H22.1784ZM21.4999 10.0001C19.3507 9.99052 17.2418 10.5834 15.4124 11.7115C13.583 12.8396 12.1064 14.4578 11.15 16.3826C11.0127 16.6571 10.9902 16.9749 11.0872 17.266C11.1843 17.5572 11.393 17.7978 11.6675 17.9351C11.942 18.0723 12.2598 18.0949 12.5509 17.9979C12.8421 17.9008 13.0827 17.6921 13.22 17.4176C13.947 15.9494 15.0529 14.702 16.4233 13.8043C17.7938 12.9066 19.3791 12.3911 21.0155 12.3111C22.6519 12.2312 24.2799 12.5896 25.7314 13.3495C27.1828 14.1093 28.405 15.243 29.2717 16.6333C30.1384 18.0236 30.6181 19.6201 30.6613 21.2578C30.7044 22.8956 30.3094 24.5152 29.5171 25.9492C28.7249 27.3832 27.564 28.5796 26.1546 29.4148C24.7451 30.25 23.1382 30.6937 21.4999 30.7C19.7852 30.7074 18.103 30.2312 16.6466 29.3261C15.1902 28.4209 14.0185 27.1234 13.266 25.5825C13.1287 25.308 12.8881 25.0993 12.5969 25.0023C12.3058 24.9052 11.988 24.9278 11.7135 25.065C11.439 25.2023 11.2303 25.443 11.1332 25.7341C11.0362 26.0253 11.0587 26.343 11.196 26.6175C12.1077 28.4524 13.4931 30.0103 15.2089 31.1302C16.9246 32.25 18.9084 32.8912 20.955 32.9873C23.0016 33.0835 25.0367 32.6311 26.8499 31.6769C28.663 30.7228 30.1884 29.3016 31.2681 27.5603C32.3478 25.819 32.9427 23.8209 32.9913 21.7726C33.0398 19.7243 32.5403 17.7002 31.5443 15.9097C30.5483 14.1192 29.092 12.6274 27.3261 11.5884C25.5602 10.5494 23.5488 10.0011 21.4999 10.0001Z" fill="black"/>
</svg>
