<svg width="43" height="43" viewBox="0 0 43 43" fill="none" xmlns="http://www.w3.org/2000/svg">
<path d="M32.9614 19.3079C32.8889 19.0979 32.757 18.9133 32.5817 18.7768C32.4064 18.6402 32.1952 18.5574 31.9738 18.5385L25.4392 17.5853L22.5106 11.6478C22.4166 11.4537 22.2698 11.2899 22.087 11.1753C21.9042 11.0608 21.6928 11 21.4771 11C21.2613 11 21.0499 11.0608 20.8671 11.1753C20.6843 11.2899 20.5375 11.4537 20.4435 11.6478L17.5149 17.5738L10.9803 18.5385C10.7678 18.5687 10.568 18.6579 10.4035 18.7959C10.2391 18.9339 10.1167 19.1153 10.0501 19.3194C9.98918 19.5189 9.98371 19.7311 10.0343 19.9335C10.0849 20.1358 10.1896 20.3205 10.3372 20.4678L15.0803 25.0616L13.9318 31.5847C13.8908 31.8 13.9123 32.0226 13.9937 32.2261C14.0751 32.4296 14.213 32.6055 14.3912 32.7331C14.5649 32.8573 14.7697 32.9306 14.9827 32.9448C15.1957 32.959 15.4084 32.9135 15.5971 32.8135L21.4771 29.7472L27.3341 32.825C27.4953 32.916 27.6773 32.9634 27.8624 32.9628C28.1056 32.9637 28.3429 32.8873 28.5399 32.7446C28.7181 32.617 28.856 32.441 28.9374 32.2375C29.0188 32.034 29.0403 31.8115 28.9993 31.5962L27.8509 25.0731L32.5939 20.4793C32.7597 20.3388 32.8823 20.1542 32.9473 19.9468C33.0124 19.7395 33.0173 19.5179 32.9614 19.3079ZM25.8985 23.9017C25.7639 24.0319 25.6631 24.1932 25.605 24.3713C25.547 24.5495 25.5334 24.7392 25.5655 24.9238L26.3924 29.7357L22.0742 27.4389C21.9081 27.3504 21.7227 27.3041 21.5345 27.3041C21.3462 27.3041 21.1609 27.3504 20.9947 27.4389L16.6766 29.7357L17.5035 24.9238C17.5355 24.7392 17.522 24.5495 17.4639 24.3713C17.4059 24.1932 17.3051 24.0319 17.1704 23.9017L13.7251 20.4564L18.56 19.7558C18.7461 19.7299 18.9229 19.6588 19.0751 19.5487C19.2273 19.4386 19.3501 19.2928 19.4328 19.1242L21.4771 14.7486L23.6361 19.1357C23.7188 19.3043 23.8417 19.4501 23.9939 19.5602C24.146 19.6703 24.3229 19.7414 24.5089 19.7673L29.3438 20.4678L25.8985 23.9017Z" fill="currentColor"/>
</svg>
