<svg width="43" height="43" viewBox="0 0 43 43" fill="none" xmlns="http://www.w3.org/2000/svg">
<path d="M28.3 12H15.7C14.9839 12 14.2972 12.2845 13.7908 12.7908C13.2845 13.2972 13 13.9839 13 14.7V27.3C13 28.0161 13.2845 28.7028 13.7908 29.2092C14.2972 29.7155 14.9839 30 15.7 30H28.3C28.448 29.9979 28.5956 29.9829 28.741 29.955L29.011 29.892H29.074H29.119L29.452 29.766L29.569 29.703C29.659 29.649 29.758 29.604 29.848 29.541C29.9682 29.4526 30.0824 29.3564 30.19 29.253L30.253 29.172C30.3414 29.0825 30.4226 28.9862 30.496 28.884L30.577 28.767C30.6399 28.6668 30.6941 28.5614 30.739 28.452C30.7637 28.4088 30.7848 28.3637 30.802 28.317C30.847 28.209 30.874 28.092 30.91 27.975V27.84C30.961 27.6641 30.9912 27.4829 31 27.3V14.7C31 13.9839 30.7155 13.2972 30.2092 12.7908C29.7028 12.2845 29.0161 12 28.3 12ZM15.7 28.2C15.4613 28.2 15.2324 28.1052 15.0636 27.9364C14.8948 27.7676 14.8 27.5387 14.8 27.3V23.421L17.761 20.451C17.8447 20.3666 17.9442 20.2997 18.0539 20.254C18.1636 20.2083 18.2812 20.1848 18.4 20.1848C18.5188 20.1848 18.6364 20.2083 18.7461 20.254C18.8558 20.2997 18.9553 20.3666 19.039 20.451L26.779 28.2H15.7ZM29.2 27.3C29.1992 27.411 29.1778 27.5208 29.137 27.624C29.1164 27.6679 29.0924 27.71 29.065 27.75C29.0409 27.7881 29.0138 27.8242 28.984 27.858L24.169 23.043L24.961 22.251C25.0447 22.1666 25.1442 22.0997 25.2539 22.054C25.3636 22.0083 25.4812 21.9848 25.6 21.9848C25.7188 21.9848 25.8364 22.0083 25.9461 22.054C26.0558 22.0997 26.1553 22.1666 26.239 22.251L29.2 25.221V27.3ZM29.2 22.674L27.508 21C26.9929 20.5113 26.31 20.2389 25.6 20.2389C24.89 20.2389 24.2071 20.5113 23.692 21L22.9 21.792L20.308 19.2C19.7929 18.7113 19.11 18.4389 18.4 18.4389C17.69 18.4389 17.0071 18.7113 16.492 19.2L14.8 20.874V14.7C14.8 14.4613 14.8948 14.2324 15.0636 14.0636C15.2324 13.8948 15.4613 13.8 15.7 13.8H28.3C28.5387 13.8 28.7676 13.8948 28.9364 14.0636C29.1052 14.2324 29.2 14.4613 29.2 14.7V22.674Z" fill="currentColor"/>
</svg>
