<svg width="20" height="20" viewBox="0 0 20 20" fill="none" xmlns="http://www.w3.org/2000/svg">
<path d="M4.1665 15H7.69984C7.80951 15.0007 7.91823 14.9796 8.01976 14.9382C8.12129 14.8967 8.21364 14.8356 8.2915 14.7584L14.0582 8.98336L16.4248 6.6667C16.5029 6.58923 16.5649 6.49706 16.6072 6.39551C16.6496 6.29396 16.6713 6.18504 16.6713 6.07503C16.6713 5.96502 16.6496 5.8561 16.6072 5.75455C16.5649 5.653 16.5029 5.56083 16.4248 5.48336L12.8915 1.90836C12.814 1.83026 12.7219 1.76826 12.6203 1.72595C12.5188 1.68365 12.4098 1.66187 12.2998 1.66187C12.1898 1.66187 12.0809 1.68365 11.9794 1.72595C11.8778 1.76826 11.7856 1.83026 11.7082 1.90836L9.35817 4.2667L3.57484 10.0417C3.4976 10.1196 3.4365 10.2119 3.39503 10.3134C3.35356 10.415 3.33254 10.5237 3.33317 10.6334V14.1667C3.33317 14.3877 3.42097 14.5997 3.57725 14.756C3.73353 14.9122 3.94549 15 4.1665 15ZM12.2998 3.67503L14.6582 6.03336L13.4748 7.2167L11.1165 4.85836L12.2998 3.67503ZM4.99984 10.975L9.9415 6.03336L12.2998 8.3917L7.35817 13.3334H4.99984V10.975ZM17.4998 16.6667H2.49984C2.27882 16.6667 2.06686 16.7545 1.91058 16.9108C1.7543 17.0671 1.6665 17.279 1.6665 17.5C1.6665 17.721 1.7543 17.933 1.91058 18.0893C2.06686 18.2456 2.27882 18.3334 2.49984 18.3334H17.4998C17.7209 18.3334 17.9328 18.2456 18.0891 18.0893C18.2454 17.933 18.3332 17.721 18.3332 17.5C18.3332 17.279 18.2454 17.0671 18.0891 16.9108C17.9328 16.7545 17.7209 16.6667 17.4998 16.6667Z" fill="#13192E"/>
</svg>
