<svg width="16" height="19" viewBox="0 0 16 19" fill="none" xmlns="http://www.w3.org/2000/svg">
<path d="M4.5421 18.0157H11.4654C12.6255 18.0157 13.3713 17.3151 13.4316 16.1549L13.9363 5.30671H14.765C15.1492 5.30671 15.443 5.00537 15.443 4.6287C15.443 4.25202 15.1417 3.96575 14.765 3.96575H11.4202V2.83573C11.4202 1.67557 10.6819 0.997559 9.42379 0.997559H6.56107C5.30298 0.997559 4.5647 1.67557 4.5647 2.83573V3.96575H1.2349C0.858224 3.96575 0.556885 4.25956 0.556885 4.6287C0.556885 5.0129 0.858224 5.30671 1.2349 5.30671H2.06358L2.56832 16.1549C2.62859 17.3226 3.36687 18.0157 4.5421 18.0157ZM5.97346 2.90353C5.97346 2.51932 6.24466 2.27072 6.65901 2.27072H9.32586C9.7402 2.27072 10.0114 2.51932 10.0114 2.90353V3.96575H5.97346V2.90353ZM4.69277 16.6672C4.27843 16.6672 3.97709 16.3583 3.95449 15.9139L3.44974 5.30671H12.5276L12.0379 15.9139C12.0228 16.3659 11.729 16.6672 11.2996 16.6672H4.69277ZM5.77759 15.4543C6.10153 15.4543 6.30493 15.2509 6.2974 14.9496L6.07139 7.06954C6.06386 6.76821 5.85292 6.57234 5.54405 6.57234C5.22764 6.57234 5.02424 6.77574 5.03177 7.07708L5.25778 14.9571C5.26531 15.2584 5.47625 15.4543 5.77759 15.4543ZM7.99997 15.4543C8.31637 15.4543 8.53484 15.2584 8.53484 14.9571V7.07708C8.53484 6.77574 8.31637 6.57234 7.99997 6.57234C7.68356 6.57234 7.47262 6.77574 7.47262 7.07708V14.9571C7.47262 15.2584 7.68356 15.4543 7.99997 15.4543ZM10.2223 15.4618C10.5237 15.4618 10.7346 15.2584 10.7422 14.9571L10.9682 7.07708C10.9757 6.77574 10.7723 6.57987 10.4559 6.57987C10.147 6.57987 9.93607 6.77574 9.92854 7.07708L9.70253 14.9571C9.695 15.2509 9.8984 15.4618 10.2223 15.4618Z" fill="currentColor"/>
</svg>
