<svg width="27" height="28" viewBox="0 0 27 28" fill="none" xmlns="http://www.w3.org/2000/svg">
<path d="M21.0488 8.12306C20.9442 8.01761 20.8197 7.93392 20.6827 7.8768C20.5456 7.81969 20.3985 7.79028 20.25 7.79028C20.1015 7.79028 19.9544 7.81969 19.8174 7.8768C19.6803 7.93392 19.5558 8.01761 19.4513 8.12306L11.07 16.5156L7.54875 12.9831C7.44017 12.8782 7.31198 12.7957 7.17152 12.7403C7.03106 12.685 6.88107 12.6578 6.73012 12.6604C6.57916 12.6631 6.4302 12.6954 6.29174 12.7556C6.15328 12.8157 6.02802 12.9026 5.92313 13.0112C5.81824 13.1198 5.73576 13.248 5.6804 13.3884C5.62505 13.5289 5.5979 13.6789 5.60051 13.8298C5.60313 13.9808 5.63544 14.1297 5.69562 14.2682C5.7558 14.4067 5.84267 14.5319 5.95125 14.6368L10.2713 18.9568C10.3758 19.0623 10.5003 19.1459 10.6374 19.2031C10.7744 19.2602 10.9215 19.2896 11.07 19.2896C11.2185 19.2896 11.3656 19.2602 11.5027 19.2031C11.6397 19.1459 11.7642 19.0623 11.8688 18.9568L21.0488 9.77681C21.1629 9.67146 21.2541 9.5436 21.3164 9.40129C21.3787 9.25898 21.4109 9.1053 21.4109 8.94993C21.4109 8.79457 21.3787 8.64089 21.3164 8.49857C21.2541 8.35626 21.1629 8.2284 21.0488 8.12306Z" fill="white"/>
</svg>
