<svg width="22" height="12" viewBox="0 0 22 12" fill="none" xmlns="http://www.w3.org/2000/svg">
<path d="M20.7099 1.29C20.617 1.19627 20.5064 1.12188 20.3845 1.07111C20.2627 1.02034 20.132 0.994202 19.9999 0.994202C19.8679 0.994202 19.7372 1.02034 19.6154 1.07111C19.4935 1.12188 19.3829 1.19627 19.2899 1.29L12.9999 7.59L8.70994 3.29C8.61698 3.19627 8.50637 3.12188 8.38452 3.07111C8.26266 3.02034 8.13195 2.9942 7.99994 2.9942C7.86793 2.9942 7.73722 3.02034 7.61536 3.07111C7.4935 3.12188 7.3829 3.19627 7.28994 3.29L1.28994 9.29C1.19621 9.38296 1.12182 9.49356 1.07105 9.61542C1.02028 9.73728 0.994141 9.86799 0.994141 10C0.994141 10.132 1.02028 10.2627 1.07105 10.3846C1.12182 10.5064 1.19621 10.617 1.28994 10.71C1.3829 10.8037 1.4935 10.8781 1.61536 10.9289C1.73722 10.9797 1.86793 11.0058 1.99994 11.0058C2.13195 11.0058 2.26266 10.9797 2.38452 10.9289C2.50637 10.8781 2.61698 10.8037 2.70994 10.71L7.99994 5.41L12.2899 9.71C12.3829 9.80373 12.4935 9.87812 12.6154 9.92889C12.7372 9.97966 12.8679 10.0058 12.9999 10.0058C13.132 10.0058 13.2627 9.97966 13.3845 9.92889C13.5064 9.87812 13.617 9.80373 13.7099 9.71L20.7099 2.71C20.8037 2.61704 20.8781 2.50644 20.9288 2.38458C20.9796 2.26272 21.0057 2.13201 21.0057 2C21.0057 1.86799 20.9796 1.73728 20.9288 1.61542C20.8781 1.49356 20.8037 1.38296 20.7099 1.29Z" fill="#13192E"/>
</svg>
