<svg width="16" height="16" viewBox="0 0 16 16" fill="none" xmlns="http://www.w3.org/2000/svg">
<path d="M8.00844 2C7.22162 2 6.4425 2.15498 5.71557 2.45608C4.98865 2.75718 4.32814 3.19852 3.77177 3.75489C2.64814 4.87852 2.01689 6.4025 2.01689 7.99156C2.01165 9.37509 2.4907 10.7168 3.37098 11.7842L2.17267 12.9825C2.08953 13.0668 2.03321 13.1738 2.01082 13.29C1.98843 13.4062 2.00096 13.5265 2.04685 13.6356C2.09661 13.7434 2.17728 13.834 2.27863 13.8959C2.37997 13.9577 2.49741 13.9881 2.61604 13.9831H8.00844C9.5975 13.9831 11.1215 13.3519 12.2451 12.2282C13.3687 11.1046 14 9.58062 14 7.99156C14 6.4025 13.3687 4.87852 12.2451 3.75489C11.1215 2.63125 9.5975 2 8.00844 2ZM8.00844 12.7848H4.06001L4.61722 12.2276C4.72882 12.1153 4.79145 11.9635 4.79145 11.8052C4.79145 11.6469 4.72882 11.495 4.61722 11.3828C3.83268 10.5991 3.34412 9.56766 3.23479 8.46417C3.12545 7.36067 3.4021 6.25341 4.0176 5.33102C4.63311 4.40863 5.54938 3.72818 6.61032 3.4056C7.67126 3.08303 8.81123 3.13828 9.836 3.56195C10.8608 3.98562 11.7069 4.75149 12.2304 5.72908C12.7538 6.70667 12.922 7.8355 12.7065 8.92325C12.491 10.011 11.9049 10.9904 11.0483 11.6945C10.1916 12.3986 9.11734 12.7839 8.00844 12.7848Z" fill="#E1E1E1"/>
</svg>
