<svg width="19" height="19" viewBox="0 0 19 19" fill="none" xmlns="http://www.w3.org/2000/svg">
<path d="M0.363706 5.56715C-0.333539 6.21973 0.0284923 6.65264 0.967092 6.39419C3.18621 5.78037 7.01435 4.92749 8.75747 5.72868C8.75747 5.72868 3.66221 9.62479 4.4265 17.3201C4.52036 18.257 5.24442 19 5.94837 19C6.64562 19 7.11492 18.244 7.11492 17.3072C7.10821 15.1879 7.48365 11.2336 9.71618 6.36834C9.71618 6.36834 11.3788 8.4747 11.875 10.7684C12.0761 11.6859 12.4448 11.8151 12.7063 10.9106C12.9879 9.91554 13.0817 8.54577 12.2504 7.11138C12.2504 7.11138 15.4215 8.76545 17.4864 10.9041C18.1502 11.589 18.5457 11.4727 18.2842 10.5681C17.7412 8.66853 16.1322 5.72222 11.399 4.8435C11.399 4.8435 13.2225 3.99062 15.4282 4.07461C16.4003 4.11338 16.7221 3.67402 15.8573 3.24112C14.8047 2.71776 13.0013 2.36886 10.0782 3.18297C10.0782 3.18297 8.67031 -0.13163 4.1114 0.00405493C3.14598 0.036361 3.09905 0.495107 3.97731 0.908624C5.48578 1.61936 7.57751 2.76299 7.98647 3.82263C7.98647 3.82263 3.29348 2.83406 0.363706 5.56715Z" fill="#13192E"/>
</svg>
