<svg width="21" height="22" viewBox="0 0 21 22" fill="none" xmlns="http://www.w3.org/2000/svg">
<path fill-rule="evenodd" clip-rule="evenodd" d="M6.87877 19.7749C8.01316 19.8083 9.11939 19.4352 10 18.7275L11.0652 20.6975C9.85509 21.5614 8.39385 22.0222 6.89172 21.9992C5.08927 21.9716 3.36696 21.2496 2.08365 19.9836C0.800341 18.7176 0.055001 17.0053 0.0029241 15.2034C-0.0491528 13.4015 0.59605 11.6489 1.8041 10.3109L10.7626 1.35245C11.7178 0.462338 12.9813 -0.0222486 14.2868 0.000785079C15.5923 0.0238188 16.8378 0.552674 17.7611 1.47593C18.6844 2.39919 19.2132 3.64477 19.2363 4.95025C19.2593 6.25574 18.7747 7.5192 17.8846 8.47445L10.1691 16.2011C9.58189 16.7605 8.80202 17.0725 7.99106 17.0725C7.1801 17.0725 6.40022 16.7605 5.81303 16.2011C5.52558 15.9159 5.29743 15.5766 5.14173 15.2028C4.98604 14.829 4.90588 14.4281 4.90588 14.0231C4.90588 13.6182 4.98604 13.2172 5.14173 12.8434C5.29743 12.4696 5.52558 12.1303 5.81303 11.8451L11.5577 6.08925C11.7685 5.87839 12.0545 5.75993 12.3527 5.75993C12.6509 5.75993 12.9369 5.87839 13.1478 6.08925C13.3587 6.30012 13.4771 6.58611 13.4771 6.88432C13.4771 7.18253 13.3587 7.46852 13.1478 7.67939L7.40316 13.4128C7.32669 13.4952 7.26719 13.5918 7.22805 13.6971C7.18892 13.8025 7.17092 13.9145 7.17508 14.0268C7.17924 14.1391 7.20548 14.2495 7.2523 14.3516C7.29912 14.4538 7.3656 14.5457 7.44795 14.6222C7.5303 14.6987 7.62691 14.7582 7.73225 14.7973C7.8376 14.8364 7.94962 14.8545 8.06192 14.8503C8.17423 14.8461 8.28461 14.8199 8.38677 14.7731C8.48894 14.7263 8.58088 14.6598 8.65735 14.5774L16.384 6.86192C16.9051 6.33383 17.1973 5.62177 17.1973 4.87986C17.1973 4.13795 16.9051 3.42588 16.384 2.89779C15.8492 2.38973 15.1397 2.10646 14.402 2.10646C13.6643 2.10646 12.9548 2.38973 12.4199 2.89779L3.46142 11.8563C2.65514 12.7635 2.22596 13.9446 2.26168 15.1578C2.29739 16.371 2.7953 17.5248 3.65355 18.383C4.51181 19.2413 5.66555 19.7392 6.87877 19.7749ZM16 15C16 14.4477 16.4477 14 17 14C17.5523 14 18 14.4477 18 15V17H20C20.5523 17 21 17.4477 21 18C21 18.5523 20.5523 19 20 19H18V21C18 21.5523 17.5523 22 17 22C16.4477 22 16 21.5523 16 21V19H14C13.4477 19 13 18.5523 13 18C13 17.4477 13.4477 17 14 17H16V15Z" fill="black"/>
</svg>
