<svg width="13" height="14" viewBox="0 0 13 14" fill="none" xmlns="http://www.w3.org/2000/svg">
<path fill-rule="evenodd" clip-rule="evenodd" d="M4.25829 12.584C4.96053 12.6053 5.64534 12.3679 6.19048 11.9175L6.84988 13.1712C6.10077 13.7209 5.19619 14.0141 4.2663 13.9995C3.1505 13.9819 2.08431 13.5225 1.28988 12.7168C0.495449 11.9112 0.0340482 10.8215 0.00181015 9.67487C-0.0304279 8.5282 0.368983 7.41296 1.11683 6.56151L6.66256 0.860652C7.2539 0.294215 8.03605 -0.0141582 8.8442 0.000499596C9.65236 0.0151574 10.4234 0.351702 10.995 0.93923C11.5665 1.52676 11.8939 2.3194 11.9082 3.15016C11.9224 3.98092 11.6224 4.78494 11.0714 5.39283L6.29515 10.3098C5.93165 10.6658 5.44887 10.8643 4.94685 10.8643C4.44482 10.8643 3.96204 10.6658 3.59854 10.3098C3.42059 10.1283 3.27936 9.9124 3.18298 9.67451C3.0866 9.43663 3.03698 9.18149 3.03698 8.9238C3.03698 8.66611 3.0866 8.41097 3.18298 8.17308C3.27936 7.9352 3.42059 7.71928 3.59854 7.53778L7.15474 3.87498C7.28528 3.74079 7.46232 3.66541 7.64692 3.66541C7.83153 3.66541 8.00857 3.74079 8.13911 3.87498C8.26964 4.00917 8.34298 4.19116 8.34298 4.38093C8.34298 4.5707 8.26964 4.75269 8.13911 4.88688L4.58291 8.53543C4.53557 8.58783 4.49874 8.64931 4.47451 8.71635C4.45028 8.78339 4.43914 8.85467 4.44172 8.92614C4.44429 8.99761 4.46053 9.06785 4.48952 9.13286C4.5185 9.19787 4.55966 9.25638 4.61064 9.30504C4.66161 9.35371 4.72142 9.39157 4.78663 9.41647C4.85185 9.44138 4.92119 9.45283 4.99072 9.45018C5.06024 9.44754 5.12857 9.43084 5.19181 9.40105C5.25506 9.37125 5.31197 9.32895 5.35931 9.27654L10.1425 4.36668C10.4651 4.03062 10.646 3.57749 10.646 3.10536C10.646 2.63324 10.4651 2.18011 10.1425 1.84405C9.81141 1.52074 9.37218 1.34047 8.91551 1.34047C8.45884 1.34047 8.01961 1.52074 7.68852 1.84405L2.14279 7.5449C1.64366 8.12225 1.37798 8.87381 1.40009 9.64587C1.42219 10.4179 1.73042 11.1521 2.26172 11.6983C2.79302 12.2444 3.50724 12.5613 4.25829 12.584ZM9.90476 9.54545C9.90476 9.194 10.1819 8.90909 10.5238 8.90909C10.8657 8.90909 11.1429 9.194 11.1429 9.54545V10.8182H12.381C12.7228 10.8182 13 11.1031 13 11.4545C13 11.806 12.7228 12.0909 12.381 12.0909H11.1429V13.3636C11.1429 13.7151 10.8657 14 10.5238 14C10.1819 14 9.90476 13.7151 9.90476 13.3636V12.0909H8.66667C8.32478 12.0909 8.04762 11.806 8.04762 11.4545C8.04762 11.1031 8.32478 10.8182 8.66667 10.8182H9.90476V9.54545Z" fill="#FF8B3F"/>
</svg>
