<svg width="43" height="43" viewBox="0 0 43 43" fill="none" xmlns="http://www.w3.org/2000/svg">
<path d="M30.339 13.661C29.2752 12.5975 27.8326 12 26.3284 12C24.8242 12 23.3816 12.5975 22.3178 13.661L13.7205 22.2583C13.1811 22.7822 12.7512 23.408 12.4559 24.0995C12.1606 24.7909 12.0056 25.5342 12.0002 26.2861C11.9947 27.038 12.1387 27.7834 12.4239 28.4791C12.7091 29.1748 13.1298 29.8069 13.6614 30.3386C14.1931 30.8702 14.8252 31.2909 15.5209 31.5761C16.2166 31.8613 16.962 32.0053 17.7139 31.9998C18.4658 31.9944 19.2091 31.8394 19.9005 31.5441C20.592 31.2488 21.2178 30.8189 21.7417 30.2795L30.339 21.6822C31.4025 20.6184 32 19.1758 32 17.6716C32 16.1674 31.4025 14.7248 30.339 13.661ZM20.1685 28.7174C19.5082 29.3415 18.6341 29.6892 17.7255 29.6892C16.817 29.6892 15.9429 29.3415 15.2826 28.7174C14.6379 28.0678 14.276 27.1897 14.276 26.2745C14.276 25.3592 14.6379 24.4811 15.2826 23.8315L18.8057 20.3084L23.6916 25.1943L20.1685 28.7174ZM28.7769 20.109L25.2537 23.6321L20.3679 18.7463L23.891 15.2231C24.5458 14.6097 25.4135 14.2749 26.3106 14.2896C27.2077 14.3042 28.064 14.6671 28.6985 15.3015C29.3329 15.936 29.6958 16.7923 29.7104 17.6894C29.7251 18.5865 29.3903 19.4542 28.7769 20.109Z" fill="#FF8B3F"/>
</svg>
