<svg width="10" height="10" viewBox="0 0 10 10" fill="none" xmlns="http://www.w3.org/2000/svg">
<path d="M5.85222 0.547827C5.7381 0.438578 5.60353 0.35294 5.45622 0.295827C5.16407 0.175805 4.83638 0.175805 4.54422 0.295827C4.39692 0.35294 4.26235 0.438578 4.14822 0.547827L0.548223 4.14783C0.322258 4.37379 0.195312 4.68026 0.195312 4.99983C0.195312 5.31939 0.322258 5.62586 0.548223 5.85183C0.774187 6.07779 1.08066 6.20474 1.40022 6.20474C1.71978 6.20474 2.02626 6.07779 2.25222 5.85183L3.80022 4.29183V8.59983C3.80022 8.91809 3.92665 9.22331 4.1517 9.44835C4.37674 9.6734 4.68196 9.79983 5.00022 9.79983C5.31848 9.79983 5.62371 9.6734 5.84875 9.44835C6.07379 9.22331 6.20022 8.91809 6.20022 8.59983V4.29183L7.74822 5.85183C7.85978 5.9643 7.9925 6.05357 8.13873 6.1145C8.28496 6.17542 8.44181 6.20678 8.60022 6.20678C8.75864 6.20678 8.91548 6.17542 9.06172 6.1145C9.20795 6.05357 9.34067 5.9643 9.45222 5.85183C9.5647 5.74027 9.65397 5.60755 9.71489 5.46132C9.77582 5.31509 9.80718 5.15824 9.80718 4.99983C9.80718 4.84141 9.77582 4.68457 9.71489 4.53833C9.65397 4.3921 9.5647 4.25938 9.45222 4.14783L5.85222 0.547827Z" fill="currentColor"/>
</svg>
