<svg width="78" height="123" viewBox="0 0 78 123" fill="none" xmlns="http://www.w3.org/2000/svg">
<path opacity="0.03" d="M95.6476 -18.1819C93.9378 -15.3466 92.4661 -12.3381 91.8601 -8.94006C91.4705 -6.68912 91.5354 -4.3516 91.7735 -2.1223C92.1847 1.99001 93.743 6.6867 96.1237 10.2363C97.2058 11.8379 98.5044 13.3746 99.9545 14.7165C97.682 14.8247 95.258 14.9762 92.7258 15.2143C92.6176 15.2143 92.5094 15.236 92.4012 15.2576C92.3795 15.236 92.3795 15.1927 92.3579 15.171C89.263 8.7212 86.3196 2.14152 84.5665 -4.71954C84.2635 -5.8883 84.0038 -7.05706 83.9172 -8.3124C83.6792 -11.7321 84.9128 -15.7578 86.8823 -18.6581C86.4061 -18.5499 85.8001 -17.6625 85.3024 -16.84C83.5926 -14.0047 82.1209 -10.9962 81.5149 -7.59815C81.1253 -5.34721 81.1903 -3.00969 81.4283 -0.780386C81.8395 3.33192 83.3978 8.0286 85.7785 11.5782C86.7524 13.0283 87.8778 14.3919 89.1331 15.6472C87.1853 15.8636 85.2158 16.1234 83.1814 16.4697C82.4023 16.6212 81.6015 16.7727 80.8007 16.9242C77.208 10.8856 73.7452 4.69547 71.4078 -1.88421C70.9966 -3.00969 70.6503 -4.15681 70.4339 -5.41214C69.8928 -8.8102 70.7585 -12.9442 72.4683 -16.0392C72.0138 -15.8877 71.4727 -14.9354 71.0615 -14.0696C69.6331 -11.0611 68.4211 -7.90117 68.1397 -4.45982C67.9449 -2.16558 68.2263 0.150293 68.6592 2.35795C69.4383 6.40533 71.3861 10.9289 74.0915 14.2403C75.087 15.474 76.2341 16.6428 77.4677 17.6817C76.0393 18.0064 74.5892 18.3743 73.1608 18.7639C71.2779 19.2833 69.3734 19.8677 67.4688 20.4737C67.2307 20.1274 66.9494 19.7595 66.668 19.3916C62.2529 13.8724 57.946 8.18011 54.7213 1.92508C54.1802 0.864536 53.6608 -0.217649 53.2929 -1.4297C52.2973 -4.71954 52.6219 -8.94006 53.8772 -12.2948C53.4444 -12.0784 53.0548 -11.0395 52.7518 -10.1305C51.7346 -7.01377 50.9771 -3.68064 51.1502 -0.217648C51.2584 2.07659 51.8428 4.34917 52.557 6.47026C53.8772 10.3878 56.4094 14.565 59.5043 17.4436C61.1059 18.937 62.9455 20.2573 64.915 21.2529C64.2873 21.4693 63.6597 21.6641 63.0321 21.8806C60.8894 22.6381 58.7901 23.4822 56.7124 24.3913C56.4527 24.1532 56.1713 23.8934 55.89 23.6554C50.6092 19.0885 45.4149 14.3269 41.173 8.80778C40.4588 7.8771 39.7662 6.90313 39.2035 5.77766C37.6669 2.72589 37.234 -1.51627 37.8833 -5.06584C37.4937 -4.76283 37.2773 -3.68064 37.1691 -2.70668C36.7362 0.648098 36.5631 4.08945 37.3206 7.46587C37.84 9.71681 38.7923 11.8379 39.8744 13.7858C41.8439 17.3787 45.047 21.0148 48.5748 23.2225C50.198 24.2397 51.9727 25.0839 53.8123 25.6682C50.9338 27.0101 48.1852 28.4819 45.5664 30.0619C45.35 29.932 45.1336 29.8022 44.9172 29.6507C38.9871 26.1444 33.1003 22.465 28.0142 17.8116C27.1485 17.0107 26.3045 16.2099 25.5686 15.1927C23.5558 12.4872 22.4088 8.3749 22.4521 4.73876C22.1274 5.1067 22.1058 6.23218 22.1491 7.22779C22.2789 10.6259 22.6901 14.0672 24.0103 17.2488C24.8977 19.3699 26.1962 21.2746 27.5597 23.0061C30.0919 26.1877 33.8361 29.1529 37.6669 30.6679C39.2035 31.2739 40.8483 31.7285 42.5148 31.9882C42.3633 32.0964 42.1902 32.2046 42.017 32.3128C41.3461 32.789 40.6535 33.2652 40.0043 33.7413C39.3766 34.2175 38.749 34.6937 38.143 35.1698C37.6885 34.8668 37.1041 34.6287 36.5414 34.369C29.8971 31.577 23.2745 28.5685 17.366 24.4345C16.3705 23.7419 15.3749 22.9844 14.4876 22.0537C12.0203 19.4998 10.3105 15.3658 9.89931 11.5349C9.59632 11.9894 9.72617 13.1582 9.89931 14.1754C10.4837 17.725 11.3494 21.2529 13.1457 24.4129C14.3361 26.5123 15.9376 28.3304 17.6041 29.932C20.6557 32.8972 24.941 35.4512 29.118 36.4684C31.2823 36.9879 33.5764 37.2476 35.8705 37.1177C33.7062 39.0657 31.8017 41.0569 30.1785 43.0698C29.7673 43.5892 29.3561 44.1087 28.9881 44.6065C28.9449 44.5632 28.9449 44.5199 28.8799 44.4766C28.4038 44.0221 27.603 43.6758 26.8239 43.3511C20.1796 40.5591 13.5569 37.5506 7.64848 33.4167C6.65292 32.7241 5.65735 31.9665 4.77 31.0359C2.30274 28.4819 0.592969 24.348 0.181758 20.517C-0.121239 20.9715 0.00861669 22.1403 0.181758 23.1576C0.76611 26.7071 1.63182 30.2351 3.42816 33.395C4.6185 35.4945 6.22006 37.3125 7.88655 38.9142C10.9382 41.8794 15.2234 44.4333 19.4221 45.4506C21.6296 45.9917 23.9454 46.2514 26.2612 46.0999C26.9104 46.0566 27.5381 45.9917 28.0792 45.9051C27.2784 47.0522 26.5642 48.1993 25.9365 49.2815C24.8111 51.2294 23.9887 53.0475 23.3827 54.5626C23.2312 54.9738 23.0797 55.3418 22.9498 55.7097C22.3006 55.4067 21.1751 57.3763 20.1363 59.3458C18.4482 62.614 17.128 66.2935 16.1324 70.0595C14.2711 77.2019 13.7734 86.0758 14.4659 93.478C14.8555 97.5037 15.4398 101.659 16.6085 105.49C18.34 111.247 21.0453 116.009 23.9454 120.381C24.7895 121.658 25.8067 123 26.4127 123C23.1446 118.585 20.4393 111.962 19.7251 105.837C19.4654 103.564 19.4221 101.4 19.4654 99.2352C19.5952 86.4654 21.2617 73.7606 23.123 61.2288C23.3394 59.7354 23.5558 58.2204 23.4476 57.0732C23.4043 56.6404 23.3394 56.3374 23.2528 56.1209C23.426 55.7097 23.5991 55.2552 23.8155 54.779C24.4648 53.3072 25.3305 51.5541 26.5209 49.6927C26.759 49.3032 27.0403 48.8919 27.3 48.4807C27.2351 48.7404 27.1702 48.9785 27.1269 49.2382C26.4343 52.3116 26.1313 55.6448 26.1097 58.9346C26.0664 65.2113 27.5164 72.5702 29.5941 78.4572C30.7412 81.6605 32.083 84.9071 33.7928 87.764C36.3683 92.0495 39.5498 95.3177 42.7962 98.1963C43.7484 99.0404 44.8306 99.8845 45.3284 99.7547C41.779 96.9193 38.2296 92.1361 36.3683 87.3095C35.6974 85.5131 35.2212 83.7599 34.7884 81.9852C32.2562 71.5096 30.9576 60.731 29.8755 50.0607C29.7456 48.7837 29.5941 47.4851 29.2911 46.5977C29.2046 46.3596 29.1396 46.1865 29.0531 46.035C29.6374 45.2774 30.2434 44.5199 30.9143 43.7624C32.689 41.7279 34.7884 39.715 37.1474 37.8103C37.1907 37.7671 37.234 37.7454 37.2773 37.7021C37.2124 37.9186 37.1258 38.135 37.0609 38.3731C36.1086 41.3599 35.4809 44.6281 35.178 47.8963C34.572 54.1297 35.3511 61.5968 36.9094 67.657C37.7534 70.9469 38.8139 74.3233 40.264 77.3318C42.4499 81.8553 45.3284 85.4265 48.315 88.6298C49.1808 89.5605 50.198 90.5128 50.6957 90.4262C47.4061 87.2446 44.2895 82.1367 42.8827 77.137C42.3633 75.2973 42.0603 73.5008 41.779 71.6828C40.199 61.034 39.8744 50.1906 39.7446 39.4769C39.7229 38.2216 39.7013 36.9446 39.4848 36.0139C39.9393 35.6676 40.4155 35.343 40.8916 34.9967C41.5409 34.5421 42.2118 34.1093 42.8827 33.6548C43.5753 33.2219 44.2679 32.789 44.9821 32.3561C45.0903 32.2912 45.1985 32.2479 45.3067 32.183C45.5448 32.183 45.7396 32.183 45.956 32.1613C45.8261 32.5293 45.6963 32.9189 45.5664 33.3085C44.6142 36.2953 43.9865 39.5635 43.6835 42.8317C43.0775 49.0651 43.8567 56.5322 45.4149 62.5924C46.259 65.8822 47.3195 69.2587 48.7695 72.2671C50.9555 76.7907 53.8339 80.3619 56.8206 83.5651C57.6863 84.4958 58.7035 85.4482 59.2013 85.3616C55.9116 82.18 52.7951 77.072 51.3883 72.0723C50.8689 70.2326 50.5659 68.4362 50.2845 66.6181C48.7046 55.9694 48.38 45.1259 48.2501 34.4123C48.2285 33.1353 48.2068 31.8367 47.9688 30.906C47.9471 30.8411 47.9255 30.7978 47.9255 30.7329C50.5659 29.326 53.3361 28.0274 56.2146 26.8586C55.9333 27.443 55.6303 28.2005 55.3706 28.9581C54.375 31.7285 53.7257 34.7586 53.3578 37.8103C52.6652 43.5892 53.3361 50.4936 54.8078 56.0776C55.6086 59.1078 56.6042 62.2245 58.0326 64.9949C60.1536 69.1504 62.9671 72.4186 65.9105 75.3405C66.7546 76.1846 67.7502 77.072 68.2696 76.9855C65.0232 74.0852 61.9932 69.4102 60.673 64.8001C60.1752 63.0902 59.8939 61.4453 59.6558 59.7571C58.2274 49.9092 58.0542 39.8665 58.0759 29.9537C58.0759 28.7633 58.0759 27.5729 57.8378 26.7071C57.7945 26.534 57.7513 26.4041 57.708 26.2743C59.7424 25.4734 61.7768 24.7375 63.8545 24.0666C64.8068 23.7636 65.759 23.4822 66.733 23.2008C66.4516 23.7419 66.1919 24.3696 65.9322 25.0189C64.8933 27.6162 64.2008 30.4515 63.8112 33.2868C63.0537 38.6761 63.6164 45.0826 65.0232 50.2771C65.7807 53.0908 66.733 55.9694 68.1181 58.5234C70.1741 62.376 72.9444 65.3628 75.8229 68.0466C76.6669 68.8258 77.6409 69.6266 78.1603 69.54C74.9788 66.8779 71.9921 62.5707 70.7369 58.2853C70.2607 56.7053 70.001 55.1686 69.7846 53.6103C68.486 44.455 68.4427 35.1265 68.5942 25.8847C68.6159 24.7808 68.6159 23.6554 68.3994 22.8762C68.3778 22.8113 68.3562 22.768 68.3562 22.703C70.2174 22.1836 72.0787 21.6858 73.94 21.2529C75.8229 20.82 77.6842 20.4521 79.5454 20.1058C78.2685 22.2485 77.2297 24.6077 76.4505 27.0101C74.8273 31.9882 74.3728 38.1783 74.9139 43.3295C75.2169 46.1432 75.693 49.0218 76.6453 51.7056C78.0737 55.7097 80.3246 59.0428 82.7485 62.0946C83.4627 62.982 84.2852 63.9127 84.8046 63.9127C82.0776 60.8393 79.8268 56.2075 79.2641 51.9437C79.0476 50.3637 79.0476 48.8486 79.0693 47.3336C79.2424 38.438 80.7141 29.5641 82.359 20.8417C82.4455 20.4088 82.5105 19.9759 82.5754 19.5647C82.9866 19.4998 83.4194 19.4132 83.8523 19.3483C86.1681 18.9587 88.4189 18.6124 90.6048 18.3094C89.3063 20.4954 88.2674 22.8978 87.4883 25.3436C85.9084 30.3433 85.4971 36.5117 86.0815 41.6846C86.4061 44.4983 86.9039 47.3769 87.8778 50.039C89.3279 54.0431 91.6004 57.3546 94.0676 60.3847C94.7819 61.2721 95.6259 62.2028 96.1453 62.2028C93.3967 59.151 91.1242 54.5409 90.5182 50.2771C90.3018 48.6971 90.2802 47.1821 90.2802 45.667C90.3884 36.7498 91.7952 27.8975 93.3534 19.1318C93.4184 18.7206 93.5049 18.2877 93.5482 17.8981C94.9117 17.7033 96.2536 17.5518 97.5521 17.4003C98.894 17.2488 100.171 17.0973 101.426 16.9458C101.296 17.1406 101.166 17.357 101.037 17.5735C99.7597 19.6296 98.7641 21.9239 98.0283 24.283C96.6215 28.7416 96.2536 34.2824 96.773 38.8925C97.0543 41.4032 97.5088 43.9788 98.3745 46.3596C99.6731 49.9308 101.708 52.896 103.893 55.6015C104.521 56.3807 105.279 57.2248 105.755 57.2248C103.287 54.4977 101.253 50.3853 100.712 46.5544C100.517 45.1476 100.496 43.784 100.517 42.4421C100.625 34.4772 101.859 26.5556 103.266 18.7206C103.396 18.028 103.504 17.3138 103.525 16.7077C105.43 16.4913 107.183 16.2965 108.785 16.1234C110.927 15.8853 112.789 15.6688 114.325 15.474C115.862 15.2792 117.074 15.1494 117.896 15.0412C118.567 14.9979 119 14.9329 119 14.9329L118.978 14.6299C118.978 14.6299 117.204 14.5434 114.109 14.5001C112.55 14.4568 110.689 14.4351 108.525 14.4568C106.858 14.4784 105.019 14.5001 103.049 14.565C102.941 14.3269 102.833 14.0888 102.703 13.8291C99.6082 7.37929 96.6648 0.799606 94.8901 -6.06145C94.5871 -7.23021 94.3274 -8.39897 94.2408 -9.67595C94.0244 -13.074 95.258 -17.0781 97.2275 -20C96.7513 -19.8918 96.1453 -19.0044 95.6476 -18.1819Z" fill="black"/>
</svg>
