<svg width="180" height="138" viewBox="0 0 180 138" fill="none" xmlns="http://www.w3.org/2000/svg">
<path opacity="0.03" fill-rule="evenodd" clip-rule="evenodd" d="M19.9024 133.345C10.2538 126.818 3.15309 116.137 0.646954 104.777C-3.0287 88.1623 9.96141 65.3588 14.3889 58.1532C14.9737 57.2207 16.3103 57.3479 16.728 58.3651C35.7746 107.321 71.654 94.9016 61.6712 88.7557C51.5214 82.525 21.6567 49.4217 31.18 36.1126C39.0325 25.1347 56.9931 16.7424 63.0496 14.1145C63.8432 13.7754 64.6786 14.4535 64.5533 15.3012C62.8408 26.0248 74.369 46.1156 77.8776 50.1847C81.595 54.508 92.7473 61.5441 86.9414 47.3025C81.1355 33.0609 79.423 11.2746 86.0225 5.84924C91.7448 1.14442 115.386 0.16954 121.442 0C122.027 5.11216e-08 122.361 0.635788 122.027 1.10204C115.261 10.8931 115.678 26.4063 117.558 30.3482C119.521 34.4596 122.654 31.0687 122.654 31.0687C122.946 29.8396 126.622 16.6152 126.622 16.6152C127.165 15.1317 127.791 13.6906 128.585 12.3343C129.963 9.87589 131.801 7.71422 134.015 5.9764C135.936 4.49291 138.15 3.34847 140.447 2.58553C142.578 1.86498 144.791 1.48351 147.005 1.31397C148.926 1.1868 150.848 1.1868 152.769 1.35634C153.402 1.41932 154.032 1.50102 154.659 1.58252C156.144 1.77527 157.621 1.96694 159.118 1.90737C159.577 1.90737 160.079 1.86498 160.538 1.82259C160.789 1.7802 161.039 1.73781 161.29 1.65305C161.624 1.56827 161.958 1.82259 162 2.16169L54.6541 140C51.2593 138.278 47.3103 138.757 43.4018 139.231C40.9625 139.526 38.539 139.82 36.2758 139.576C30.4281 138.94 24.7893 136.694 19.9024 133.345ZM73.7111 174.958C82.493 182.648 94.6026 186.795 106.168 186.304C123.087 185.597 141.615 167.111 147.386 160.956C148.129 160.148 147.659 158.883 146.573 158.739C94.5838 152.844 97.1785 114.803 105.681 122.915C114.308 131.169 153.883 151.65 164.191 138.976C172.695 128.523 176.084 108.92 177.033 102.362C177.152 101.504 176.283 100.867 175.501 101.207C165.644 105.631 143.342 99.607 138.52 97.2471C133.399 94.7498 123.737 85.7303 138.931 87.7026C154.124 89.6749 175.5 85.7296 178.995 77.9238C182.026 71.1553 176.811 47.9449 175.398 42.0194C175.246 41.4515 174.548 41.2906 174.187 41.7352C166.541 50.8271 151.528 54.415 147.252 53.6044C142.791 52.7562 145.234 48.841 145.234 48.841C146.339 48.2406 158.087 41.2666 158.087 41.2666C159.371 40.3574 160.593 39.3779 161.689 38.2581C163.692 36.2866 165.291 33.9453 166.384 31.348C167.31 29.1001 167.833 26.6556 167.968 24.2282C168.106 21.9739 167.897 19.7258 167.483 17.5322C167.106 15.6335 166.606 13.7675 165.943 11.9452C165.718 11.3467 165.475 10.7565 165.234 10.1677C164.662 8.77526 164.094 7.39063 163.761 5.92128C163.642 5.47507 163.552 4.97739 163.473 4.52027C163.449 4.26597 163.424 4.01167 163.44 3.74646C163.435 3.40012 163.104 3.14108 162.767 3.1878L58.2747 142.922C60.8129 145.775 61.3803 149.734 61.9419 153.652C62.2924 156.097 62.6407 158.526 63.4643 160.661C65.5968 166.176 69.2224 171.074 73.7111 174.958Z" fill="black"/>
</svg>
