<svg width="194" height="215" viewBox="0 0 194 215" fill="none" xmlns="http://www.w3.org/2000/svg">
<path fill-rule="evenodd" clip-rule="evenodd" d="M33.4096 64.7794C26.0027 81.3833 29.7672 100.455 34.3731 118.298C38.9466 136.014 43.9409 155.765 59.5587 166.076C74.7355 176.095 94.4267 170.538 112.498 169.874C127.8 169.312 142.263 167.654 156.514 162.513C173.836 156.263 193.528 151.976 203.644 136.991C214.534 120.858 219.762 98.7249 211.837 80.561C204.117 62.8652 181.653 57.6749 164.705 47.742C151.254 39.8584 138.531 31.5962 123.24 28.6345C106.534 25.3985 89.2275 23.873 73.7101 30.1167C56.6692 36.9734 40.7569 48.3089 33.4096 64.7794Z" fill="#FF8B3F"/>
<path opacity="0.7" fill-rule="evenodd" clip-rule="evenodd" d="M33.4096 64.7794C26.0027 81.3833 29.7672 100.455 34.3731 118.298C38.9466 136.014 43.9408 155.765 59.5587 166.076C74.7355 176.095 94.4267 170.538 112.498 169.874C127.8 169.312 142.263 167.654 156.514 162.513C173.836 156.263 193.528 151.976 203.644 136.991C214.534 120.858 219.762 98.7249 211.837 80.561C204.117 62.8652 181.653 57.6749 164.705 47.742C151.254 39.8584 138.531 31.5962 123.24 28.6345C106.534 25.3985 89.2275 23.873 73.7101 30.1167C56.6692 36.9734 40.7569 48.3089 33.4096 64.7794Z" fill="white"/>
<path d="M74.2453 61.4948L70.0221 58.4146L75.7272 46.7786C75.7272 46.7786 76.0695 44.27 73.9031 44.9545C71.7367 45.6389 66.8291 51.5699 64.5464 53.8526C62.2636 56.1353 61.3533 57.5009 61.6955 58.6439C62.0378 59.787 72.76 68.4524 72.76 68.4524L74.2453 61.4948Z" fill="white" stroke="black" stroke-width="0.366416" stroke-linecap="round" stroke-linejoin="round"/>
<path d="M123.257 138.929C123.257 138.929 132.237 144.771 135.266 147.044C137.595 148.746 140.142 150.128 142.84 151.15C144.027 151.582 146.841 151.15 147.6 152.016C148.36 152.882 148.572 155.151 148.572 156.233C148.572 157.314 149.979 162.619 150.52 164.672C151.06 166.726 149.548 167.485 148.897 167.485C148.247 167.485 148.247 165.863 147.491 164.782C146.735 163.7 143.042 156.992 140.027 155.476C137.012 153.96 123.148 149.094 119.037 147.037C114.927 144.98 113.411 143.036 113.411 143.036L123.257 138.929Z" fill="white" stroke="black" stroke-width="0.366416" stroke-linecap="round" stroke-linejoin="round"/>
<path d="M117.312 116.803L120.105 134.305C120.105 134.305 121.963 134.617 122.271 135.079C122.579 135.541 124.284 138.642 124.284 138.642C124.284 138.642 120.725 142.064 116.85 143.755C114.426 144.803 111.875 145.531 109.263 145.921L100.598 124.856L117.312 116.803Z" fill="#FF8B3F"/>
<g opacity="0.5">
<path opacity="0.5" d="M111.063 138.796C109.848 138.022 108.462 139.107 106.956 140.37L105.557 136.965C108.332 135.134 112.353 132.636 113.945 133.601C116.111 134.901 115.389 137.067 117.265 138.368C118.654 139.33 120.748 136.821 122.449 135.387C122.99 136.304 124.273 138.642 124.273 138.642C122.5 140.285 120.548 141.726 118.455 142.937C118.038 141.568 118.141 139.655 114.944 140.247C111.84 140.822 113.233 143.132 113.401 144.997C112.039 145.406 110.649 145.715 109.242 145.921L107.836 142.499C109.362 140.767 112.275 139.573 111.063 138.796Z" fill="white"/>
<path opacity="0.5" d="M119.876 132.889C117.042 133.043 114.486 125.267 111.929 127.824C109.373 130.38 107.613 136.417 104.612 134.641L102.641 129.85C102.879 129.711 103.138 129.609 103.407 129.549C105.861 128.974 109.472 126.951 106.727 126.085C105.231 125.613 103.178 126 101.549 127.197L100.584 124.85L110.916 119.877L112.507 120.883C112.507 120.883 111.481 124.494 114.383 125.507C116.149 126.123 117.593 125.394 118.644 125.165L119.876 132.889Z" fill="white"/>
</g>
<path d="M117.771 118.354L104.612 134.641L101.778 128.433L118.175 117.413L117.771 118.354Z" fill="black" stroke="black" stroke-width="0.366416" stroke-linecap="round" stroke-linejoin="round"/>
<path d="M117.312 116.803L120.105 134.305C120.105 134.305 121.963 134.617 122.271 135.079C122.579 135.541 124.284 138.642 124.284 138.642C124.284 138.642 120.725 142.064 116.85 143.755C114.426 144.803 111.875 145.531 109.263 145.921L100.598 124.856L117.312 116.803Z" stroke="black" stroke-width="0.366416" stroke-linecap="round" stroke-linejoin="round"/>
<path d="M152.251 151.698C152.251 151.698 152.036 161.65 151.82 164.573C151.605 167.496 149.654 168.899 149.007 168.68C148.36 168.461 148.247 167.704 148.897 167.489C149.548 167.273 151.17 166.082 151.17 163.382C151.17 160.682 150.629 152.345 150.629 151.698C150.629 151.051 151.82 151.157 152.251 151.698Z" fill="white" stroke="black" stroke-width="0.366416" stroke-linecap="round" stroke-linejoin="round"/>
<path d="M150.845 156.999L143.6 159.282L145.903 162.763L151.06 161.11L150.845 156.999Z" fill="black" stroke="black" stroke-width="0.366416" stroke-linecap="round" stroke-linejoin="round"/>
<path d="M141.139 110.961L136.994 107.2L128.887 115.031L132.634 119.12L133.38 118.2L130.451 114.811L136.994 108.46L140.489 111.813L141.139 110.961Z" fill="black" stroke="black" stroke-width="0.366416" stroke-linecap="round" stroke-linejoin="round"/>
<path d="M142.997 145.076L166.892 122.865C167.229 122.546 167.426 122.106 167.44 121.642C167.453 121.178 167.282 120.728 166.964 120.39L150.835 103.248C150.517 102.91 150.078 102.713 149.615 102.699C149.151 102.684 148.701 102.855 148.364 103.172L124.469 125.387C124.131 125.705 123.934 126.143 123.92 126.607C123.905 127.07 124.076 127.52 124.393 127.858L140.523 145C140.841 145.338 141.281 145.536 141.745 145.55C142.208 145.564 142.659 145.393 142.997 145.076Z" fill="white" stroke="black" stroke-width="0.366416" stroke-linecap="round" stroke-linejoin="round"/>
<path d="M127.313 122.984L128.599 121.773L147.077 141.506L145.79 142.718L127.313 122.984Z" fill="black" stroke="black" stroke-width="0.366416" stroke-linecap="round" stroke-linejoin="round"/>
<path d="M163.963 125.62L162.676 126.831L144.195 107.094L145.482 105.883L163.963 125.62Z" fill="black" stroke="black" stroke-width="0.366416" stroke-linecap="round" stroke-linejoin="round"/>
<path d="M119.38 83.7161C119.38 83.7161 122.46 85.393 123.018 86.3718C123.575 87.3506 130.985 105.804 130.985 105.804C130.985 105.804 136.437 109.298 136.156 110.277C135.875 111.256 133.641 113.771 133.641 113.771H131.683C131.265 113.771 128.603 107.611 127.768 106.222C126.933 104.832 117.709 90.7045 117.709 90.7045L116.453 90.0201L119.38 83.7161Z" fill="white" stroke="black" stroke-width="0.366416" stroke-linecap="round" stroke-linejoin="round"/>
<path d="M94.4374 69.5954C94.4374 69.5954 106.299 71.6488 107.213 72.7885C108.127 73.9281 120.79 83.3978 120.79 83.3978L115.427 92.2959L108.24 86.9331C108.24 86.9331 116.796 106.783 116.683 107.125C116.57 107.467 104.588 114.428 101.624 114.771C98.6606 115.113 97.4011 115.113 97.4011 115.113C97.4011 115.113 88.39 94.0071 86.5659 91.7244C84.7418 89.4417 81.2031 77.6927 81.2031 77.6927L71.3912 71.3066L73.4446 60.6973L85.197 66.9705L94.4374 69.5954Z" fill="#FF8B3F" stroke="black" stroke-width="0.366416" stroke-linecap="round" stroke-linejoin="round"/>
<path d="M87.0552 85.7729L84.112 70.6906L85.5836 69.5886L90.1217 68.3702L94.4373 69.5954C94.4373 69.5954 96.0013 69.8658 98.0342 70.2628L87.0552 85.7729Z" fill="white" stroke="black" stroke-width="0.366416" stroke-linecap="round" stroke-linejoin="round"/>
<path d="M108.24 86.9334L102.196 82.9634" stroke="black" stroke-width="0.366416" stroke-linecap="round" stroke-linejoin="round"/>
<path d="M105.361 84.9992L101.518 84.5475" stroke="black" stroke-width="0.366416" stroke-linecap="round" stroke-linejoin="round"/>
<path d="M81.2031 77.6925L79.9608 72.1038" stroke="black" stroke-width="0.366416" stroke-linecap="round" stroke-linejoin="round"/>
<path d="M81.2236 77.3642L78.5952 72.2101" stroke="black" stroke-width="0.366416" stroke-linecap="round" stroke-linejoin="round"/>
<path d="M77.6199 55.2899C77.6199 55.2899 76.6103 59.4378 76.3844 59.999C76.1586 60.5603 75.2722 61.5733 75.2722 62.4768C75.2722 63.3803 76.9526 64.0443 76.9526 64.0443C76.9526 64.0443 77.1784 69.3147 77.9622 69.9889C78.7459 70.6631 84.5776 69.3045 84.5776 69.3045L85.9226 73.4524L87.8288 81.7516L95.4539 69.9787L93.2088 66.3886L95.228 59.7732L78.0751 53.9552L77.6199 55.2899Z" fill="white" stroke="black" stroke-width="0.366416" stroke-linecap="round" stroke-linejoin="round"/>
<path d="M84.5707 69.308L85.8644 68.7126L85.9157 73.4559L84.5707 69.308Z" fill="black" stroke="black" stroke-width="0.366416" stroke-linecap="round" stroke-linejoin="round"/>
<path d="M81.4324 58.3152C81.4324 58.3152 81.1518 60.8135 79.1394 61.5082C77.1271 62.203 76.7814 59.9819 76.8499 59.2187C76.9183 58.4555 77.1271 57.2063 77.1271 57.2063C78.6491 57.0421 80.179 57.4361 81.4324 58.3152Z" fill="black" stroke="black" stroke-width="0.366416" stroke-linecap="round" stroke-linejoin="round"/>
<path d="M81.4187 58.3156L87.8014 60.3279L87.5242 60.677L81.1381 59.4279L81.4187 58.3156Z" fill="black" stroke="black" stroke-width="0.366416" stroke-linecap="round" stroke-linejoin="round"/>
<path d="M77.1133 57.2066C77.1133 57.2066 76.6274 56.5221 76.0045 57.4154C75.3816 58.3086 76.0729 60.1909 76.0729 60.1909C76.0729 60.1909 77.0449 58.3155 77.1133 57.2066Z" fill="black" stroke="black" stroke-width="0.366416" stroke-linecap="round" stroke-linejoin="round"/>
<path d="M80.7924 64.0753C80.5638 64.3922 80.274 64.66 79.9401 64.8628C79.6062 65.0656 79.235 65.1993 78.8485 65.256" stroke="black" stroke-width="0.366416" stroke-linecap="round" stroke-linejoin="round"/>
<path d="M79.0812 54.2906L95.2211 59.7664L93.2019 66.3818L93.2669 66.4845C92.7056 66.6283 91.7919 66.7788 91.1279 66.505C90.1012 66.0773 87.8767 64.2805 87.8767 64.2805L87.5344 60.6665L85.8233 61.7993L85.3955 61.5426C84.9677 61.2859 85.0532 59.2325 85.0532 59.2325C85.0532 59.2325 84.7965 59.0614 83.4276 57.9491C82.4112 57.1312 80.1661 55.2215 79.0812 54.2906Z" fill="black" stroke="black" stroke-width="0.366416" stroke-linecap="round" stroke-linejoin="round"/>
<path d="M86.6993 61.9089C86.6993 61.9089 88.1573 58.5447 89.8411 60.338C91.5249 62.1313 88.3831 64.9343 87.9348 65.0472C87.583 65.0856 87.2283 65.0075 86.9252 64.8247C86.7656 65.7834 86.3372 66.677 85.6897 67.4018" fill="white"/>
<path d="M86.6993 61.9089C86.6993 61.9089 88.1573 58.5447 89.8411 60.338C91.5249 62.1313 88.3831 64.9343 87.9348 65.0472C87.583 65.0856 87.2283 65.0075 86.9252 64.8247C86.7656 65.7834 86.3372 66.677 85.6897 67.4018" stroke="black" stroke-width="0.366416" stroke-linecap="round" stroke-linejoin="round"/>
<path d="M101.357 70.9577L95.7824 111.075L94.6975 108.593L99.345 70.4922L101.357 70.9577Z" fill="black" stroke="black" stroke-width="0.366416" stroke-linecap="round" stroke-linejoin="round"/>
<path d="M94.3893 107.974C94.3893 107.974 97.1751 113.706 97.1751 114.172C97.1751 114.637 93.301 116.496 92.5276 116.338C91.7541 116.181 90.2038 112.002 89.8924 110.298C89.5809 108.593 93.1504 107.2 94.3893 107.974Z" fill="black" stroke="black" stroke-width="0.366416" stroke-linecap="round" stroke-linejoin="round"/>
<path d="M64.2863 156.78C64.2863 156.78 62.5032 156.561 63.2835 158.885C63.9786 161.029 65.4314 162.845 67.3698 163.995C69.1837 165.069 74.6697 167.728 76.6376 167.961C78.6055 168.194 79.1051 166.527 77.3221 165.076C75.539 163.625 67.3425 158.988 66.7162 158.372C66.0899 157.756 64.2863 156.78 64.2863 156.78Z" fill="white" stroke="black" stroke-width="0.366416" stroke-linecap="round" stroke-linejoin="round"/>
<path d="M90.6728 128.576C89.6686 133.33 87.8434 137.872 85.2792 141.999C79.7794 150.716 77.8732 161.192 77.1579 164.244C77.0718 164.616 76.9003 164.962 76.6571 165.256C76.4138 165.55 76.1055 165.784 75.7565 165.938C75.4075 166.092 75.0274 166.162 74.6463 166.144C74.2652 166.126 73.8937 166.019 73.561 165.832C73.4546 165.775 73.3517 165.711 73.253 165.641C71.4734 164.429 69.2317 163.183 69.2317 163.183C69.2317 163.183 65.3781 160.582 64.8169 159.761C64.2556 158.94 63.6088 154.86 63.6635 154.09C63.7183 153.32 65.2207 154.042 65.8059 154.552C66.463 155.025 67.1618 155.438 67.8936 155.784L73.6739 157.437C73.6739 157.437 76.4358 145.839 76.9526 143.084C78.5953 134.357 80.5974 122.981 81.9903 121.742C83.3832 120.503 85.8815 119.901 85.8815 119.901L90.6728 128.576Z" fill="white" stroke="black" stroke-width="0.366416" stroke-linecap="round" stroke-linejoin="round"/>
<path d="M71.8977 156.89C71.8977 156.89 71.7437 162.253 70.6041 165.008L66.4356 162.917C66.4356 162.917 67.2433 157.745 67.2741 157.276C67.3976 156.677 67.5728 156.09 67.7977 155.521C67.7977 155.521 70.5459 155.942 71.8977 156.89Z" fill="black" stroke="black" stroke-width="0.366416" stroke-linecap="round" stroke-linejoin="round"/>
<path d="M96.4564 60.3378L95.4058 52.99C95.3286 52.4534 95.0998 51.9501 94.7464 51.539C94.3929 51.128 93.9295 50.8264 93.4105 50.6697L83.4446 47.6683C82.8073 47.4783 82.1244 47.5103 81.5077 47.759C80.891 48.0076 80.3769 48.4583 80.0496 49.0372L77.0585 54.2939C77.0585 54.2939 63.9406 50.4814 64.8372 51.7169C65.7339 52.9524 83.2256 57.1927 90.7377 59.6773C98.2498 62.162 104.752 66.2928 105.201 65.8376C105.649 65.3824 96.4564 60.3378 96.4564 60.3378Z" fill="white" stroke="black" stroke-width="0.366416" stroke-linecap="round" stroke-linejoin="round"/>
<path d="M73.1024 45.6387C73.1024 45.6387 75.498 43.6982 77.4385 44.0404C79.379 44.3827 86.6789 45.1801 87.3634 45.6387C88.0478 46.0973 90.1013 49.174 90.1013 49.174C90.1013 49.174 90.1013 49.4033 89.5297 49.4033C88.9582 49.4033 86.9082 47.1206 86.9082 47.1206L86.2237 47.0076C86.2237 47.0076 88.7323 49.0611 88.2771 49.6292C87.822 50.1973 86.4496 49.0611 86.1074 48.8318C85.7651 48.6025 84.1703 47.6921 84.1703 47.6921L81.6583 47.3499C81.6583 47.3499 84.0539 49.2869 84.6255 49.8585C85.197 50.43 85.0807 51.1145 84.1703 50.5429C83.26 49.9714 80.6316 48.2602 80.6316 48.2602C80.6316 48.2602 78.9204 47.6921 78.3523 47.4628C77.7842 47.2335 76.6411 46.6654 76.6411 46.6654L74.9299 47.5757" fill="white"/>
<path d="M73.1024 45.6387C73.1024 45.6387 75.498 43.6982 77.4385 44.0404C79.379 44.3827 86.6789 45.1801 87.3634 45.6387C88.0478 46.0973 90.1013 49.174 90.1013 49.174C90.1013 49.174 90.1013 49.4033 89.5297 49.4033C88.9582 49.4033 86.9082 47.1206 86.9082 47.1206L86.2237 47.0076C86.2237 47.0076 88.7323 49.0611 88.2771 49.6292C87.822 50.1973 86.4496 49.0611 86.1074 48.8318C85.7651 48.6025 84.1703 47.6921 84.1703 47.6921L81.6583 47.3499C81.6583 47.3499 84.0539 49.2869 84.6255 49.8585C85.197 50.43 85.0807 51.1145 84.1703 50.5429C83.26 49.9714 80.6316 48.2602 80.6316 48.2602C80.6316 48.2602 78.9204 47.6921 78.3523 47.4628C77.7842 47.2335 76.6411 46.6654 76.6411 46.6654L74.9299 47.5757" stroke="black" stroke-width="0.366416" stroke-linecap="round" stroke-linejoin="round"/>
<path d="M86.2237 47.0079L83.9581 46.1934" stroke="black" stroke-width="0.366416" stroke-linecap="round" stroke-linejoin="round"/>
<path d="M116.228 106.283C116.228 106.283 119.65 114.024 119.017 116.66C118.384 119.295 93.6161 135.401 93.6161 135.401L84.1703 119.901L97.1753 114.172C97.1753 114.172 110.961 111.382 116.228 106.283Z" fill="#FF8B3F"/>
<g opacity="0.5">
<path opacity="0.5" d="M97.175 114.171L97.3906 114.124C97.3382 114.451 97.3382 114.785 97.3906 115.113C97.6199 115.978 104.263 114.534 103.253 117.135C102.244 119.736 95.7239 118.579 94.4405 120.311C93.1572 122.043 96.7506 126.235 99.9163 124.791C103.082 123.347 106.128 119.158 106.703 122.334C106.936 123.607 106.518 125.39 105.923 127.101C104.478 128.104 103.038 129.086 101.682 130.007C103.051 128.049 103.852 126.441 102.367 126.814C98.8999 127.68 96.446 132.591 94.4234 131.725C92.4008 130.859 95.8677 124.791 93.5576 123.056C91.2475 121.321 88.7902 123.778 87.9244 121.468C87.0585 119.158 91.2475 119.158 93.2667 117.423C94.023 116.776 94.2147 116.112 94.0983 115.516L97.175 114.171Z" fill="white"/>
<path opacity="0.5" d="M113.945 117.714C114.948 118.012 115.896 118.475 116.748 119.083C115.447 120.188 113.668 121.544 111.707 122.995C111.8 122.604 111.802 122.198 111.715 121.807C111.627 121.415 111.451 121.049 111.2 120.736C109.178 118.279 105.276 120.301 104.41 117.557C103.544 114.812 109.034 114.237 107.877 111.348C107.836 111.246 107.795 111.15 107.75 111.057C109.493 110.401 111.186 109.618 112.816 108.717C113.722 109.182 115.156 110.281 113.367 112.07C110.916 114.535 110.772 116.845 113.945 117.714Z" fill="white"/>
</g>
<path d="M116.228 106.283C116.228 106.283 119.65 114.024 119.017 116.66C118.384 119.295 93.6161 135.401 93.6161 135.401L84.1703 119.901L97.1753 114.172C97.1753 114.172 110.961 111.382 116.228 106.283Z" stroke="black" stroke-width="0.366416" stroke-miterlimit="10"/>
<path d="M79.9999 169H89.9999" stroke="black" stroke-width="0.4" stroke-linecap="round"/>
<path d="M152 169H158" stroke="black" stroke-width="0.4" stroke-linecap="round"/>
</svg>
